<ttFont>
        <CharString name=".notdef">
          -62 0 62 376 62 hstem
          50 62 290 62 vstem
          50 hmoveto
          414 500 -414 hlineto
          62 -62 rmoveto
          290 -376 -290 hlineto
          endchar
        </CharString>
        <CharString name=".null">
          -591 endchar
        </CharString>
        <CharString name="A">
          83 -13 53 331 52 237 53 hstem
          81 120 268 120 vstem
          46 616 rmoveto
          12 36 153 32 138 hhcurveto
          74 22 -21 -75 hvcurveto
          -119 vlineto
          -99 -11 -87 -9 -82 -2 rrcurveto
          154 vlineto
          11 -6 7 -12 -31 -30 -4 -8 -24 vhcurveto
          -14 -5 -3 -8 -8 vvcurveto
          -532 vlineto
          -38 4 -5 63 49 40 8 11 39 vhcurveto
          2 6 1 5 6 vvcurveto
          7 -1 6 -3 6 vhcurveto
          -63 -2 rlineto
          -6 -5 11 44 hvcurveto
          276 vlineto
          91 2 92 7 85 13 rrcurveto
          -363 vlineto
          -38 4 -5 63 49 40 8 11 39 vhcurveto
          2 6 1 5 6 vvcurveto
          7 -1 6 -3 6 vhcurveto
          -63 -2 rlineto
          -6 -5 11 44 hvcurveto
          483 vlineto
          106 -43 29 -121 -131 -125 -11 -36 -125 vhcurveto
          -3 -8 -1 -7 -9 vvcurveto
          -9 1 -9 5 -8 vhcurveto
          endchar
        </CharString>
        <CharString name="AE">
          357 -13 53 331 52 -27 52 201 -20 33 52 -18 -20 hstemhm
          81 120 268 120 hintmask 10110111
          536 696 rmoveto
          hintmask 11011011
          13 -26 -36 4 -49 hhcurveto
          -131 -125 -11 -36 -125 hvcurveto
          -3 -8 -1 -7 -9 vvcurveto
          -9 1 -9 5 -8 vhcurveto
          12 36 153 32 138 hhcurveto
          74 22 -21 -75 hvcurveto
          -119 vlineto
          -99 -11 -87 -9 -82 -2 rrcurveto
          154 vlineto
          11 -6 7 -12 -31 -30 -4 -8 -24 vhcurveto
          -14 -5 -3 -8 -8 vvcurveto
          -532 vlineto
          -38 4 -5 63 49 40 8 11 39 vhcurveto
          2 6 1 5 6 vvcurveto
          7 -1 6 -3 6 vhcurveto
          -63 -2 rlineto
          -6 -5 11 44 hvcurveto
          276 vlineto
          91 2 92 7 85 13 rrcurveto
          -330 vlineto
          -54 34 -22 74 vhcurveto
          44 hlineto
          102 109 0 28 96 hvcurveto
          2 8 2 8 8 vvcurveto
          8 -2 8 -2 10 vhcurveto
          -7 -26 -157 -18 -78 hhcurveto
          -60 -18 11 54 hvcurveto
          hintmask 10110111
          273 vlineto
          10 94 84 8 80 hhcurveto
          3 8 2 6 9 vvcurveto
          8 -2 13 -4 8 vhcurveto
          -86 -1 -89 -5 -82 -11 rrcurveto
          199 vlineto
          8 0 6 -1 5 vhcurveto
          hintmask 10111011
          8 61 75 5 88 hhcurveto
          31 22 0 -4 30 hvcurveto
          3 8 2 7 9 vvcurveto
          9 -2 9 -4 8 vhcurveto
          6 -61 -4 0 -60 hhcurveto
          -88 -71 -4 -14 -74 hvcurveto
          endchar
        </CharString>
        <CharString name="Aacute">
          83 -13 53 331 52 237 53 hstem
          81 120 268 120 vstem
          46 616 rmoveto
          12 36 153 32 138 hhcurveto
          74 22 -21 -75 hvcurveto
          -119 vlineto
          -99 -11 -87 -9 -82 -2 rrcurveto
          154 vlineto
          11 -6 7 -12 -31 -30 -4 -8 -24 vhcurveto
          -14 -5 -3 -8 -8 vvcurveto
          -532 vlineto
          -38 4 -5 63 49 40 8 11 39 vhcurveto
          2 6 1 5 6 vvcurveto
          7 -1 6 -3 6 vhcurveto
          -63 -2 rlineto
          -6 -5 11 44 hvcurveto
          276 vlineto
          91 2 92 7 85 13 rrcurveto
          -363 vlineto
          -38 4 -5 63 49 40 8 11 39 vhcurveto
          2 6 1 5 6 vvcurveto
          7 -1 6 -3 6 vhcurveto
          -63 -2 rlineto
          -6 -5 11 44 hvcurveto
          483 vlineto
          106 -43 29 -121 -131 -125 -11 -36 -125 vhcurveto
          -3 -8 -1 -7 -9 vvcurveto
          -9 1 -9 5 -8 vhcurveto
          349 302 rmoveto
          -41 -48 -41 -40 -42 -39 -5 -4 0 -3 1 -3 5 -12 5 -9 10 -6 5 -4 6 2 6 1 51 22 53 30 47 34 11 9 2 6 -1 4 -5 25 -21 28 -24 14 -3 1 -8 3 -11 -11 rrcurveto
          endchar
        </CharString>
        <CharString name="Acircumflex">
          83 -13 53 331 52 237 53 hstem
          81 120 268 120 vstem
          46 616 rmoveto
          12 36 153 32 138 hhcurveto
          74 22 -21 -75 hvcurveto
          -119 vlineto
          -99 -11 -87 -9 -82 -2 rrcurveto
          154 vlineto
          11 -6 7 -12 -31 -30 -4 -8 -24 vhcurveto
          -14 -5 -3 -8 -8 vvcurveto
          -532 vlineto
          -38 4 -5 63 49 40 8 11 39 vhcurveto
          2 6 1 5 6 vvcurveto
          7 -1 6 -3 6 vhcurveto
          -63 -2 rlineto
          -6 -5 11 44 hvcurveto
          276 vlineto
          91 2 92 7 85 13 rrcurveto
          -363 vlineto
          -38 4 -5 63 49 40 8 11 39 vhcurveto
          2 6 1 5 6 vvcurveto
          7 -1 6 -3 6 vhcurveto
          -63 -2 rlineto
          -6 -5 11 44 hvcurveto
          483 vlineto
          106 -43 29 -121 -131 -125 -11 -36 -125 vhcurveto
          -3 -8 -1 -7 -9 vvcurveto
          -9 1 -9 5 -8 vhcurveto
          280 308 rmoveto
          -7 -20 -2 -6 -7 hvcurveto
          -121 -131 -4 -4 5 -6 3 -4 rlinecurve
          -6 5 22 -12 8 hhcurveto
          8 4 4 85 102 hvcurveto
          -85 108 3 -2 7 hhcurveto
          8 27 12 6 5 hvcurveto
          3 4 0 6 -4 4 -38 43 -37 40 -46 46 rrcurveto
          7 -7 -20 1 -7 hhcurveto
          endchar
        </CharString>
        <CharString name="Adieresis">
          83 -13 53 331 52 237 53 62 109 hstemhm
          81 120 -5 105 72 105 -9 120 hintmask 11111001
          46 616 rmoveto
          12 36 153 32 138 hhcurveto
          74 22 -21 -75 hvcurveto
          -119 vlineto
          -99 -11 -87 -9 -82 -2 rrcurveto
          154 vlineto
          11 -6 7 -12 -31 -30 -4 -8 -24 vhcurveto
          -14 -5 -3 -8 -8 vvcurveto
          -532 vlineto
          -38 4 -5 63 49 40 8 11 39 vhcurveto
          2 6 1 5 6 vvcurveto
          7 -1 6 -3 6 vhcurveto
          -63 -2 rlineto
          -6 -5 11 44 hvcurveto
          276 vlineto
          91 2 92 7 85 13 rrcurveto
          -363 vlineto
          -38 4 -5 63 49 40 8 11 39 vhcurveto
          2 6 1 5 6 vvcurveto
          7 -1 6 -3 6 vhcurveto
          -63 -2 rlineto
          -6 -5 11 44 hvcurveto
          483 vlineto
          106 -43 29 -121 -131 -125 -11 -36 -125 vhcurveto
          -3 -8 -1 -7 -9 vvcurveto
          -9 1 -9 5 -8 vhcurveto
          hintmask 11110110
          150 189 rmoveto
          -21 2 -9 12 vhcurveto
          72 4 rlineto
          17 2 2 7 18 vvcurveto
          48 vlineto
          22 -2 8 -15 vhcurveto
          -70 -4 rlineto
          -17 -2 -1 -7 -18 vvcurveto
          177 -48 rmoveto
          -21 2 -9 12 vhcurveto
          73 4 rlineto
          16 2 2 7 18 vvcurveto
          48 vlineto
          22 -2 8 -14 vhcurveto
          -70 -4 rlineto
          -18 -2 -1 -7 -18 vvcurveto
          endchar
        </CharString>
        <CharString name="Agrave">
          83 -13 53 331 52 237 53 hstem
          81 120 268 120 vstem
          46 616 rmoveto
          12 36 153 32 138 hhcurveto
          74 22 -21 -75 hvcurveto
          -119 vlineto
          -99 -11 -87 -9 -82 -2 rrcurveto
          154 vlineto
          11 -6 7 -12 -31 -30 -4 -8 -24 vhcurveto
          -14 -5 -3 -8 -8 vvcurveto
          -532 vlineto
          -38 4 -5 63 49 40 8 11 39 vhcurveto
          2 6 1 5 6 vvcurveto
          7 -1 6 -3 6 vhcurveto
          -63 -2 rlineto
          -6 -5 11 44 hvcurveto
          276 vlineto
          91 2 92 7 85 13 rrcurveto
          -363 vlineto
          -38 4 -5 63 49 40 8 11 39 vhcurveto
          2 6 1 5 6 vvcurveto
          7 -1 6 -3 6 vhcurveto
          -63 -2 rlineto
          -6 -5 11 44 hvcurveto
          483 vlineto
          106 -43 29 -121 -131 -125 -11 -36 -125 vhcurveto
          -3 -8 -1 -7 -9 vvcurveto
          -9 1 -9 5 -8 vhcurveto
          233 301 rmoveto
          -11 11 -8 -3 -3 -1 -24 -14 -21 -28 -5 -25 -1 -4 2 -6 11 -9 47 -34 53 -30 51 -22 6 -1 6 -2 5 4 10 6 5 9 5 12 1 3 0 3 -5 4 -42 39 -41 40 -41 48 rrcurveto
          endchar
        </CharString>
        <CharString name="Aring">
          83 -13 53 331 52 237 53 36 48 92 48 hstemhm
          81 120 22 58 111 59 18 120 hintmask 1111110010000000
          46 616 rmoveto
          12 36 153 32 138 hhcurveto
          74 22 -21 -75 hvcurveto
          -119 vlineto
          -99 -11 -87 -9 -82 -2 rrcurveto
          154 vlineto
          11 -6 7 -12 -31 -30 -4 -8 -24 vhcurveto
          -14 -5 -3 -8 -8 vvcurveto
          -532 vlineto
          -38 4 -5 63 49 40 8 11 39 vhcurveto
          2 6 1 5 6 vvcurveto
          7 -1 6 -3 6 vhcurveto
          -63 -2 rlineto
          -6 -5 11 44 hvcurveto
          276 vlineto
          91 2 92 7 85 13 rrcurveto
          -363 vlineto
          -38 4 -5 63 49 40 8 11 39 vhcurveto
          2 6 1 5 6 vvcurveto
          7 -1 6 -3 6 vhcurveto
          -63 -2 rlineto
          -6 -5 11 44 hvcurveto
          483 vlineto
          106 -43 29 -121 -131 -125 -11 -36 -125 vhcurveto
          -3 -8 -1 -7 -9 vvcurveto
          -9 1 -9 5 -8 vhcurveto
          hintmask 1111111110000000
          405 227 rmoveto
          51 -53 43 -66 -66 -43 -43 -51 -51 43 -43 66 66 53 43 51 vhcurveto
          -59 hmoveto
          -27 -27 -19 -29 -28 -27 19 27 27 27 19 28 29 27 -19 -27 vhcurveto
          endchar
        </CharString>
        <CharString name="Atilde">
          83 -13 53 331 52 237 53 59 72 -19 69 hstemhm
          81 120 268 120 hintmask 11101110
          46 616 rmoveto
          12 36 153 32 138 hhcurveto
          74 22 -21 -75 hvcurveto
          -119 vlineto
          -99 -11 -87 -9 -82 -2 rrcurveto
          154 vlineto
          11 -6 7 -12 -31 -30 -4 -8 -24 vhcurveto
          -14 -5 -3 -8 -8 vvcurveto
          -532 vlineto
          -38 4 -5 63 49 40 8 11 39 vhcurveto
          2 6 1 5 6 vvcurveto
          7 -1 6 -3 6 vhcurveto
          -63 -2 rlineto
          -6 -5 11 44 hvcurveto
          276 vlineto
          91 2 92 7 85 13 rrcurveto
          -363 vlineto
          -38 4 -5 63 49 40 8 11 39 vhcurveto
          2 6 1 5 6 vvcurveto
          7 -1 6 -3 6 vhcurveto
          -63 -2 rlineto
          -6 -5 11 44 hvcurveto
          483 vlineto
          106 -43 29 -121 -131 -125 -11 -36 -125 vhcurveto
          -3 -8 -1 -7 -9 vvcurveto
          -9 1 -9 5 -8 vhcurveto
          158 163 rmoveto
          17 18 18 29 35 42 29 -53 48 hhcurveto
          hintmask 11110110
          59 47 53 19 2 hvcurveto
          2 16 -6 9 -9 7 -8 7 -5 -4 -9 -9 rrcurveto
          -15 -15 -20 -11 -22 -42 -30 50 -59 hhcurveto
          hintmask 11101110
          -53 -42 -49 -25 -10 hvcurveto
          -2 -5 -1 -8 1 -4 3 -9 7 -7 8 -8 5 -5 5 1 4 4 rrcurveto
          endchar
        </CharString>
        <CharString name="B">
          57 -13 53 347 38 235 53 hstemhm
          81 120 251 120 -99 120 hintmask 10110100
          41 616 rmoveto
          12 36 136 32 138 hhcurveto
          hintmask 11111000
          78 23 -21 -75 hvcurveto
          -44 vlineto
          -62 -32 -19 -109 -9 vhcurveto
          -110 -9 rlineto
          156 vlineto
          11 -6 7 -12 -31 -30 -4 -8 -24 vhcurveto
          -14 -5 -3 -8 -8 vvcurveto
          -499 vlineto
          -54 34 -22 74 vhcurveto
          hintmask 10110100
          233 171 8 130 hvcurveto
          167 vlineto
          68 -14 47 -101 13 vhcurveto
          2 vlineto
          hintmask 10111000
          66 16 28 28 29 vvcurveto
          83 vlineto
          106 -43 29 -121 -133 -109 -11 -36 -127 vhcurveto
          -3 -8 -1 -7 -9 vvcurveto
          hintmask 10110100
          -9 1 -9 5 -8 vhcurveto
          238 -576 rmoveto
          -60 -18 11 54 hvcurveto
          hintmask 11110100
          266 vlineto
          16 194 4 0 4 hhcurveto
          63 7 -42 -67 hvcurveto
          -148 vlineto
          hintmask 10110100
          -72 -41 -18 -153 vhcurveto
          endchar
        </CharString>
        <CharString name="C">
          -16 -15 59 620 43 -43 50 hstemhm
          70 120 hintmask 11010000
          hintmask 10110000
          542 657 rmoveto
          3 9 1 7 7 vvcurveto
          10 -2 9 -4 8 vhcurveto
          4 -37 -41 3 -40 hhcurveto
          -132 -220 -2 -136 hvcurveto
          -454 vlineto
          -106 43 -31 121 111 97 7 32 107 vhcurveto
          3 7 2 8 7 vvcurveto
          10 -3 8 -3 10 vhcurveto
          -7 -25 -123 -23 -114 hhcurveto
          -74 -22 18 74 hvcurveto
          hintmask 11010000
          435 vlineto
          33 8 29 42 12 vhcurveto
          62 17 69 1 57 1 rrcurveto
          hintmask 10110000
          55 44 -4 -3 15 hvcurveto
          endchar
        </CharString>
        <CharString name="Ccedilla">
          -16 -81 40 26 59 -55 55 620 43 -43 50 hstemhm
          70 120 165 71 hintmask 01010100
          hintmask 00110110
          338 -41 rmoveto
          8 30 68 4 65 10 70 21 rlinecurve
          hintmask 01010100
          3 7 2 8 7 vvcurveto
          10 -3 8 -3 10 vhcurveto
          -7 -25 -123 -23 -114 hhcurveto
          -74 -22 18 74 hvcurveto
          435 vlineto
          33 8 29 42 12 vhcurveto
          62 17 69 1 57 1 rrcurveto
          55 44 -4 -3 15 hvcurveto
          hintmask 01001110
          3 9 1 7 7 vvcurveto
          10 -2 9 -4 8 vhcurveto
          4 -37 -41 3 -40 hhcurveto
          -132 -220 -2 -136 hvcurveto
          -454 vlineto
          -106 43 -31 121 23 22 0 1 22 vhcurveto
          hintmask 11010110
          -14 -52 rlineto
          -10 -2 7 -5 8 hhcurveto
          46 -1 9 -16 -20 vvcurveto
          -19 -23 -29 -49 -5 vhcurveto
          -12 -1 -2 -3 -6 vvcurveto
          -18 12 -15 16 -13 vhcurveto
          71 3 58 66 48 vvcurveto
          hintmask 00110110
          36 -29 29 -59 4 vhcurveto
          endchar
        </CharString>
        <CharString name="D">
          89 -13 53 620 53 hstem
          80 120 290 120 vstem
          610 125 rmoveto
          453 vlineto
          106 -43 29 -121 -131 -125 -11 -36 -125 vhcurveto
          -3 -8 -1 -7 -9 vvcurveto
          -9 1 -9 5 -8 vhcurveto
          12 36 153 32 138 hhcurveto
          74 22 -21 -75 hvcurveto
          -434 vlineto
          -72 -45 -18 -167 -60 -18 11 54 vhcurveto
          472 vlineto
          11 -6 7 -12 -31 -30 -4 -8 -24 vhcurveto
          -14 -5 -3 -8 -8 vvcurveto
          -519 vlineto
          -54 34 -2 74 244 178 8 130 vhcurveto
          endchar
        </CharString>
        <CharString name="E">
          -28 -13 53 356 52 201 -20 33 52 hstemhm
          84 120 hintmask 11101000
          462 396 rmoveto
          3 8 2 6 9 vvcurveto
          8 -2 13 -4 8 vhcurveto
          -86 -1 -89 -5 -82 -11 rrcurveto
          199 vlineto
          8 0 6 -1 5 vhcurveto
          hintmask 11111000
          8 61 75 5 88 hhcurveto
          31 22 0 -4 30 hvcurveto
          3 8 2 7 9 vvcurveto
          9 -2 9 -4 8 vhcurveto
          6 -61 -4 0 -60 hhcurveto
          -131 -92 -10 -36 -125 hvcurveto
          -3 -8 -1 -7 -9 vvcurveto
          -9 1 -9 5 -8 vhcurveto
          35 2 rlineto
          6 5 -11 -44 hvcurveto
          -502 vlineto
          -54 34 -22 74 vhcurveto
          44 hlineto
          102 107 5 23 98 hvcurveto
          2 8 2 8 8 vvcurveto
          8 -2 8 -2 10 vhcurveto
          -7 -26 -157 -18 -78 hhcurveto
          -60 -18 11 54 hvcurveto
          273 vlineto
          hintmask 11101000
          10 94 84 8 80 hhcurveto
          endchar
        </CharString>
        <CharString name="Eacute">
          -28 -13 53 356 52 201 -20 33 52 hstemhm
          84 120 hintmask 11101000
          462 396 rmoveto
          3 8 2 6 9 vvcurveto
          8 -2 13 -4 8 vhcurveto
          -86 -1 -89 -5 -82 -11 rrcurveto
          199 vlineto
          8 0 6 -1 5 vhcurveto
          hintmask 11111000
          8 61 75 5 88 hhcurveto
          31 22 0 -4 30 hvcurveto
          3 8 2 7 9 vvcurveto
          9 -2 9 -4 8 vhcurveto
          6 -61 -4 0 -60 hhcurveto
          -131 -92 -10 -36 -125 hvcurveto
          -3 -8 -1 -7 -9 vvcurveto
          -9 1 -9 5 -8 vhcurveto
          35 2 rlineto
          6 5 -11 -44 hvcurveto
          -502 vlineto
          -54 34 -22 74 vhcurveto
          44 hlineto
          102 107 5 23 98 hvcurveto
          2 8 2 8 8 vvcurveto
          8 -2 8 -2 10 vhcurveto
          -7 -26 -157 -18 -78 hhcurveto
          -60 -18 11 54 hvcurveto
          273 vlineto
          hintmask 11101000
          10 94 84 8 80 hhcurveto
          -73 522 rmoveto
          -41 -48 -41 -40 -42 -39 -5 -4 0 -3 1 -3 5 -12 5 -9 10 -6 5 -4 6 2 6 1 51 22 53 30 47 34 11 9 2 6 -1 4 -5 25 -21 28 -24 14 -3 1 -8 3 -11 -11 rrcurveto
          endchar
        </CharString>
        <CharString name="Ecircumflex">
          -28 -13 53 356 52 201 -20 33 52 hstemhm
          84 120 hintmask 11101000
          462 396 rmoveto
          3 8 2 6 9 vvcurveto
          8 -2 13 -4 8 vhcurveto
          -86 -1 -89 -5 -82 -11 rrcurveto
          199 vlineto
          8 0 6 -1 5 vhcurveto
          hintmask 11111000
          8 61 75 5 88 hhcurveto
          31 22 0 -4 30 hvcurveto
          3 8 2 7 9 vvcurveto
          9 -2 9 -4 8 vhcurveto
          6 -61 -4 0 -60 hhcurveto
          -131 -92 -10 -36 -125 hvcurveto
          -3 -8 -1 -7 -9 vvcurveto
          -9 1 -9 5 -8 vhcurveto
          35 2 rlineto
          6 5 -11 -44 hvcurveto
          -502 vlineto
          -54 34 -22 74 vhcurveto
          44 hlineto
          102 107 5 23 98 hvcurveto
          2 8 2 8 8 vvcurveto
          8 -2 8 -2 10 vhcurveto
          -7 -26 -157 -18 -78 hhcurveto
          -60 -18 11 54 hvcurveto
          273 vlineto
          hintmask 11101000
          10 94 84 8 80 hhcurveto
          -152 528 rmoveto
          -7 -20 -2 -6 -7 hvcurveto
          -121 -131 -4 -4 5 -6 3 -4 rlinecurve
          -6 5 22 -12 8 hhcurveto
          8 4 4 85 102 hvcurveto
          -85 108 3 -2 7 hhcurveto
          8 27 12 6 5 hvcurveto
          3 4 0 6 -4 4 -38 43 -37 40 -46 46 rrcurveto
          7 -7 -20 1 -7 hhcurveto
          endchar
        </CharString>
        <CharString name="Edieresis">
          -28 -13 53 356 52 201 -20 33 52 61 109 hstemhm
          84 120 -23 105 72 105 hintmask 11101101
          462 396 rmoveto
          3 8 2 6 9 vvcurveto
          8 -2 13 -4 8 vhcurveto
          -86 -1 -89 -5 -82 -11 rrcurveto
          199 vlineto
          8 0 6 -1 5 vhcurveto
          hintmask 11111101
          8 61 75 5 88 hhcurveto
          31 22 0 -4 30 hvcurveto
          3 8 2 7 9 vvcurveto
          9 -2 9 -4 8 vhcurveto
          6 -61 -4 0 -60 hhcurveto
          -131 -92 -10 -36 -125 hvcurveto
          -3 -8 -1 -7 -9 vvcurveto
          -9 1 -9 5 -8 vhcurveto
          35 2 rlineto
          6 5 -11 -44 hvcurveto
          -502 vlineto
          -54 34 -22 74 vhcurveto
          44 hlineto
          102 107 5 23 98 hvcurveto
          2 8 2 8 8 vvcurveto
          8 -2 8 -2 10 vhcurveto
          -7 -26 -157 -18 -78 hhcurveto
          -60 -18 11 54 hvcurveto
          273 vlineto
          hintmask 11101101
          10 94 84 8 80 hhcurveto
          hintmask 11101011
          -281 409 rmoveto
          -21 2 -9 12 vhcurveto
          72 4 rlineto
          17 2 2 7 18 vvcurveto
          48 vlineto
          22 -2 8 -15 vhcurveto
          -70 -4 rlineto
          -17 -2 -1 -7 -18 vvcurveto
          177 -48 rmoveto
          -21 2 -9 12 vhcurveto
          73 4 rlineto
          16 2 2 7 18 vvcurveto
          48 vlineto
          22 -2 8 -14 vhcurveto
          -70 -4 rlineto
          -18 -2 -1 -7 -18 vvcurveto
          endchar
        </CharString>
        <CharString name="Egrave">
          -28 -13 53 356 52 201 -20 33 52 hstemhm
          84 120 hintmask 11101000
          462 396 rmoveto
          3 8 2 6 9 vvcurveto
          8 -2 13 -4 8 vhcurveto
          -86 -1 -89 -5 -82 -11 rrcurveto
          199 vlineto
          8 0 6 -1 5 vhcurveto
          hintmask 11111000
          8 61 75 5 88 hhcurveto
          31 22 0 -4 30 hvcurveto
          3 8 2 7 9 vvcurveto
          9 -2 9 -4 8 vhcurveto
          6 -61 -4 0 -60 hhcurveto
          -131 -92 -10 -36 -125 hvcurveto
          -3 -8 -1 -7 -9 vvcurveto
          -9 1 -9 5 -8 vhcurveto
          35 2 rlineto
          6 5 -11 -44 hvcurveto
          -502 vlineto
          -54 34 -22 74 vhcurveto
          44 hlineto
          102 107 5 23 98 hvcurveto
          2 8 2 8 8 vvcurveto
          8 -2 8 -2 10 vhcurveto
          -7 -26 -157 -18 -78 hhcurveto
          -60 -18 11 54 hvcurveto
          273 vlineto
          hintmask 11101000
          10 94 84 8 80 hhcurveto
          -229 521 rmoveto
          -11 11 -8 -3 -3 -1 -24 -14 -21 -28 -5 -25 -1 -4 2 -6 11 -9 47 -34 53 -30 51 -22 6 -1 6 -2 5 4 10 6 5 9 5 12 1 3 0 3 -5 4 -42 39 -41 40 -41 48 rrcurveto
          endchar
        </CharString>
        <CharString name="Eth">
          106 -13 53 326 52 -40 59 213 63 hstemhm
          97 120 290 120 hintmask 11011100
          -4 418 rmoveto
          -3 -8 -2 -6 -9 vvcurveto
          -8 2 -13 4 -8 vhcurveto
          33 33 1 2 34 hvcurveto
          -326 vlineto
          -54 34 -2 74 244 178 8 130 vhcurveto
          453 vlineto
          106 -43 29 -121 -137 -126 -9 -36 -131 vhcurveto
          -3 -8 -1 -7 -9 vvcurveto
          -9 1 -9 5 -8 vhcurveto
          12 37 127 20 145 hhcurveto
          94 33 -26 -60 hvcurveto
          -434 vlineto
          -72 -45 -18 -167 -60 -18 11 54 vhcurveto
          hintmask 10111100
          273 vlineto
          37 4 35 5 35 6 rrcurveto
          3 8 2 7 9 vvcurveto
          9 -2 9 -4 8 vhcurveto
          -106 -12 rlineto
          146 vlineto
          11 -6 7 -12 -31 -30 -4 -8 -24 vhcurveto
          -14 -5 -3 -8 -8 vvcurveto
          hintmask 11011100
          -141 vlineto
          -2 -35 -33 -1 -33 hhcurveto
          endchar
        </CharString>
        <CharString name="Euro">
          1 -13 57 211 51 -28 48 44 51 -28 48 221 45 -45 50 hstemhm
          91 120 210 86 hintmask 1010110110000000
          hintmask 1101001110000000
          507 680 rmoveto
          10 -2 9 -4 8 vhcurveto
          4 -35 -36 1 -34 hhcurveto
          -73 -67 -7 -14 -55 hvcurveto
          -75 -18 -35 -39 -58 vvcurveto
          -151 vlineto
          -51 -7 rlineto
          -3 -8 -2 -7 -9 vvcurveto
          -9 2 -9 4 -8 vhcurveto
          17 1 16 2 17 2 rrcurveto
          -63 vlineto
          -51 -7 rlineto
          -3 -8 -2 -7 -9 vvcurveto
          -9 2 -9 4 -8 vhcurveto
          17 1 16 2 17 2 rrcurveto
          -136 vlineto
          -106 43 -29 121 86 73 5 26 86 vhcurveto
          3 7 2 8 7 vvcurveto
          10 -3 8 -3 10 vhcurveto
          -5 -18 -88 -19 -86 hhcurveto
          -74 -22 18 74 hvcurveto
          hintmask 1010110110000000
          132 vlineto
          6 73 38 4 66 hhcurveto
          3 8 2 6 9 vvcurveto
          8 -2 13 -4 8 vhcurveto
          -68 -1 -40 -2 -68 -5 rrcurveto
          61 vlineto
          6 73 68 4 66 hhcurveto
          3 8 2 6 9 vvcurveto
          8 -2 13 -4 8 vhcurveto
          -68 -1 -70 -2 -68 -5 rrcurveto
          134 vlineto
          48 26 22 42 7 vhcurveto
          49 11 46 4 47 -1 rrcurveto
          -93 vlineto
          -11 7 -7 11 19 17 4 4 15 vhcurveto
          14 6 3 7 8 vvcurveto
          hintmask 1101001110000000
          95 vlineto
          endchar
        </CharString>
        <CharString name="F">
          -78 396 52 201 -20 33 52 hstemhm
          85 120 hintmask 11010000
          418 396 rmoveto
          3 8 2 6 9 vvcurveto
          8 -2 13 -4 8 vhcurveto
          -71 -1 -72 -3 -69 -7 rrcurveto
          193 vlineto
          8 0 6 -1 5 vhcurveto
          hintmask 11110000
          8 61 75 5 88 hhcurveto
          31 22 0 -4 30 hvcurveto
          3 8 2 7 9 vvcurveto
          9 -2 9 -4 8 vhcurveto
          6 -61 -4 0 -60 hhcurveto
          -131 -92 -10 -36 -125 hvcurveto
          -3 -8 -1 -7 -9 vvcurveto
          -9 1 -9 5 -8 vhcurveto
          35 2 rlineto
          6 5 -11 -44 hvcurveto
          -675 vlineto
          -50 -16 -17 -50 -3 vhcurveto
          -3 -8 -1 -6 -8 vvcurveto
          -9 1 -9 4 -8 vhcurveto
          40 23 0 8 40 hvcurveto
          62 13 20 31 62 vvcurveto
          497 vlineto
          hintmask 11010000
          8 76 70 5 67 hhcurveto
          endchar
        </CharString>
        <CharString name="G">
          57 -13 53 371 53 200 43 -43 50 hstemhm
          71 120 290 120 hintmask 11101100
          235 -13 rmoveto
          247 119 33 105 hvcurveto
          296 vlineto
          38 -4 5 -63 -49 -159 -8 -11 -39 vhcurveto
          -2 -6 -1 -5 -6 vvcurveto
          -7 1 -6 3 -6 vhcurveto
          182 2 rlineto
          6 5 -11 -44 hvcurveto
          -226 vlineto
          -59 -23 -31 -171 -74 -22 21 75 vhcurveto
          435 vlineto
          33 8 29 42 12 vhcurveto
          62 17 69 1 57 1 rrcurveto
          55 54 -4 -3 15 hvcurveto
          hintmask 11011100
          3 9 1 7 7 vvcurveto
          10 -2 9 -4 8 vhcurveto
          4 -37 -51 3 -40 hhcurveto
          -132 -220 -2 -136 hvcurveto
          -454 vlineto
          hintmask 11101100
          -106 43 -29 121 vhcurveto
          endchar
        </CharString>
        <CharString name="H">
          122 -13 53 326 52 242 34 -34 53 hstemhm
          91 120 290 120 hintmask 11101100
          211 366 rmoveto
          98 1 101 7 91 15 rrcurveto
          -359 vlineto
          -38 4 -5 63 49 40 8 11 39 vhcurveto
          2 6 1 5 6 vvcurveto
          7 -1 6 -3 6 vhcurveto
          -63 -2 rlineto
          -6 -5 11 44 hvcurveto
          hintmask 11011100
          575 vlineto
          38 -4 5 -63 -49 -40 -8 -11 -39 vhcurveto
          hintmask 11101100
          -2 -6 -1 -5 -6 vvcurveto
          -7 1 -6 3 -6 vhcurveto
          63 2 rlineto
          6 5 -11 -44 hvcurveto
          -164 vlineto
          -108 -12 -94 -10 -88 -1 rrcurveto
          hintmask 11011100
          252 vlineto
          38 -4 5 -63 -49 -40 -8 -11 -39 vhcurveto
          hintmask 11101100
          -2 -6 -1 -5 -6 vvcurveto
          -7 1 -6 3 -6 vhcurveto
          63 2 rlineto
          6 5 -11 -44 hvcurveto
          -575 vlineto
          -38 4 -5 63 49 40 8 11 39 vhcurveto
          2 6 1 5 6 vvcurveto
          7 -1 6 -3 6 vhcurveto
          -63 -2 rlineto
          -6 -5 11 44 hvcurveto
          endchar
        </CharString>
        <CharString name="I">
          -288 -13 53 620 34 -34 53 hstemhm
          91 120 hintmask 11010000
          hintmask 10110000
          211 670 rmoveto
          38 -4 5 -63 vhcurveto
          hintmask 11010000
          -49 -40 -8 -11 -39 hvcurveto
          -2 -6 -1 -5 -6 vvcurveto
          -7 1 -6 3 -6 vhcurveto
          63 2 rlineto
          6 5 -11 -44 hvcurveto
          -575 vlineto
          -38 4 -5 63 49 40 8 11 39 vhcurveto
          2 6 1 5 6 vvcurveto
          7 -1 6 -3 6 vhcurveto
          -63 -2 rlineto
          -6 -5 11 44 hvcurveto
          endchar
        </CharString>
        <CharString name="Iacute">
          -288 -13 53 620 34 -34 53 hstemhm
          91 120 hintmask 11010000
          hintmask 10110000
          211 670 rmoveto
          38 -4 5 -63 vhcurveto
          hintmask 11010000
          -49 -40 -8 -11 -39 hvcurveto
          -2 -6 -1 -5 -6 vvcurveto
          -7 1 -6 3 -6 vhcurveto
          63 2 rlineto
          6 5 -11 -44 hvcurveto
          -575 vlineto
          -38 4 -5 63 49 40 8 11 39 vhcurveto
          2 6 1 5 6 vvcurveto
          7 -1 6 -3 6 vhcurveto
          -63 -2 rlineto
          -6 -5 11 44 hvcurveto
          -2 823 rmoveto
          -41 -48 -41 -40 -42 -39 -5 -4 0 -3 1 -3 5 -12 5 -9 10 -6 5 -4 6 2 6 1 51 22 53 30 47 34 11 9 2 6 -1 4 -5 25 -21 28 -24 14 -3 1 -8 3 -11 -11 rrcurveto
          endchar
        </CharString>
        <CharString name="Icircumflex">
          -288 -13 53 620 34 -34 53 hstemhm
          91 120 hintmask 11010000
          hintmask 10110000
          211 670 rmoveto
          38 -4 5 -63 vhcurveto
          hintmask 11010000
          -49 -40 -8 -11 -39 hvcurveto
          -2 -6 -1 -5 -6 vvcurveto
          -7 1 -6 3 -6 vhcurveto
          63 2 rlineto
          6 5 -11 -44 hvcurveto
          -575 vlineto
          -38 4 -5 63 49 40 8 11 39 vhcurveto
          2 6 1 5 6 vvcurveto
          7 -1 6 -3 6 vhcurveto
          -63 -2 rlineto
          -6 -5 11 44 hvcurveto
          -90 829 rmoveto
          -7 -20 -2 -6 -7 hvcurveto
          -121 -131 -4 -4 5 -6 3 -4 rlinecurve
          -6 5 22 -12 8 hhcurveto
          8 4 4 85 102 hvcurveto
          -85 108 3 -2 7 hhcurveto
          8 27 12 6 5 hvcurveto
          3 4 0 6 -4 4 -38 43 -37 40 -46 46 rrcurveto
          7 -7 -20 1 -7 hhcurveto
          endchar
        </CharString>
        <CharString name="Idieresis">
          -288 -13 53 620 34 -34 53 62 109 hstemhm
          -6 105 -8 120 -40 105 hintmask 11010100
          hintmask 10110100
          211 670 rmoveto
          38 -4 5 -63 vhcurveto
          hintmask 11010100
          -49 -40 -8 -11 -39 hvcurveto
          -2 -6 -1 -5 -6 vvcurveto
          -7 1 -6 3 -6 vhcurveto
          63 2 rlineto
          6 5 -11 -44 hvcurveto
          -575 vlineto
          -38 4 -5 63 49 40 8 11 39 vhcurveto
          2 6 1 5 6 vvcurveto
          7 -1 6 -3 6 vhcurveto
          -63 -2 rlineto
          -6 -5 11 44 hvcurveto
          hintmask 11011010
          -217 710 rmoveto
          -21 2 -9 12 vhcurveto
          72 4 rlineto
          17 2 2 7 18 vvcurveto
          48 vlineto
          22 -2 8 -15 vhcurveto
          -70 -4 rlineto
          -17 -2 -1 -7 -18 vvcurveto
          177 -48 rmoveto
          -21 2 -9 12 vhcurveto
          73 4 rlineto
          16 2 2 7 18 vvcurveto
          48 vlineto
          22 -2 8 -14 vhcurveto
          -70 -4 rlineto
          -18 -2 -1 -7 -18 vvcurveto
          endchar
        </CharString>
        <CharString name="Igrave">
          -288 -13 53 620 34 -34 53 hstemhm
          91 120 hintmask 11010000
          hintmask 10110000
          211 670 rmoveto
          38 -4 5 -63 vhcurveto
          hintmask 11010000
          -49 -40 -8 -11 -39 hvcurveto
          -2 -6 -1 -5 -6 vvcurveto
          -7 1 -6 3 -6 vhcurveto
          63 2 rlineto
          6 5 -11 -44 hvcurveto
          -575 vlineto
          -38 4 -5 63 49 40 8 11 39 vhcurveto
          2 6 1 5 6 vvcurveto
          7 -1 6 -3 6 vhcurveto
          -63 -2 rlineto
          -6 -5 11 44 hvcurveto
          -158 822 rmoveto
          -11 11 -8 -3 -3 -1 -24 -14 -21 -28 -5 -25 -1 -4 2 -6 11 -9 47 -34 53 -30 51 -22 6 -1 6 -2 5 4 10 6 5 9 5 12 1 3 0 3 -5 4 -42 39 -41 40 -41 48 rrcurveto
          endchar
        </CharString>
        <CharString name="J">
          -306 -229 47 842 34 -34 53 hstemhm
          91 120 hintmask 11010000
          -10 -229 rmoveto
          45 38 3 7 45 hvcurveto
          62 14 31 29 62 vvcurveto
          hintmask 10110000
          784 vlineto
          38 -4 5 -63 vhcurveto
          hintmask 11010000
          -49 -40 -8 -11 -39 hvcurveto
          -2 -6 -1 -5 -6 vvcurveto
          -7 1 -6 3 -6 vhcurveto
          63 2 rlineto
          6 5 -11 -44 hvcurveto
          -715 vlineto
          -50 -17 -13 -54 -7 vhcurveto
          -1 -11 -12 -1 -8 hhcurveto
          -4 -6 -1 -8 -7 vvcurveto
          -9 4 -8 2 -9 vhcurveto
          endchar
        </CharString>
        <CharString name="K">
          86 -13 53 331 48 241 34 -34 53 -40 40 -7 -20 hstemhm
          91 120 228 112 hintmask 11000111
          677 6 rmoveto
          2 6 1 5 6 vvcurveto
          7 -1 6 -3 6 vhcurveto
          -63 -2 rlineto
          -10 -5 3 27 -12 hvcurveto
          -144 322 rlineto
          65 8 44 32 69 vvcurveto
          hintmask 11001011
          107 vlineto
          31 2 20 9 10 vhcurveto
          71 8 rlineto
          hintmask 11000111
          2 7 2 6 7 vvcurveto
          5 -1 6 -2 5 vhcurveto
          -50 -54 0 -7 -40 hvcurveto
          -44 -8 -7 -39 -56 vvcurveto
          -98 vlineto
          -50 -17 -8 -54 -11 vhcurveto
          -47 -10 -60 -5 -50 -2 rrcurveto
          hintmask 11010011
          251 vlineto
          38 -4 5 -63 vhcurveto
          hintmask 11100011
          -49 -40 -8 -11 -39 hvcurveto
          -2 -6 -1 -5 -6 vvcurveto
          -7 1 -6 3 -6 vhcurveto
          63 2 rlineto
          6 5 -11 -44 hvcurveto
          -575 vlineto
          -38 4 -5 63 49 40 8 11 39 vhcurveto
          2 6 1 5 6 vvcurveto
          7 -1 6 -3 6 vhcurveto
          -63 -2 rlineto
          -6 -5 11 44 hvcurveto
          276 vlineto
          35 1 35 3 35 3 156 -348 rcurveline
          -42 19 1 -1 57 hhcurveto
          hintmask 11000111
          49 40 8 11 39 hvcurveto
          endchar
        </CharString>
        <CharString name="L">
          -62 -13 61 612 34 -34 53 hstemhm
          91 120 hintmask 11010000
          526 29 rmoveto
          4 9 1 8 10 vvcurveto
          10 -1 10 -6 9 vhcurveto
          -13 -41 -104 -24 -90 hhcurveto
          -75 -3 5 22 hvcurveto
          hintmask 10110000
          595 vlineto
          38 -4 5 -63 vhcurveto
          hintmask 11010000
          -49 -40 -8 -11 -39 hvcurveto
          -2 -6 -1 -5 -6 vvcurveto
          -7 1 -6 3 -6 vhcurveto
          63 2 rlineto
          6 5 -11 -44 hvcurveto
          -542 vlineto
          -54 34 -22 74 114 103 10 32 110 vhcurveto
          endchar
        </CharString>
        <CharString name="M">
          431 -13 53 607 66 -53 34 -34 53 hstemhm
          91 120 240 120 240 120 cntrmask 00001110
          hintmask 10101110
          hintmask 11001110
          571 614 rmoveto
          23 73 44 10 45 hhcurveto
          60 18 -11 -54 hvcurveto
          -552 vlineto
          -38 4 -5 63 49 40 8 11 39 vhcurveto
          2 6 1 5 6 vvcurveto
          7 -1 6 -3 6 vhcurveto
          -63 -2 rlineto
          -6 -5 11 44 hvcurveto
          542 vlineto
          54 -34 22 -74 -79 -94 -19 -32 -82 vhcurveto
          36 -10 -34 15 -61 hhcurveto
          -79 -91 -17 -32 -82 hvcurveto
          6 vlineto
          hintmask 10011110
          38 -4 5 -63 vhcurveto
          hintmask 10101110
          -49 -40 -8 -11 -39 hvcurveto
          -2 -6 -1 -5 -6 vvcurveto
          -7 1 -6 3 -6 vhcurveto
          63 2 rlineto
          6 5 -11 -44 hvcurveto
          -575 vlineto
          -38 4 -5 63 49 40 8 11 39 vhcurveto
          2 6 1 5 6 vvcurveto
          7 -1 6 -3 6 vhcurveto
          -63 -2 rlineto
          -6 -5 11 44 hvcurveto
          hintmask 11001110
          519 vlineto
          23 73 44 10 45 hhcurveto
          60 18 -11 -54 hvcurveto
          -552 vlineto
          -38 4 -5 63 49 40 8 11 39 vhcurveto
          2 6 1 5 6 vvcurveto
          7 -1 6 -3 6 vhcurveto
          -63 -2 rlineto
          -6 -5 11 44 hvcurveto
          endchar
        </CharString>
        <CharString name="N">
          103 -13 53 607 66 -53 34 -34 53 hstemhm
          91 120 272 120 hintmask 10101100
          hintmask 11001100
          603 637 rmoveto
          54 -34 22 -74 -88 -105 -17 -32 -91 vhcurveto
          6 vlineto
          hintmask 10011100
          38 -4 5 -63 vhcurveto
          hintmask 10101100
          -49 -40 -8 -11 -39 hvcurveto
          -2 -6 -1 -5 -6 vvcurveto
          -7 1 -6 3 -6 vhcurveto
          63 2 rlineto
          6 5 -11 -44 hvcurveto
          -575 vlineto
          -38 4 -5 63 49 40 8 11 39 vhcurveto
          2 6 1 5 6 vvcurveto
          7 -1 6 -3 6 vhcurveto
          -63 -2 rlineto
          -6 -5 11 44 hvcurveto
          hintmask 11001100
          519 vlineto
          23 85 55 10 54 hhcurveto
          60 18 -11 -54 hvcurveto
          -552 vlineto
          -38 4 -5 63 49 40 8 11 39 vhcurveto
          2 6 1 5 6 vvcurveto
          7 -1 6 -3 6 vhcurveto
          -63 -2 rlineto
          -6 -5 11 44 hvcurveto
          endchar
        </CharString>
        <CharString name="Ntilde">
          103 -13 53 607 66 -53 34 -34 53 59 72 -19 69 hstemhm
          91 120 272 120 hintmask 10100111
          hintmask 11000111
          603 637 rmoveto
          54 -34 22 -74 -88 -105 -17 -32 -91 vhcurveto
          6 vlineto
          hintmask 10010111
          38 -4 5 -63 vhcurveto
          hintmask 10100111
          -49 -40 -8 -11 -39 hvcurveto
          -2 -6 -1 -5 -6 vvcurveto
          -7 1 -6 3 -6 vhcurveto
          63 2 rlineto
          6 5 -11 -44 hvcurveto
          -575 vlineto
          -38 4 -5 63 49 40 8 11 39 vhcurveto
          2 6 1 5 6 vvcurveto
          7 -1 6 -3 6 vhcurveto
          -63 -2 rlineto
          -6 -5 11 44 hvcurveto
          hintmask 11000111
          519 vlineto
          23 85 55 10 54 hhcurveto
          60 18 -11 -54 hvcurveto
          -552 vlineto
          -38 4 -5 63 49 40 8 11 39 vhcurveto
          2 6 1 5 6 vvcurveto
          7 -1 6 -3 6 vhcurveto
          -63 -2 rlineto
          -6 -5 11 44 hvcurveto
          -379 684 rmoveto
          17 18 18 29 35 42 29 -53 48 hhcurveto
          hintmask 10101011
          59 47 53 19 2 hvcurveto
          2 16 -6 9 -9 7 -8 7 -5 -4 -9 -9 rrcurveto
          -15 -15 -20 -11 -22 -42 -30 50 -59 hhcurveto
          hintmask 10100111
          -53 -42 -49 -25 -10 hvcurveto
          -2 -5 -1 -8 1 -4 3 -9 7 -7 8 -8 5 -5 5 1 4 4 rrcurveto
          endchar
        </CharString>
        <CharString name="O">
          79 -13 53 621 53 hstem
          70 120 290 120 vstem
          70 122 rmoveto
          -106 43 -29 121 247 119 33 105 vhcurveto
          454 vlineto
          106 -43 29 -121 -247 -119 -33 -105 vhcurveto
          410 -446 rmoveto
          -59 -23 -31 -171 -74 -22 21 75 vhcurveto
          435 vlineto
          59 23 31 171 74 22 -21 -75 vhcurveto
          endchar
        </CharString>
        <CharString name="OE">
          368 -13 53 356 52 201 -20 32 53 -18 -20 hstemhm
          70 120 290 120 hintmask 11101110
          70 122 rmoveto
          -106 43 -29 121 115 86 8 17 61 vhcurveto
          -17 17 30 -8 45 hhcurveto
          44 hlineto
          102 109 0 28 96 hvcurveto
          2 8 2 8 8 vvcurveto
          8 -2 8 -2 10 vhcurveto
          -7 -26 -157 -18 -78 hhcurveto
          -60 -18 11 54 hvcurveto
          273 vlineto
          10 94 84 8 80 hhcurveto
          3 8 2 6 9 vvcurveto
          8 -2 13 -4 8 vhcurveto
          -86 -1 -89 -5 -82 -11 rrcurveto
          199 vlineto
          8 0 6 -1 5 vhcurveto
          hintmask 11110110
          8 61 75 5 88 hhcurveto
          31 22 0 -4 30 hvcurveto
          3 8 2 7 9 vvcurveto
          9 -2 9 -4 8 vhcurveto
          6 -61 -4 0 -60 hhcurveto
          -88 -70 -5 -13 -74 hvcurveto
          hintmask 11101110
          13 -26 -37 5 -49 hhcurveto
          hintmask 11110110
          -247 -119 -33 -105 hvcurveto
          410 -446 rmoveto
          -59 -23 -31 -171 -74 -22 21 75 vhcurveto
          435 vlineto
          59 23 31 171 74 22 -21 -75 vhcurveto
          endchar
        </CharString>
        <CharString name="Oacute">
          79 -13 53 621 53 hstem
          70 120 290 120 vstem
          70 122 rmoveto
          -106 43 -29 121 247 119 33 105 vhcurveto
          454 vlineto
          106 -43 29 -121 -247 -119 -33 -105 vhcurveto
          410 -446 rmoveto
          -59 -23 -31 -171 -74 -22 21 75 vhcurveto
          435 vlineto
          59 23 31 171 74 22 -21 -75 vhcurveto
          -57 353 rmoveto
          -41 -48 -41 -40 -42 -39 -5 -4 0 -3 1 -3 5 -12 5 -9 10 -6 5 -4 6 2 6 1 51 22 53 30 47 34 11 9 2 6 -1 4 -5 25 -21 28 -24 14 -3 1 -8 3 -11 -11 rrcurveto
          endchar
        </CharString>
        <CharString name="Ocircumflex">
          79 -13 53 621 53 hstem
          70 120 290 120 vstem
          70 122 rmoveto
          -106 43 -29 121 247 119 33 105 vhcurveto
          454 vlineto
          106 -43 29 -121 -247 -119 -33 -105 vhcurveto
          410 -446 rmoveto
          -59 -23 -31 -171 -74 -22 21 75 vhcurveto
          435 vlineto
          59 23 31 171 74 22 -21 -75 vhcurveto
          -146 359 rmoveto
          -7 -20 -2 -6 -7 hvcurveto
          -121 -131 -4 -4 5 -6 3 -4 rlinecurve
          -6 5 22 -12 8 hhcurveto
          8 4 4 85 102 hvcurveto
          -85 108 3 -2 7 hhcurveto
          8 27 12 6 5 hvcurveto
          3 4 0 6 -4 4 -38 43 -37 40 -46 46 rrcurveto
          7 -7 -20 1 -7 hhcurveto
          endchar
        </CharString>
        <CharString name="Odieresis">
          79 -13 53 621 53 61 109 hstemhm
          70 120 4 105 72 105 4 120 hintmask 11110010
          70 122 rmoveto
          -106 43 -29 121 247 119 33 105 vhcurveto
          454 vlineto
          106 -43 29 -121 -247 -119 -33 -105 vhcurveto
          410 -446 rmoveto
          -59 -23 -31 -171 -74 -22 21 75 vhcurveto
          435 vlineto
          59 23 31 171 74 22 -21 -75 vhcurveto
          hintmask 11101100
          -286 240 rmoveto
          -21 2 -9 12 vhcurveto
          72 4 rlineto
          17 2 2 7 18 vvcurveto
          48 vlineto
          22 -2 8 -15 vhcurveto
          -70 -4 rlineto
          -17 -2 -1 -7 -18 vvcurveto
          177 -48 rmoveto
          -21 2 -9 12 vhcurveto
          73 4 rlineto
          16 2 2 7 18 vvcurveto
          48 vlineto
          22 -2 8 -14 vhcurveto
          -70 -4 rlineto
          -18 -2 -1 -7 -18 vvcurveto
          endchar
        </CharString>
        <CharString name="Ograve">
          79 -13 53 621 53 hstem
          70 120 290 120 vstem
          70 122 rmoveto
          -106 43 -29 121 247 119 33 105 vhcurveto
          454 vlineto
          106 -43 29 -121 -247 -119 -33 -105 vhcurveto
          410 -446 rmoveto
          -59 -23 -31 -171 -74 -22 21 75 vhcurveto
          435 vlineto
          59 23 31 171 74 22 -21 -75 vhcurveto
          -233 352 rmoveto
          -11 11 -8 -3 -3 -1 -24 -14 -21 -28 -5 -25 -1 -4 2 -6 11 -9 47 -34 53 -30 51 -22 6 -1 6 -2 5 4 10 6 5 9 5 12 1 3 0 3 -5 4 -42 39 -41 40 -41 48 rrcurveto
          endchar
        </CharString>
        <CharString name="Oslash">
          79 -13 53 528 -20 113 53 hstem
          70 120 290 120 vstem
          70 122 rmoveto
          -19 1 -17 3 -14 vhcurveto
          -52 -63 rlineto
          -16 9 18 -8 26 hhcurveto
          27 33 rlineto
          -23 26 42 -8 64 hhcurveto
          247 119 33 105 hvcurveto
          454 vlineto
          20 -2 18 -3 15 vhcurveto
          47 57 rlineto
          16 -14 -17 8 -22 hhcurveto
          -24 -29 rlineto
          22 -25 -42 8 -62 hhcurveto
          -247 -119 -33 -105 hvcurveto
          120 -5 rmoveto
          59 23 31 171 73 22 -21 -72 1 vhcurveto
          -290 -349 rlineto
          290 -89 rmoveto
          -59 -23 -31 -171 -73 -22 20 71 -1 vhcurveto
          290 351 rlineto
          endchar
        </CharString>
        <CharString name="Otilde">
          79 -13 53 621 53 58 72 -19 69 hstemhm
          70 120 290 120 hintmask 11011100
          70 122 rmoveto
          -106 43 -29 121 247 119 33 105 vhcurveto
          454 vlineto
          106 -43 29 -121 -247 -119 -33 -105 vhcurveto
          410 -446 rmoveto
          -59 -23 -31 -171 -74 -22 21 75 vhcurveto
          435 vlineto
          59 23 31 171 74 22 -21 -75 vhcurveto
          -278 214 rmoveto
          17 18 18 29 35 42 29 -53 48 hhcurveto
          hintmask 11101100
          59 47 53 19 2 hvcurveto
          2 16 -6 9 -9 7 -8 7 -5 -4 -9 -9 rrcurveto
          -15 -15 -20 -11 -22 -42 -30 50 -59 hhcurveto
          hintmask 11011100
          -53 -42 -49 -25 -10 hvcurveto
          -2 -5 -1 -8 1 -4 3 -9 7 -7 8 -8 5 -5 5 1 4 4 rrcurveto
          endchar
        </CharString>
        <CharString name="P">
          -17 -13 53 266 47 307 53 hstem
          85 120 219 120 vstem
          187 595 rmoveto
          -31 -30 -4 -8 -24 hvcurveto
          -14 -5 -3 -8 -8 vvcurveto
          -532 vlineto
          -38 4 -5 63 49 40 8 11 39 vhcurveto
          2 6 1 5 6 vvcurveto
          7 -1 6 -3 6 vhcurveto
          -63 -2 rlineto
          -6 -5 11 44 hvcurveto
          211 vlineto
          82 3 82 8 82 13 rrcurveto
          62 14 31 29 62 vvcurveto
          143 vlineto
          106 -43 29 -121 -131 -92 -11 -36 -125 vhcurveto
          -3 -8 -1 -7 -9 vvcurveto
          -9 1 -9 5 -8 vhcurveto
          12 36 120 32 138 hhcurveto
          74 22 -21 -75 hvcurveto
          -125 vlineto
          -50 -17 -8 -54 -11 vhcurveto
          -44 -9 -56 -5 -48 -3 rrcurveto
          224 vlineto
          11 -6 7 -12 vhcurveto
          endchar
        </CharString>
        <CharString name="Q">
          83 -13 66 608 53 hstem
          71 120 290 120 vstem
          601 579 rmoveto
          106 -43 29 -121 -247 -119 -33 -105 vhcurveto
          -513 vlineto
          -54 34 -22 74 94 111 17 32 97 vhcurveto
          -246 vlineto
          -11 6 -7 12 31 30 4 8 24 vhcurveto
          14 5 3 8 8 vvcurveto
          -410 766 rmoveto
          59 23 31 171 74 22 -21 -75 vhcurveto
          -479 vlineto
          -23 -93 -59 -10 -60 hhcurveto
          -60 -18 11 54 hvcurveto
          endchar
        </CharString>
        <CharString name="R">
          69 -13 53 302 47 271 53 hstem
          86 120 250 120 vstem
          33 616 rmoveto
          12 36 153 32 138 hhcurveto
          74 22 -21 -75 hvcurveto
          -88 vlineto
          -50 -17 -8 -54 -11 vhcurveto
          -54 -11 -71 -5 -54 -2 rrcurveto
          188 vlineto
          11 -6 7 -12 -31 -30 -4 -8 -24 vhcurveto
          -14 -5 -3 -8 -8 vvcurveto
          -532 vlineto
          -38 4 -5 63 49 40 8 11 39 vhcurveto
          2 6 1 5 6 vvcurveto
          7 -1 6 -3 6 vhcurveto
          -63 -2 rlineto
          -6 -5 11 44 hvcurveto
          247 vlineto
          39 39 3 3 39 hvcurveto
          143 -318 rlineto
          -38 17 1 -5 59 hhcurveto
          49 46 8 11 39 hvcurveto
          2 5 1 6 5 vvcurveto
          7 -2 6 -2 7 vhcurveto
          -69 -2 rlineto
          -16 -7 21 34 -16 hvcurveto
          -120 267 12 1 11 2 12 2 rlinecurve
          62 14 31 29 62 vvcurveto
          106 vlineto
          106 -43 29 -121 -131 -125 -11 -36 -125 vhcurveto
          -3 -8 -1 -7 -9 vvcurveto
          -9 1 -9 5 -8 vhcurveto
          endchar
        </CharString>
        <CharString name="S">
          -104 -16 54 624 44 -44 52 hstemhm
          41 124 165 130 hintmask 11011000
          29 48 rmoveto
          -7 -20 2 -20 6 -15 rrcurveto
          -3 43 70 -6 71 hhcurveto
          120 123 19 94 3 hvcurveto
          -1 61 -70 93 -34 49 -141 206 rcurveline
          -10 16 -39 55 33 vvcurveto
          32 31 20 108 55 51 -8 -4 17 vhcurveto
          hintmask 10111000
          7 16 1 24 -5 16 rrcurveto
          4 -37 -48 4 -47 hhcurveto
          -99 -158 -9 -95 -50 20 -31 14 -23 hvcurveto
          208 -310 rlineto
          26 -40 21 -38 -23 vvcurveto
          -46 -30 -11 -131 vhcurveto
          hintmask 11011000
          -55 -70 8 2 -15 hvcurveto
          endchar
        </CharString>
        <CharString name="T">
          -51 -13 53 619 47 hstem
          205 120 vstem
          516 706 rmoveto
          6 -61 -60 2 -60 hhcurveto
          -122 -112 -11 -27 -101 hvcurveto
          -6 -18 1 -20 7 -16 54 13 70 10 79 6 rrcurveto
          -621 vlineto
          -38 4 -5 63 49 40 8 11 39 vhcurveto
          2 6 1 5 6 vvcurveto
          7 -1 6 -3 6 vhcurveto
          -63 -2 rlineto
          -6 -5 11 44 hvcurveto
          564 vlineto
          95 1 56 -4 42 -5 rrcurveto
          3 9 1 10 7 vvcurveto
          10 -1 11 -5 8 vhcurveto
          endchar
        </CharString>
        <CharString name="Thorn">
          0 -13 53 116 47 307 53 97 34 -34 53 hstemhm
          91 120 219 120 hintmask 11110110
          550 428 rmoveto
          106 -43 29 -121 -60 -58 -3 -5 -57 vhcurveto
          hintmask 11101110
          115 vlineto
          38 -4 5 -63 vhcurveto
          hintmask 11110110
          -49 -40 -8 -11 -39 hvcurveto
          -2 -6 -1 -5 -6 vvcurveto
          -7 1 -6 3 -6 vhcurveto
          63 2 rlineto
          6 5 -11 -44 hvcurveto
          -575 vlineto
          -38 4 -5 63 49 40 8 11 39 vhcurveto
          2 6 1 5 6 vvcurveto
          7 -1 6 -3 6 vhcurveto
          -63 -2 rlineto
          -6 -5 11 44 hvcurveto
          61 vlineto
          82 3 82 8 82 13 rrcurveto
          62 14 31 29 62 vvcurveto
          -339 217 rmoveto
          5 40 42 3 41 hhcurveto
          74 22 -21 -75 hvcurveto
          -125 vlineto
          -50 -17 -9 -54 -11 vhcurveto
          -44 -9 -56 -4 -48 -3 rrcurveto
          endchar
        </CharString>
        <CharString name="U">
          104 -13 53 -53 66 607 34 -34 53 hstemhm
          91 120 272 120 hintmask 01101100
          585 713 rmoveto
          -31 -30 -4 -8 -24 hvcurveto
          -14 -5 -3 -8 -8 vvcurveto
          -594 vlineto
          -23 -85 -55 -10 -54 hhcurveto
          -60 -18 11 54 hvcurveto
          hintmask 01011100
          552 vlineto
          38 -4 5 -63 vhcurveto
          hintmask 01101100
          -49 -40 -8 -11 -39 hvcurveto
          -2 -6 -1 -5 -6 vvcurveto
          -7 1 -6 3 -6 vhcurveto
          63 2 rlineto
          6 5 -11 -44 hvcurveto
          -542 vlineto
          -54 34 -22 74 88 105 17 32 91 vhcurveto
          -6 vlineto
          -38 4 -5 63 49 40 8 11 39 vhcurveto
          hintmask 10101100
          2 6 1 5 6 vvcurveto
          7 -1 6 -3 6 vhcurveto
          -63 -2 rlineto
          -6 -5 11 44 hvcurveto
          600 vlineto
          hintmask 01101100
          11 -6 7 -12 vhcurveto
          endchar
        </CharString>
        <CharString name="Uacute">
          104 -13 53 -53 66 607 34 -34 53 hstemhm
          91 120 272 120 hintmask 01101100
          585 713 rmoveto
          -31 -30 -4 -8 -24 hvcurveto
          -14 -5 -3 -8 -8 vvcurveto
          -594 vlineto
          -23 -85 -55 -10 -54 hhcurveto
          -60 -18 11 54 hvcurveto
          hintmask 01011100
          552 vlineto
          38 -4 5 -63 vhcurveto
          hintmask 01101100
          -49 -40 -8 -11 -39 hvcurveto
          -2 -6 -1 -5 -6 vvcurveto
          -7 1 -6 3 -6 vhcurveto
          63 2 rlineto
          6 5 -11 -44 hvcurveto
          -542 vlineto
          -54 34 -22 74 88 105 17 32 91 vhcurveto
          -6 vlineto
          -38 4 -5 63 49 40 8 11 39 vhcurveto
          hintmask 10101100
          2 6 1 5 6 vvcurveto
          7 -1 6 -3 6 vhcurveto
          -63 -2 rlineto
          -6 -5 11 44 hvcurveto
          600 vlineto
          hintmask 01101100
          11 -6 7 -12 vhcurveto
          -170 205 rmoveto
          -41 -48 -41 -40 -42 -39 -5 -4 0 -3 1 -3 5 -12 5 -9 10 -6 5 -4 6 2 6 1 51 22 53 30 47 34 11 9 2 6 -1 4 -5 25 -21 28 -24 14 -3 1 -8 3 -11 -11 rrcurveto
          endchar
        </CharString>
        <CharString name="Ucircumflex">
          104 -13 53 -53 66 607 34 -34 53 hstemhm
          91 120 272 120 hintmask 01101100
          585 713 rmoveto
          -31 -30 -4 -8 -24 hvcurveto
          -14 -5 -3 -8 -8 vvcurveto
          -594 vlineto
          -23 -85 -55 -10 -54 hhcurveto
          -60 -18 11 54 hvcurveto
          hintmask 01011100
          552 vlineto
          38 -4 5 -63 vhcurveto
          hintmask 01101100
          -49 -40 -8 -11 -39 hvcurveto
          -2 -6 -1 -5 -6 vvcurveto
          -7 1 -6 3 -6 vhcurveto
          63 2 rlineto
          6 5 -11 -44 hvcurveto
          -542 vlineto
          -54 34 -22 74 88 105 17 32 91 vhcurveto
          -6 vlineto
          -38 4 -5 63 49 40 8 11 39 vhcurveto
          hintmask 10101100
          2 6 1 5 6 vvcurveto
          7 -1 6 -3 6 vhcurveto
          -63 -2 rlineto
          -6 -5 11 44 hvcurveto
          600 vlineto
          hintmask 01101100
          11 -6 7 -12 vhcurveto
          -239 211 rmoveto
          -7 -20 -2 -6 -7 hvcurveto
          -121 -131 -4 -4 5 -6 3 -4 rlinecurve
          -6 5 22 -12 8 hhcurveto
          8 4 4 85 102 hvcurveto
          -85 108 3 -2 7 hhcurveto
          8 27 12 6 5 hvcurveto
          3 4 0 6 -4 4 -38 43 -37 40 -46 46 rrcurveto
          7 -7 -20 1 -7 hhcurveto
          endchar
        </CharString>
        <CharString name="Udieresis">
          104 -13 53 -53 66 607 34 -34 53 62 109 hstemhm
          91 120 -4 105 72 105 -6 120 hintmask 0110110010000000
          585 713 rmoveto
          -31 -30 -4 -8 -24 hvcurveto
          -14 -5 -3 -8 -8 vvcurveto
          -594 vlineto
          -23 -85 -55 -10 -54 hhcurveto
          -60 -18 11 54 hvcurveto
          hintmask 0101110010000000
          552 vlineto
          38 -4 5 -63 vhcurveto
          hintmask 0110110010000000
          -49 -40 -8 -11 -39 hvcurveto
          -2 -6 -1 -5 -6 vvcurveto
          -7 1 -6 3 -6 vhcurveto
          63 2 rlineto
          6 5 -11 -44 hvcurveto
          -542 vlineto
          -54 34 -22 74 88 105 17 32 91 vhcurveto
          -6 vlineto
          -38 4 -5 63 49 40 8 11 39 vhcurveto
          hintmask 1010110010000000
          2 6 1 5 6 vvcurveto
          7 -1 6 -3 6 vhcurveto
          -63 -2 rlineto
          -6 -5 11 44 hvcurveto
          600 vlineto
          hintmask 0110110010000000
          11 -6 7 -12 vhcurveto
          hintmask 0110101100000000
          -378 92 rmoveto
          -21 2 -9 12 vhcurveto
          72 4 rlineto
          17 2 2 7 18 vvcurveto
          48 vlineto
          22 -2 8 -15 vhcurveto
          -70 -4 rlineto
          -17 -2 -1 -7 -18 vvcurveto
          177 -48 rmoveto
          -21 2 -9 12 vhcurveto
          73 4 rlineto
          16 2 2 7 18 vvcurveto
          48 vlineto
          22 -2 8 -14 vhcurveto
          -70 -4 rlineto
          -18 -2 -1 -7 -18 vvcurveto
          endchar
        </CharString>
        <CharString name="Ugrave">
          104 -13 53 -53 66 607 34 -34 53 hstemhm
          91 120 272 120 hintmask 01101100
          585 713 rmoveto
          -31 -30 -4 -8 -24 hvcurveto
          -14 -5 -3 -8 -8 vvcurveto
          -594 vlineto
          -23 -85 -55 -10 -54 hhcurveto
          -60 -18 11 54 hvcurveto
          hintmask 01011100
          552 vlineto
          38 -4 5 -63 vhcurveto
          hintmask 01101100
          -49 -40 -8 -11 -39 hvcurveto
          -2 -6 -1 -5 -6 vvcurveto
          -7 1 -6 3 -6 vhcurveto
          63 2 rlineto
          6 5 -11 -44 hvcurveto
          -542 vlineto
          -54 34 -22 74 88 105 17 32 91 vhcurveto
          -6 vlineto
          -38 4 -5 63 49 40 8 11 39 vhcurveto
          hintmask 10101100
          2 6 1 5 6 vvcurveto
          7 -1 6 -3 6 vhcurveto
          -63 -2 rlineto
          -6 -5 11 44 hvcurveto
          600 vlineto
          hintmask 01101100
          11 -6 7 -12 vhcurveto
          -316 204 rmoveto
          -11 11 -8 -3 -3 -1 -24 -14 -21 -28 -5 -25 -1 -4 2 -6 11 -9 47 -34 53 -30 51 -22 6 -1 6 -2 5 4 10 6 5 9 5 12 1 3 0 3 -5 4 -42 39 -41 40 -41 48 rrcurveto
          endchar
        </CharString>
        <CharString name="V">
          83 -13 53 620 34 -34 53 hstemhm
          91 120 272 120 hintmask 11011000
          483 130 rmoveto
          -72 -41 -18 -153 -60 -18 11 54 vhcurveto
          hintmask 10111000
          565 vlineto
          38 -4 5 -63 -49 -40 -8 -11 -39 vhcurveto
          hintmask 11011000
          -2 -6 -1 -5 -6 vvcurveto
          -7 1 -6 3 -6 vhcurveto
          63 2 rlineto
          6 5 -11 -44 hvcurveto
          -562 vlineto
          -54 34 -2 74 234 170 8 130 vhcurveto
          hintmask 10111000
          545 vlineto
          38 -4 5 -63 -49 -40 -8 -11 -39 vhcurveto
          hintmask 11011000
          -2 -6 -1 -5 -6 vvcurveto
          -7 1 -6 3 -6 vhcurveto
          63 2 rlineto
          6 5 -11 -44 hvcurveto
          endchar
        </CharString>
        <CharString name="V.001">
          83 -13 53 609 64 -53 34 -34 53 hstemhm
          91 120 272 120 hintmask 10101100
          hintmask 11001100
          243 616 rmoveto
          23 73 44 10 45 hhcurveto
          60 18 -11 -54 hvcurveto
          -454 vlineto
          -72 -41 -18 -153 -60 -18 11 54 vhcurveto
          hintmask 10011100
          565 vlineto
          38 -4 5 -63 vhcurveto
          hintmask 10101100
          -49 -40 -8 -11 -39 hvcurveto
          -2 -6 -1 -5 -6 vvcurveto
          -7 1 -6 3 -6 vhcurveto
          63 2 rlineto
          6 5 -11 -44 hvcurveto
          -562 vlineto
          -54 34 -2 74 234 170 8 130 vhcurveto
          hintmask 11001100
          512 vlineto
          54 -34 22 -74 -79 -93 -17 -32 -82 vhcurveto
          -3 -8 -1 -8 -8 vvcurveto
          -9 2 -7 4 -8 vhcurveto
          endchar
        </CharString>
        <CharString name="W">
          365 -13 53 -52 59 613 34 -34 53 hstemhm
          90 120 210 120 224 120 hintmask 10101110
          764 130 rmoveto
          -72 -20 -18 -126 -60 -18 11 54 vhcurveto
          hintmask 10011110
          565 vlineto
          38 -4 5 -63 -49 -40 -8 -11 -39 vhcurveto
          hintmask 01101110
          -2 -6 -1 -5 -6 vvcurveto
          -7 1 -6 3 -6 vhcurveto
          63 2 rlineto
          6 5 -11 -44 hvcurveto
          -520 vlineto
          -7 vlineto
          -18 -39 -48 -13 -66 hhcurveto
          -46 -11 22 55 hvcurveto
          hintmask 10011110
          546 vlineto
          38 -4 5 -63 -49 -40 -8 -11 -39 vhcurveto
          hintmask 01101110
          -2 -6 -1 -5 -6 vvcurveto
          -7 1 -6 3 -6 vhcurveto
          63 2 rlineto
          6 5 -11 -44 hvcurveto
          -508 vlineto
          -86 33 -23 111 74 74 19 24 52 vhcurveto
          hintmask 10011110
          -31 21 41 -13 51 hhcurveto
          208 129 16 122 hvcurveto
          545 vlineto
          38 -4 5 -63 -49 -40 -8 -11 -39 vhcurveto
          hintmask 10101110
          -2 -6 -1 -5 -6 vvcurveto
          -7 1 -6 3 -6 vhcurveto
          63 2 rlineto
          6 5 -11 -44 hvcurveto
          endchar
        </CharString>
        <CharString name="W.001">
          365 -13 53 607 66 -53 34 -34 53 hstemhm
          91 120 195 120 239 120 hintmask 10101110
          hintmask 11001110
          555 616 rmoveto
          24 66 48 7 27 hhcurveto
          60 9 -11 -54 hvcurveto
          -452 vlineto
          -72 -35 -18 -126 -60 -18 11 54 vhcurveto
          532 vlineto
          54 -34 22 -74 -73 -58 -15 -32 -76 vhcurveto
          4 vlineto
          hintmask 10011110
          38 -4 5 -63 vhcurveto
          hintmask 10101110
          -49 -40 -8 -11 -39 hvcurveto
          -2 -6 -1 -5 -6 vvcurveto
          -7 1 -6 3 -6 vhcurveto
          63 2 rlineto
          6 5 -11 -44 hvcurveto
          -575 vlineto
          -38 4 -5 63 49 40 8 11 39 vhcurveto
          2 6 1 5 6 vvcurveto
          7 -1 6 -3 6 vhcurveto
          -63 -2 rlineto
          -6 -5 11 44 hvcurveto
          hintmask 11001110
          521 vlineto
          23 56 42 8 25 hhcurveto
          60 12 -11 -54 hvcurveto
          -519 vlineto
          -54 34 -22 74 212 159 8 130 vhcurveto
          512 vlineto
          54 -34 22 -74 -70 -81 -17 -32 -73 vhcurveto
          -6 -19 1 -15 7 -14 rrcurveto
          endchar
        </CharString>
        <CharString name="X">
          18 -13 53 -26 -21 667 34 -34 53 -8 -20 hstemhm
          -8 627 hintmask 10001100
          hintmask 10010100
          214 670 rmoveto
          38 -20 -6 5 -59 hhcurveto
          hintmask 01100100
          -49 -46 -8 -11 -39 hvcurveto
          -2 -5 -1 -6 -5 vvcurveto
          -7 2 -6 2 -7 vhcurveto
          69 2 rlineto
          16 15 -21 -34 16 hvcurveto
          128 -261 -201 -351 rlineto
          hintmask 10001100
          -7 11 12 -1 12 hhcurveto
          12 12 3 4 11 hvcurveto
          164 285 122 -247 rlineto
          -38 18 6 -5 63 hhcurveto
          49 46 8 11 39 hvcurveto
          2 5 1 6 5 vvcurveto
          7 -2 6 -2 7 vhcurveto
          -69 -2 rlineto
          -17 -13 21 34 -19 hvcurveto
          -132 268 196 342 rlineto
          7 -11 -12 1 -12 hhcurveto
          -12 -12 -3 -4 -11 hvcurveto
          -159 -276 rlineto
          endchar
        </CharString>
        <CharString name="Y">
          86 -240 51 176 66 607 34 -34 53 hstemhm
          91 120 272 120 hintmask 11101100
          121 -183 rmoveto
          -5 -15 -1 -24 8 -13 rrcurveto
          -4 37 41 -1 40 hhcurveto
          94 94 10 14 64 hvcurveto
          75 16 35 40 58 vvcurveto
          797 vlineto
          11 -6 7 -12 -31 -30 -4 -8 -24 vhcurveto
          -14 -5 -3 -8 -8 vvcurveto
          -594 vlineto
          -23 -85 -55 -10 -54 hhcurveto
          -60 -18 11 54 hvcurveto
          hintmask 11011100
          552 vlineto
          38 -4 5 -63 vhcurveto
          hintmask 11101100
          -49 -40 -8 -11 -39 hvcurveto
          -2 -6 -1 -5 -6 vvcurveto
          -7 1 -6 3 -6 vhcurveto
          63 2 rlineto
          6 5 -11 -44 hvcurveto
          -542 vlineto
          -54 34 -22 74 88 105 17 32 91 vhcurveto
          -133 vlineto
          -33 -8 -28 -42 -9 vhcurveto
          -15 -70 -65 -7 -65 hhcurveto
          -37 -37 2 4 -38 hvcurveto
          endchar
        </CharString>
        <CharString name="Yacute">
          86 -240 51 176 66 607 34 -34 53 hstemhm
          91 120 272 120 hintmask 11101100
          121 -183 rmoveto
          -5 -15 -1 -24 8 -13 rrcurveto
          -4 37 41 -1 40 hhcurveto
          94 94 10 14 64 hvcurveto
          75 16 35 40 58 vvcurveto
          797 vlineto
          11 -6 7 -12 -31 -30 -4 -8 -24 vhcurveto
          -14 -5 -3 -8 -8 vvcurveto
          -594 vlineto
          -23 -85 -55 -10 -54 hhcurveto
          -60 -18 11 54 hvcurveto
          hintmask 11011100
          552 vlineto
          38 -4 5 -63 vhcurveto
          hintmask 11101100
          -49 -40 -8 -11 -39 hvcurveto
          -2 -6 -1 -5 -6 vvcurveto
          -7 1 -6 3 -6 vhcurveto
          63 2 rlineto
          6 5 -11 -44 hvcurveto
          -542 vlineto
          -54 34 -22 74 88 105 17 32 91 vhcurveto
          -133 vlineto
          -33 -8 -28 -42 -9 vhcurveto
          -15 -70 -65 -7 -65 hhcurveto
          -37 -37 2 4 -38 hvcurveto
          285 1101 rmoveto
          -41 -48 -41 -40 -42 -39 -5 -4 0 -3 1 -3 5 -12 5 -9 10 -6 5 -4 6 2 6 1 51 22 53 30 47 34 11 9 2 6 -1 4 -5 25 -21 28 -24 14 -3 1 -8 3 -11 -11 rrcurveto
          endchar
        </CharString>
        <CharString name="Z">
          -21 -12 56 -28 -21 663 56 hstemhm
          25 520 hintmask 10110000
          539 87 rmoveto
          -27 -92 -136 -16 -126 hhcurveto
          -8 hlineto
          338 599 rlineto
          4 7 2 8 7 vvcurveto
          10 0 9 -5 10 vhcurveto
          13 -64 -64 7 -64 hhcurveto
          -91 -91 -14 -32 -85 hvcurveto
          -6 -20 3 -16 7 -15 rrcurveto
          29 103 64 12 81 hhcurveto
          23 24 -1 -2 27 hvcurveto
          hintmask 01110000
          -353 -608 rlineto
          -3 -7 -2 -8 -7 vvcurveto
          -10 3 -10 3 -10 vhcurveto
          hintmask 10110000
          -6 61 61 -1 60 hhcurveto
          122 105 18 27 101 hvcurveto
          6 18 -1 20 -7 16 rrcurveto
          endchar
        </CharString>
        <CharString name="a">
          -45 -13 53 -53 56 236 45 140 50 hstemhm
          46 114 185 114 hintmask 10111100
          540 6 rmoveto
          2 6 1 5 6 vvcurveto
          7 -1 6 -3 6 vhcurveto
          -69 -2 rlineto
          -6 -5 11 44 hvcurveto
          346 vlineto
          52 -32 21 -71 -102 -94 -10 -30 -98 vhcurveto
          -3 -6 -1 -8 -6 vvcurveto
          -9 0 -7 5 -9 vhcurveto
          7 21 119 28 68 hhcurveto
          57 17 -11 -51 hvcurveto
          -78 vlineto
          -71 -3 -69 -8 -71 -11 rrcurveto
          -59 -13 -29 -28 -58 vvcurveto
          -140 vlineto
          -54 27 -22 74 64 61 12 21 73 vhcurveto
          -29 1 7 -4 52 hhcurveto
          49 47 8 11 39 hvcurveto
          hintmask 01111100
          -195 59 rmoveto
          -11 -39 -47 -11 -36 hhcurveto
          -37 -26 11 34 hvcurveto
          111 vlineto
          47 16 8 51 11 vhcurveto
          35 7 43 5 40 2 rrcurveto
          endchar
        </CharString>
        <CharString name="aacute">
          -45 -13 53 -53 56 236 45 140 50 hstemhm
          46 114 185 114 hintmask 10111100
          540 6 rmoveto
          2 6 1 5 6 vvcurveto
          7 -1 6 -3 6 vhcurveto
          -69 -2 rlineto
          -6 -5 11 44 hvcurveto
          346 vlineto
          52 -32 21 -71 -102 -94 -10 -30 -98 vhcurveto
          -3 -6 -1 -8 -6 vvcurveto
          -9 0 -7 5 -9 vhcurveto
          7 21 119 28 68 hhcurveto
          57 17 -11 -51 hvcurveto
          -78 vlineto
          -71 -3 -69 -8 -71 -11 rrcurveto
          -59 -13 -29 -28 -58 vvcurveto
          -140 vlineto
          -54 27 -22 74 64 61 12 21 73 vhcurveto
          -29 1 7 -4 52 hhcurveto
          49 47 8 11 39 hvcurveto
          hintmask 01111100
          -195 59 rmoveto
          -11 -39 -47 -11 -36 hhcurveto
          -37 -26 11 34 hvcurveto
          111 vlineto
          47 16 8 51 11 vhcurveto
          35 7 43 5 40 2 rrcurveto
          -14 449 rmoveto
          -41 -48 -41 -40 -42 -39 -5 -4 0 -3 1 -3 5 -12 5 -9 10 -6 5 -4 6 2 6 1 51 22 53 30 47 34 11 9 2 6 -1 4 -5 25 -21 28 -24 14 -3 1 -8 3 -11 -11 rrcurveto
          endchar
        </CharString>
        <CharString name="acircumflex">
          -45 -13 53 -53 56 236 45 140 50 hstemhm
          46 114 185 114 hintmask 10111100
          540 6 rmoveto
          2 6 1 5 6 vvcurveto
          7 -1 6 -3 6 vhcurveto
          -69 -2 rlineto
          -6 -5 11 44 hvcurveto
          346 vlineto
          52 -32 21 -71 -102 -94 -10 -30 -98 vhcurveto
          -3 -6 -1 -8 -6 vvcurveto
          -9 0 -7 5 -9 vhcurveto
          7 21 119 28 68 hhcurveto
          57 17 -11 -51 hvcurveto
          -78 vlineto
          -71 -3 -69 -8 -71 -11 rrcurveto
          -59 -13 -29 -28 -58 vvcurveto
          -140 vlineto
          -54 27 -22 74 64 61 12 21 73 vhcurveto
          -29 1 7 -4 52 hhcurveto
          49 47 8 11 39 hvcurveto
          hintmask 01111100
          -195 59 rmoveto
          -11 -39 -47 -11 -36 hhcurveto
          -37 -26 11 34 hvcurveto
          111 vlineto
          47 16 8 51 11 vhcurveto
          35 7 43 5 40 2 rrcurveto
          -73 460 rmoveto
          -7 -20 -2 -6 -7 hvcurveto
          -121 -131 -4 -4 5 -6 3 -4 rlinecurve
          -6 5 22 -12 8 hhcurveto
          8 4 4 85 102 hvcurveto
          -85 108 3 -2 7 hhcurveto
          8 27 12 6 5 hvcurveto
          3 4 0 6 -4 4 -38 43 -37 40 -46 46 rrcurveto
          7 -7 -20 1 -7 hhcurveto
          endchar
        </CharString>
        <CharString name="acute">
          -313 562 174 hstem
          22 200 vstem
          150 728 rmoveto
          -41 -48 -41 -40 -42 -39 -5 -4 0 -3 1 -3 5 -12 5 -9 10 -6 5 -4 6 2 6 1 51 22 53 30 47 34 11 9 2 6 -1 4 -5 25 -21 28 -24 14 -3 1 -8 3 -11 -11 rrcurveto
          endchar
        </CharString>
        <CharString name="acute.case">
          -313 752 174 hstem
          22 200 vstem
          150 918 rmoveto
          -41 -48 -41 -40 -42 -39 -5 -4 0 -3 1 -3 5 -12 5 -9 10 -6 5 -4 6 2 6 1 51 22 53 30 47 34 11 9 2 6 -1 4 -5 25 -21 28 -24 14 -3 1 -8 3 -11 -11 rrcurveto
          endchar
        </CharString>
        <CharString name="adieresis">
          -45 -13 53 -53 56 236 45 140 50 86 105 hstemhm
          46 114 -28 105 72 105 -69 114 hintmask 1011110010000000
          540 6 rmoveto
          2 6 1 5 6 vvcurveto
          7 -1 6 -3 6 vhcurveto
          -69 -2 rlineto
          -6 -5 11 44 hvcurveto
          346 vlineto
          52 -32 21 -71 -102 -94 -10 -30 -98 vhcurveto
          -3 -6 -1 -8 -6 vvcurveto
          -9 0 -7 5 -9 vhcurveto
          7 21 119 28 68 hhcurveto
          57 17 -11 -51 hvcurveto
          -78 vlineto
          -71 -3 -69 -8 -71 -11 rrcurveto
          -59 -13 -29 -28 -58 vvcurveto
          -140 vlineto
          -54 27 -22 74 64 61 12 21 73 vhcurveto
          -29 1 7 -4 52 hhcurveto
          49 47 8 11 39 hvcurveto
          hintmask 0111110010000000
          -195 59 rmoveto
          -11 -39 -47 -11 -36 hhcurveto
          -37 -26 11 34 hvcurveto
          111 vlineto
          47 16 8 51 11 vhcurveto
          35 7 43 5 40 2 rrcurveto
          hintmask 1011101100000000
          -213 351 rmoveto
          -21 2 -9 12 vhcurveto
          72 4 rlineto
          17 2 2 7 18 vvcurveto
          48 vlineto
          22 -2 8 -15 vhcurveto
          -70 -4 rlineto
          -17 -2 -1 -7 -18 vvcurveto
          177 -48 rmoveto
          -21 2 -9 12 vhcurveto
          73 4 rlineto
          16 2 2 7 18 vvcurveto
          48 vlineto
          22 -2 8 -14 vhcurveto
          -70 -4 rlineto
          -18 -2 -1 -7 -18 vvcurveto
          endchar
        </CharString>
        <CharString name="ae">
          204 -13 50 -50 56 170 46 20 45 140 50 -42 42 hstemhm
          46 114 185 114 176 114 hintmask 1001011110000000
          741 67 rmoveto
          -6 -21 -119 -24 -68 hhcurveto
          -57 -17 11 51 hvcurveto
          hintmask 1011011110000000
          114 vlineto
          67 4 67 8 68 11 rrcurveto
          59 13 29 28 58 vvcurveto
          71 vlineto
          85 -33 23 -97 -79 -62 -5 -12 -45 vhcurveto
          11 -17 -25 6 -35 hhcurveto
          -102 -94 -10 -30 -98 hvcurveto
          hintmask 1001101110000000
          -3 -6 -1 -8 -6 vvcurveto
          -9 0 -7 5 -9 vhcurveto
          7 21 119 28 68 hhcurveto
          57 17 -11 -51 hvcurveto
          -78 vlineto
          -71 -3 -69 -8 -71 -11 rrcurveto
          -59 -13 -29 -28 -58 vvcurveto
          -140 vlineto
          -54 27 -22 74 64 61 12 23 81 vhcurveto
          -24 13 31 -11 51 hhcurveto
          102 94 9 26 98 hvcurveto
          3 6 1 8 6 vvcurveto
          hintmask 1001011110000000
          9 0 7 -5 9 vhcurveto
          hintmask 0101011110000000
          -396 -2 rmoveto
          -11 -39 -47 -11 -36 hhcurveto
          -37 -26 11 34 hvcurveto
          111 vlineto
          47 16 8 51 11 vhcurveto
          35 7 43 5 40 2 rrcurveto
          114 120 rmoveto
          48 13 25 105 42 16 -16 -57 vhcurveto
          hintmask 1011011110000000
          -61 vlineto
          -46 -17 -8 -50 -11 vhcurveto
          -32 -7 -40 -4 -37 -3 rrcurveto
          endchar
        </CharString>
        <CharString name="agrave">
          -45 -13 53 -53 56 236 45 140 50 hstemhm
          46 114 185 114 hintmask 10111100
          540 6 rmoveto
          2 6 1 5 6 vvcurveto
          7 -1 6 -3 6 vhcurveto
          -69 -2 rlineto
          -6 -5 11 44 hvcurveto
          346 vlineto
          52 -32 21 -71 -102 -94 -10 -30 -98 vhcurveto
          -3 -6 -1 -8 -6 vvcurveto
          -9 0 -7 5 -9 vhcurveto
          7 21 119 28 68 hhcurveto
          57 17 -11 -51 hvcurveto
          -78 vlineto
          -71 -3 -69 -8 -71 -11 rrcurveto
          -59 -13 -29 -28 -58 vvcurveto
          -140 vlineto
          -54 27 -22 74 64 61 12 21 73 vhcurveto
          -29 1 7 -4 52 hhcurveto
          49 47 8 11 39 hvcurveto
          hintmask 01111100
          -195 59 rmoveto
          -11 -39 -47 -11 -36 hhcurveto
          -37 -26 11 34 hvcurveto
          111 vlineto
          47 16 8 51 11 vhcurveto
          35 7 43 5 40 2 rrcurveto
          -140 449 rmoveto
          -11 11 -8 -3 -3 -1 -24 -14 -21 -28 -5 -25 -1 -4 2 -6 11 -9 47 -34 53 -30 51 -22 6 -1 6 -2 5 4 10 6 5 9 5 12 1 3 0 3 -5 4 -42 39 -41 40 -41 48 rrcurveto
          endchar
        </CharString>
        <CharString name="ampersand">
          87 -15 85 -83 54 589 78 hstemhm
          4 107 1 96 156 89 hintmask 01110100
          410 30 rmoveto
          -38 24 11 -5 43 hhcurveto
          49 46 8 11 39 hvcurveto
          5 12 0 12 -6 12 -69 -2 rcurveline
          -16 -1 -19 16 -35 53 -20 30 rcurveline
          164 121 -1 17 -10 13 -20 6 rlinecurve
          -163 -111 -138 213 115 87 rlineto
          28 21 16 22 29 vvcurveto
          23 -10 28 -21 35 vhcurveto
          45 -27 -25 21 -32 hhcurveto
          -22 -26 -11 -19 -33 hvcurveto
          hintmask 01101100
          -93 -55 -52 -48 -55 vvcurveto
          -17 5 -18 11 -19 vhcurveto
          51 -80 rlineto
          hintmask 01110100
          -119 -81 -56 -52 -56 vvcurveto
          -19 7 -20 12 -21 vhcurveto
          49 -85 rlineto
          -46 27 38 -21 44 hhcurveto
          37 42 15 29 43 hvcurveto
          75 51 rlineto
          hintmask 10110100
          -62 21 rmoveto
          -21 -31 -25 -10 -21 hhcurveto
          -29 -22 19 37 -22 hvcurveto
          -39 67 rlineto
          -10 17 -6 15 14 vvcurveto
          31 28 28 69 45 vhcurveto
          142 -219 rlineto
          hintmask 01101100
          -108 479 rmoveto
          18 27 19 9 15 hhcurveto
          19 12 -15 -32 19 hvcurveto
          8 -13 3 -12 -11 vvcurveto
          -27 -20 -22 -32 -22 vhcurveto
          -47 -32 -45 71 rlineto
          -8 14 -4 13 11 vvcurveto
          20 13 16 21 14 vhcurveto
          endchar
        </CharString>
        <CharString name="aring">
          -45 -13 53 -53 56 236 45 140 50 37 48 92 48 hstemhm
          46 114 9 58 111 59 -52 114 hintmask 1011111001000000
          540 6 rmoveto
          2 6 1 5 6 vvcurveto
          7 -1 6 -3 6 vhcurveto
          -69 -2 rlineto
          -6 -5 11 44 hvcurveto
          346 vlineto
          52 -32 21 -71 -102 -94 -10 -30 -98 vhcurveto
          -3 -6 -1 -8 -6 vvcurveto
          -9 0 -7 5 -9 vhcurveto
          7 21 119 28 68 hhcurveto
          57 17 -11 -51 hvcurveto
          -78 vlineto
          -71 -3 -69 -8 -71 -11 rrcurveto
          -59 -13 -29 -28 -58 vvcurveto
          -140 vlineto
          -54 27 -22 74 64 61 12 21 73 vhcurveto
          -29 1 7 -4 52 hhcurveto
          49 47 8 11 39 hvcurveto
          hintmask 0111111001000000
          -195 59 rmoveto
          -11 -39 -47 -11 -36 hhcurveto
          -37 -26 11 34 hvcurveto
          111 vlineto
          47 16 8 51 11 vhcurveto
          35 7 43 5 40 2 rrcurveto
          hintmask 1011111110000000
          52 366 rmoveto
          51 -53 43 -66 -66 -43 -43 -51 -51 43 -43 66 66 53 43 51 vhcurveto
          -59 hmoveto
          -27 -27 -19 -29 -28 -27 19 27 27 27 19 28 29 27 -19 -27 vhcurveto
          endchar
        </CharString>
        <CharString name="asciicircum">
          -98 700 -20 hstem
          54 384 vstem
          246 618 rmoveto
          -85 102 42 -40 8 hhcurveto
          8 22 12 6 5 hvcurveto
          3 4 5 6 -4 4 -157 167 rcurveline
          6 -7 -20 2 -7 hhcurveto
          -7 -20 -2 -6 -7 hvcurveto
          -157 -167 -4 -4 5 -6 3 -4 rlinecurve
          -6 5 22 -12 8 hhcurveto
          8 42 40 85 102 hvcurveto
          endchar
        </CharString>
        <CharString name="asciitilde">
          -97 249 101 -47 100 hstemhm
          43 412 hintmask 01100000
          84 256 rmoveto
          36 18 49 11 26 hhcurveto
          hintmask 10100000
          45 33 -54 66 hhcurveto
          57 44 43 76 33 hvcurveto
          -4 6 -5 7 -6 4 -8 6 -8 2 -10 3 rrcurveto
          -36 -17 -50 -10 -26 hhcurveto
          hintmask 01100000
          -44 -33 53 -67 hhcurveto
          -57 -43 -43 -76 -34 hvcurveto
          4 -6 5 -7 6 -4 8 -6 8 -2 10 -3 rrcurveto
          endchar
        </CharString>
        <CharString name="asterisk">
          -115 339 437 hstem
          210 59 vstem
          210 371 rmoveto
          -25 3 -8 15 1 vhcurveto
          21 3 rlineto
          17 3 3 5 23 vvcurveto
          371 vlineto
          25 -3 8 -15 -1 vhcurveto
          -21 -3 rlineto
          -17 -3 -3 -5 -23 vvcurveto
          176 -303 rmoveto
          23 -13 7 -1 7 13 8 20 rcurveline
          7 16 -4 5 -20 12 -321 185 rcurveline
          -23 13 -7 1 -7 -13 -8 -20 rcurveline
          -7 -16 4 -5 20 -12 rrcurveto
          -2 -134 rmoveto
          -21 -13 -6 -7 9 -12 13 -16 rcurveline
          11 -15 6 1 19 12 322 185 rcurveline
          21 13 6 7 -9 12 -13 16 rcurveline
          -11 15 -6 -1 -19 -12 rrcurveto
          endchar
        </CharString>
        <CharString name="at">
          229 -107 53 141 53 -53 56 236 45 187 53 hstemhm
          76 114 103 114 185 114 hintmask 11011111
          619 -10 rmoveto
          -12 -36 -153 -32 -138 hhcurveto
          -74 -28 21 75 hvcurveto
          479 vlineto
          59 41 31 259 74 28 -21 -75 vhcurveto
          -91 vlineto
          -71 -3 -69 -8 -71 -11 rrcurveto
          -59 -13 -29 -28 -58 vvcurveto
          hintmask 10111111
          -140 vlineto
          -54 27 -22 74 64 61 12 21 73 vhcurveto
          hintmask 11011111
          -29 1 7 -4 52 hhcurveto
          49 47 8 11 39 hvcurveto
          2 6 1 5 6 vvcurveto
          7 -1 6 -3 6 vhcurveto
          -69 -2 rlineto
          -6 -5 11 44 hvcurveto
          334 vlineto
          106 -43 29 -121 -315 -151 -33 -105 vhcurveto
          -498 vlineto
          -106 43 -29 121 131 125 11 36 125 vhcurveto
          3 8 1 7 9 vvcurveto
          9 -1 9 -5 8 vhcurveto
          hintmask 10111111
          -27 175 rmoveto
          -11 -39 -47 -11 -36 hhcurveto
          -37 -26 11 34 hvcurveto
          111 vlineto
          47 16 8 51 11 vhcurveto
          35 7 43 5 40 2 rrcurveto
          endchar
        </CharString>
        <CharString name="atilde">
          -45 -13 53 -53 56 236 45 140 50 71 72 -19 69 -15 -20 hstemhm
          46 114 185 114 hintmask 1011010110000000
          540 6 rmoveto
          2 6 1 5 6 vvcurveto
          7 -1 6 -3 6 vhcurveto
          -69 -2 rlineto
          -6 -5 11 44 hvcurveto
          346 vlineto
          52 -32 21 -71 -102 -94 -10 -30 -98 vhcurveto
          -3 -6 -1 -8 -6 vvcurveto
          -9 0 -7 5 -9 vhcurveto
          7 21 119 28 68 hhcurveto
          57 17 -11 -51 hvcurveto
          -78 vlineto
          -71 -3 -69 -8 -71 -11 rrcurveto
          -59 -13 -29 -28 -58 vvcurveto
          -140 vlineto
          -54 27 -22 74 64 61 12 21 73 vhcurveto
          -29 1 7 -4 52 hhcurveto
          49 47 8 11 39 hvcurveto
          hintmask 0111010110000000
          -195 59 rmoveto
          -11 -39 -47 -11 -36 hhcurveto
          -37 -26 11 34 hvcurveto
          111 vlineto
          47 16 8 51 11 vhcurveto
          35 7 43 5 40 2 rrcurveto
          -205 313 rmoveto
          17 18 18 29 35 42 29 -53 48 hhcurveto
          hintmask 1011101110000000
          59 47 53 19 2 hvcurveto
          2 16 -6 9 -9 7 -8 7 -5 -4 -9 -9 rrcurveto
          -15 -15 -20 -11 -22 -42 -30 50 -59 hhcurveto
          hintmask 1011010110000000
          -53 -42 -49 -25 -10 hvcurveto
          -2 -5 -1 -8 1 -4 3 -9 7 -7 8 -8 5 -5 5 1 4 4 rrcurveto
          endchar
        </CharString>
        <CharString name="b">
          -31 -12 43 423 60 146 34 -34 53 hstemhm
          70 114 196 114 hintmask 11101100
          59 660 rmoveto
          6 5 -11 -44 hvcurveto
          -508 vlineto
          -86 35 -23 97 198 94 27 84 vhcurveto
          339 vlineto
          54 -27 22 -74 -67 -65 -22 -21 -77 vhcurveto
          hintmask 11011100
          199 vlineto
          38 -3 5 -57 vhcurveto
          hintmask 11101100
          -49 -47 -8 -11 -39 hvcurveto
          -2 -6 -1 -5 -6 vvcurveto
          -7 1 -6 3 -6 vhcurveto
          194 -232 rmoveto
          12 45 54 16 41 hhcurveto
          33 23 -11 -30 hvcurveto
          -310 vlineto
          -47 -15 -25 -121 -48 -12 17 60 vhcurveto
          endchar
        </CharString>
        <CharString name="backslash">
          -206 -161 933 hstem
          30 325 vstem
          113 764 rmoveto
          5 -16 -12 3 -13 hhcurveto
          -13 -14 -3 -5 -15 hvcurveto
          243 -916 rlineto
          -6 17 13 -3 13 hhcurveto
          13 12 3 6 14 hvcurveto
          endchar
        </CharString>
        <CharString name="bar">
          -367 -158 930 hstem
          74 76 vstem
          74 -152 rmoveto
          -4 14 12 -2 12 hhcurveto
          12 11 2 4 15 hvcurveto
          916 vlineto
          5 -15 -11 3 -12 hhcurveto
          -12 -12 -3 -5 -14 hvcurveto
          endchar
        </CharString>
        <CharString name="braceleft">
          -275 -137 45 388 42 387 45 hstem
          121 92 vstem
          121 443 rmoveto
          -81 -51 -21 -67 -3 vhcurveto
          -8 -15 0 -14 8 -13 rrcurveto
          67 -3 51 -20 -83 vvcurveto
          -216 vlineto
          -109 48 -2 112 vhcurveto
          3 9 2 7 9 vvcurveto
          6 -1 8 -3 6 vhcurveto
          -58 -11 22 48 hvcurveto
          215 vlineto
          67 -32 44 -69 13 vhcurveto
          1 vlineto
          68 12 33 46 65 vvcurveto
          214 vlineto
          48 11 22 58 vhcurveto
          3 6 1 8 6 vvcurveto
          9 -2 7 -3 9 vhcurveto
          -112 -48 -2 -109 hvcurveto
          endchar
        </CharString>
        <CharString name="braceright">
          -274 -136 45 387 42 388 45 hstem
          101 92 vstem
          193 191 rmoveto
          81 51 21 67 3 vhcurveto
          8 15 0 14 -8 13 rrcurveto
          -67 3 -51 20 83 vvcurveto
          216 vlineto
          109 -48 2 -112 vhcurveto
          -3 -9 -2 -7 -9 vvcurveto
          -6 1 -8 3 -6 vhcurveto
          58 11 -22 -48 hvcurveto
          -215 vlineto
          -67 32 -44 69 -13 vhcurveto
          -1 vlineto
          -68 -12 -33 -46 -65 vvcurveto
          -214 vlineto
          -48 -11 -22 -58 vhcurveto
          -3 -6 -1 -8 -6 vvcurveto
          -9 2 -7 3 -9 vhcurveto
          112 48 2 109 hvcurveto
          endchar
        </CharString>
        <CharString name="bracketleft">
          -310 -128 53 782 53 hstem
          75 92 vstem
          75 -85 rmoveto
          -38 1 -5 55 45 42 8 11 36 vhcurveto
          2 5 1 6 5 vvcurveto
          7 -2 6 -2 7 vhcurveto
          -75 -2 rlineto
          -6 -5 11 44 hvcurveto
          672 vlineto
          44 5 11 6 vhcurveto
          75 -2 rlineto
          2 7 2 6 7 vvcurveto
          5 -1 6 -2 5 vhcurveto
          11 -36 -42 8 -45 hhcurveto
          -55 -1 -5 -38 hvcurveto
          endchar
        </CharString>
        <CharString name="bracketright">
          -310 -128 53 782 53 hstem
          115 92 vstem
          207 717 rmoveto
          38 -1 5 -55 -45 -42 -8 -11 -36 vhcurveto
          -2 -5 -1 -6 -5 vvcurveto
          -7 2 -6 2 -7 vhcurveto
          75 2 rlineto
          6 5 -11 -44 hvcurveto
          -672 vlineto
          -44 -5 -11 -6 vhcurveto
          -75 2 rlineto
          -2 -7 -2 -6 -7 vvcurveto
          -5 1 -6 2 -5 vhcurveto
          -11 36 42 -8 45 hhcurveto
          55 1 5 38 hvcurveto
          endchar
        </CharString>
        <CharString name="brokenbar">
          -364 -160 931 hstem
          76 75 vstem
          76 372 rmoveto
          -6 14 12 -2 12 hhcurveto
          12 11 2 6 14 hvcurveto
          392 vlineto
          4 -14 -12 3 -12 hhcurveto
          -12 -11 -3 -4 -14 hvcurveto
          -916 vmoveto
          -6 14 12 -2 12 hhcurveto
          12 11 2 6 14 hvcurveto
          392 vlineto
          4 -14 -12 3 -12 hhcurveto
          -12 -11 -3 -4 -14 hvcurveto
          endchar
        </CharString>
        <CharString name="bullet">
          -249 250 215 hstem
          63 216 vstem
          63 307 rmoveto
          -45 6 -18 28 3 vhcurveto
          144 6 rlineto
          35 5 3 14 39 vvcurveto
          97 vlineto
          45 -6 18 -28 -3 vhcurveto
          -144 -5 rlineto
          -35 -5 -3 -15 -39 vvcurveto
          endchar
        </CharString>
        <CharString name="c">
          -127 -13 50 431 46 hstem
          65 114 vstem
          423 510 rmoveto
          4 -33 -42 0 -38 hhcurveto
          -50 -77 -13 -12 -35 hvcurveto
          -70 -25 -13 -25 -57 vvcurveto
          -322 vlineto
          -52 32 -21 71 94 85 10 30 90 vhcurveto
          3 6 1 8 6 vvcurveto
          9 0 7 -5 9 vhcurveto
          -7 -18 -105 -28 -60 hhcurveto
          -57 -17 11 51 hvcurveto
          279 vlineto
          42 6 14 31 12 vhcurveto
          16 43 46 6 44 hhcurveto
          26 26 -2 -3 23 hvcurveto
          4 8 3 8 8 vvcurveto
          7 -3 8 -5 8 vhcurveto
          endchar
        </CharString>
        <CharString name="caron">
          -243 647 -20 hstem
          27 314 vstem
          185 565 rmoveto
          7 20 2 6 7 hvcurveto
          121 131 4 4 -5 6 -3 4 rlinecurve
          6 -5 -22 12 -8 hhcurveto
          -8 -4 -4 -85 -102 hvcurveto
          85 -108 -3 2 -7 hhcurveto
          -8 -27 -12 -6 -5 hvcurveto
          -3 -4 0 -6 4 -4 38 -43 37 -40 46 -46 rrcurveto
          -7 7 20 -1 7 hhcurveto
          endchar
        </CharString>
        <CharString name="caron.case">
          -243 745 171 hstem
          13 314 vstem
          171 745 rmoveto
          7 20 2 6 7 hvcurveto
          121 131 4 4 -5 6 -3 4 rlinecurve
          6 -5 -22 12 -8 hhcurveto
          -8 -4 -4 -85 -102 hvcurveto
          85 -108 -3 2 -7 hhcurveto
          -8 -27 -12 -6 -5 hvcurveto
          -3 -4 0 -6 4 -4 38 -43 37 -40 46 -46 rrcurveto
          -7 7 20 -1 7 hhcurveto
          endchar
        </CharString>
        <CharString name="ccedilla">
          -127 -74 38 23 50 -26 -21 25 -21 474 46 hstemhm
          65 114 120 68 hintmask 01001100
          hintmask 00011110
          282 -36 rmoveto
          9 30 48 6 48 10 50 17 rlinecurve
          hintmask 01001110
          3 6 1 8 6 vvcurveto
          9 0 7 -5 9 vhcurveto
          -7 -18 -105 -28 -60 hhcurveto
          -57 -17 11 51 hvcurveto
          279 vlineto
          42 6 14 31 12 vhcurveto
          16 43 46 6 44 hhcurveto
          26 26 -2 -3 23 hvcurveto
          4 8 3 8 8 vvcurveto
          7 -3 8 -5 8 vhcurveto
          4 -33 -42 0 -38 hhcurveto
          -50 -77 -13 -12 -35 hvcurveto
          -70 -25 -13 -25 -57 vvcurveto
          -322 vlineto
          -52 32 -21 71 27 26 1 2 26 vhcurveto
          hintmask 00101110
          -14 -50 rlineto
          hintmask 11001110
          -9 -2 7 -5 8 hhcurveto
          44 -1 9 -15 -19 vvcurveto
          -19 -22 -28 -48 -4 vhcurveto
          -11 -1 -2 -3 -6 vvcurveto
          -17 11 -15 16 -12 vhcurveto
          68 3 56 63 46 vvcurveto
          35 -28 28 -57 3 vhcurveto
          endchar
        </CharString>
        <CharString name="cedilla">
          -354 -74 78 hstem
          144 68 vstem
          127 -36 rmoveto
          12 40 rlineto
          -43 hlineto
          -18 -64 rlineto
          -9 -2 7 -5 8 hhcurveto
          44 -1 9 -15 -19 vvcurveto
          -19 -22 -28 -48 -4 vhcurveto
          -11 -1 -2 -3 -6 vvcurveto
          -17 11 -15 16 -12 vhcurveto
          68 3 56 63 46 vvcurveto
          35 -28 28 -57 3 vhcurveto
          endchar
        </CharString>
        <CharString name="cent">
          -128 -13 50 -25 -21 27 -21 469 48 -4 -20 hstemhm
          49 114 77 56 hintmask 10010110
          407 510 rmoveto
          4 -33 -41 0 -37 hhcurveto
          96 vlineto
          3 -7 -13 2 -7 hhcurveto
          hintmask 10001110
          -11 -8 -3 -3 -10 hvcurveto
          -99 vlineto
          -41 -4 -44 -8 -23 -9 -64 -22 -17 -24 -2 -46 rrcurveto
          -3 vlineto
          -12 vlineto
          -322 vlineto
          -52 32 -21 71 30 29 1 3 29 vhcurveto
          hintmask 01010110
          -102 vlineto
          -3 7 13 -2 7 hhcurveto
          11 8 3 3 10 hvcurveto
          107 vlineto
          hintmask 00110110
          41 6 41 10 43 14 rrcurveto
          3 6 1 8 6 vvcurveto
          hintmask 10010110
          9 0 7 -5 9 vhcurveto
          -7 -18 -105 -28 -60 hhcurveto
          -57 -17 11 51 hvcurveto
          298 vlineto
          1 21 5 16 31 12 33 14 39 5 28 1 rrcurveto
          54 41 -1 -2 13 hvcurveto
          3 6 2 8 7 vvcurveto
          hintmask 10001110
          9 -6 8 9 vvcurveto
          endchar
        </CharString>
        <CharString name="circumflex">
          -243 568 171 hstem
          14 314 vstem
          170 739 rmoveto
          -7 -20 -2 -6 -7 hvcurveto
          -121 -131 -4 -4 5 -6 3 -4 rlinecurve
          -6 5 22 -12 8 hhcurveto
          8 4 4 85 102 hvcurveto
          -85 108 3 -2 7 hhcurveto
          8 27 12 6 5 hvcurveto
          3 4 0 6 -4 4 -38 43 -37 40 -46 46 rrcurveto
          7 -7 -20 1 -7 hhcurveto
          endchar
        </CharString>
        <CharString name="circumflex.case">
          -243 753 171 hstem
          14 314 vstem
          170 924 rmoveto
          -7 -20 -2 -6 -7 hvcurveto
          -121 -131 -4 -4 5 -6 3 -4 rlinecurve
          -6 5 22 -12 8 hhcurveto
          8 4 4 85 102 hvcurveto
          -85 108 3 -2 7 hhcurveto
          8 27 12 6 5 hvcurveto
          3 4 0 6 -4 4 -38 43 -37 40 -46 46 rrcurveto
          7 -7 -20 1 -7 hhcurveto
          endchar
        </CharString>
        <CharString name="colon">
          -362 -9 115 -91 -21 422 114 hstemhm
          58 114 hintmask 10110000
          58 23 rmoveto
          -24 3 -9 15 1 vhcurveto
          hintmask 01110000
          76 3 rlineto
          18 3 2 7 21 vvcurveto
          hintmask 10110000
          51 vlineto
          24 -3 9 -15 -1 vhcurveto
          -76 -3 rlineto
          -18 -3 -2 -7 -21 vvcurveto
          373 vmoveto
          -24 3 -9 15 1 vhcurveto
          76 3 rlineto
          18 3 2 7 21 vvcurveto
          51 vlineto
          24 -3 9 -15 -1 vhcurveto
          -76 -3 rlineto
          -18 -3 -2 -7 -21 vvcurveto
          endchar
        </CharString>
        <CharString name="comma">
          -369 -9 115 hstem
          53 114 vstem
          167 76 rmoveto
          24 -3 9 -15 -1 vhcurveto
          -76 -3 rlineto
          -18 -3 -2 -7 -21 vvcurveto
          -51 vlineto
          -24 3 -9 15 1 vhcurveto
          32 2 -1 -33 -46 -34 -33 -14 rlinecurve
          -6 2 -8 3 -5 vhcurveto
          4 -8 6 -5 6 -7 rrcurveto
          84 21 39 55 76 vvcurveto
          endchar
        </CharString>
        <CharString name="copyright">
          199 -13 53 85 45 367 38 -38 42 82 53 hstemhm
          70 85 83 95 302 85 hintmask 11101111
          70 122 rmoveto
          -106 40 -29 109 340 161 33 105 vhcurveto
          454 vlineto
          106 -40 29 -109 -340 -161 -33 -105 vhcurveto
          565 -446 rmoveto
          -59 -71 -31 -303 -74 -32 21 75 vhcurveto
          435 vlineto
          59 71 31 303 73 33 -21 -75 vhcurveto
          -102 -32 rmoveto
          2 6 0 9 5 vvcurveto
          6 -1 11 -2 5 vhcurveto
          hintmask 11011111
          2 -23 -26 2 -25 hhcurveto
          -56 -57 -6 -8 -38 hvcurveto
          -47 -11 -22 -25 -36 vvcurveto
          -284 vlineto
          -66 27 -18 76 69 61 3 20 66 vhcurveto
          2 4 1 10 5 vvcurveto
          6 -1 10 -2 6 vhcurveto
          -4 -14 -67 -15 -63 hhcurveto
          -46 -14 12 46 hvcurveto
          hintmask 11101111
          252 vlineto
          20 2 13 30 11 vhcurveto
          32 12 35 0 30 1 rrcurveto
          34 28 -2 -2 9 hvcurveto
          endchar
        </CharString>
        <CharString name="currency">
          -63 175 65 236 66 -35 -20 86 -20 21 -20 hstemhm
          81 76 215 76 hintmask 10101110
          81 358 rmoveto
          -40 12 -38 21 -29 vhcurveto
          -65 -66 rlineto
          -21 15 -13 27 -8 vhcurveto
          66 66 rlineto
          -23 31 36 -11 40 hhcurveto
          40 36 13 21 31 hvcurveto
          67 -66 28 7 12 15 1 20 rlinecurve
          -66 66 rlineto
          23 29 12 38 40 vvcurveto
          40 -12 36 -23 31 vhcurveto
          66 66 -8 22 -13 15 -21 6 rlinecurve
          -67 -67 rlineto
          hintmask 11001110
          21 -31 -36 14 -39 hhcurveto
          -41 -36 -14 -21 -31 hvcurveto
          hintmask 10110110
          -65 66 -19 -11 -15 -12 -8 -19 rlinecurve
          66 -66 rlineto
          -23 -31 -11 -36 -40 vvcurveto
          hintmask 10101110
          76 hmoveto
          66 48 52 59 vhcurveto
          hintmask 11001110
          61 47 -52 -66 -63 -47 -55 -61 -59 -48 55 63 hvcurveto
          endchar
        </CharString>
        <CharString name="d">
          -10 -13 55 -55 60 421 46 146 34 -34 53 hstemhm
          66 114 198 114 hintmask 10110110
          573 6 rmoveto
          2 6 1 5 6 vvcurveto
          7 -1 6 -3 6 vhcurveto
          -70 hlineto
          -5 -5 12 41 hvcurveto
          hintmask 10101110
          575 vlineto
          38 -3 5 -57 vhcurveto
          hintmask 10110110
          -49 -47 -8 -11 -39 hvcurveto
          -2 -6 -1 -5 -6 vvcurveto
          -7 1 -6 3 -6 vhcurveto
          69 2 rlineto
          6 5 -11 -44 hvcurveto
          -91 vlineto
          -75 -3 -74 -5 -75 -14 rrcurveto
          -58 -11 -30 -29 -55 vvcurveto
          -334 vlineto
          -54 27 -22 74 67 67 22 21 77 vhcurveto
          -38 3 -5 57 49 47 8 11 39 vhcurveto
          hintmask 01110110
          -195 69 rmoveto
          -15 -54 -50 -13 -38 hhcurveto
          -33 -23 10 31 hvcurveto
          308 vlineto
          41 18 7 49 11 vhcurveto
          38 8 50 3 43 2 rrcurveto
          endchar
        </CharString>
        <CharString name="degree">
          -220 411 59 185 59 hstem
          34 65 173 65 vstem
          34 562 rmoveto
          -83 68 -68 83 84 68 68 83 84 -68 68 -84 -83 -68 -68 -84 vhcurveto
          65 hmoveto
          51 35 42 51 52 35 -42 -51 -50 -35 -42 -52 -51 -35 42 50 vhcurveto
          endchar
        </CharString>
        <CharString name="dieresis">
          -235 600 105 hstem
          38 105 72 105 vstem
          38 630 rmoveto
          -21 2 -9 12 vhcurveto
          72 4 rlineto
          17 2 2 7 18 vvcurveto
          48 vlineto
          22 -2 8 -15 vhcurveto
          -70 -4 rlineto
          -17 -2 -1 -7 -18 vvcurveto
          177 -48 rmoveto
          -21 2 -9 12 vhcurveto
          73 4 rlineto
          16 2 2 7 18 vvcurveto
          48 vlineto
          22 -2 8 -14 vhcurveto
          -70 -4 rlineto
          -18 -2 -1 -7 -18 vvcurveto
          endchar
        </CharString>
        <CharString name="dieresis.case">
          -235 775 109 hstem
          38 105 72 105 vstem
          38 805 rmoveto
          -21 2 -9 12 vhcurveto
          72 4 rlineto
          17 2 2 7 18 vvcurveto
          48 vlineto
          22 -2 8 -15 vhcurveto
          -70 -4 rlineto
          -17 -2 -1 -7 -18 vvcurveto
          177 -48 rmoveto
          -21 2 -9 12 vhcurveto
          73 4 rlineto
          16 2 2 7 18 vvcurveto
          48 vlineto
          22 -2 8 -14 vhcurveto
          -70 -4 rlineto
          -18 -2 -1 -7 -18 vvcurveto
          endchar
        </CharString>
        <CharString name="divide">
          -70 95 114 86 79 90 114 hstem
          201 114 vstem
          468 306 rmoveto
          4 12 2 12 12 vvcurveto
          14 -3 14 -5 15 vhcurveto
          -412 -22 rlineto
          -4 -13 -3 -13 -12 vvcurveto
          -12 4 -15 5 -14 vhcurveto
          145 -158 rmoveto
          -24 3 -9 15 1 vhcurveto
          76 3 rlineto
          18 3 2 7 21 vvcurveto
          51 vlineto
          24 -3 9 -15 -1 vhcurveto
          -76 -3 rlineto
          -18 -3 -2 -7 -21 vvcurveto
          318 vmoveto
          -24 3 -9 15 1 vhcurveto
          76 3 rlineto
          18 3 2 7 21 vvcurveto
          51 vlineto
          24 -3 9 -15 -1 vhcurveto
          -76 -3 rlineto
          -18 -3 -2 -7 -21 vvcurveto
          endchar
        </CharString>
        <CharString name="dollar">
          -88 -6 52 -51 51 606 49 -49 51 -8 -20 hstemhm
          47 120 30 56 -24 56 42 127 hintmask 1001001000000000
          35 56 rmoveto
          -7 -19 2 -20 6 -14 38 -3 60 -5 63 -1 rrcurveto
          hintmask 0101001010000000
          -93 vlineto
          -3 7 13 -2 7 hhcurveto
          11 8 3 3 10 hvcurveto
          93 vlineto
          103 4 96 23 2 82 -1 59 -68 90 -33 48 rrcurveto
          hintmask 1001011000000000
          -137 200 rlineto
          -10 16 -38 53 32 vvcurveto
          31 41 19 94 54 49 -7 -4 17 vhcurveto
          hintmask 1000101000000000
          6 15 1 24 -4 15 rrcurveto
          hintmask 1001000100000000
          4 -36 -47 4 -46 hhcurveto
          -11 hlineto
          hintmask 1010010110000000
          76 vlineto
          3 -7 -13 2 -7 hhcurveto
          -11 -8 -3 -3 -10 hvcurveto
          -77 vlineto
          -87 -6 -95 -21 -72 vvcurveto
          -49 19 -30 14 -22 vhcurveto
          202 -301 rlineto
          25 -39 20 -37 -22 vvcurveto
          -45 -36 -11 -128 vhcurveto
          hintmask 1001001000000000
          -53 -60 8 2 -15 hvcurveto
          endchar
        </CharString>
        <CharString name="dotlessi">
          -13 53 421 53 hstem
          94 114 vstem
          289 6 rmoveto
          2 6 1 5 6 vvcurveto
          7 -1 6 -3 6 vhcurveto
          -69 -2 rlineto
          -6 -5 11 44 hvcurveto
          376 vlineto
          38 -3 5 -57 -49 -47 -8 -11 -39 vhcurveto
          -2 -6 -1 -5 -6 vvcurveto
          -7 1 -6 3 -6 vhcurveto
          69 2 rlineto
          6 5 -11 -44 hvcurveto
          -376 vlineto
          -38 3 -5 57 49 47 8 11 39 vhcurveto
          endchar
        </CharString>
        <CharString name="e">
          -75 -13 50 176 46 213 42 hstem
          66 114 176 114 vstem
          462 67 rmoveto
          -6 -21 -119 -24 -68 hhcurveto
          -57 -17 11 51 hvcurveto
          114 vlineto
          67 4 67 8 68 11 rrcurveto
          59 13 29 28 58 vvcurveto
          71 vlineto
          85 -33 23 -97 -184 -90 -26 -85 vhcurveto
          -343 vlineto
          -52 32 -21 71 102 94 9 26 98 vhcurveto
          3 6 1 8 6 vvcurveto
          9 0 7 -5 9 vhcurveto
          -282 332 rmoveto
          48 13 25 105 42 16 -16 -57 vhcurveto
          -61 vlineto
          -46 -17 -8 -50 -11 vhcurveto
          -32 -7 -40 -4 -37 -3 rrcurveto
          endchar
        </CharString>
        <CharString name="eacute">
          -75 -13 50 176 46 213 42 hstem
          66 114 176 114 vstem
          462 67 rmoveto
          -6 -21 -119 -24 -68 hhcurveto
          -57 -17 11 51 hvcurveto
          114 vlineto
          67 4 67 8 68 11 rrcurveto
          59 13 29 28 58 vvcurveto
          71 vlineto
          85 -33 23 -97 -184 -90 -26 -85 vhcurveto
          -343 vlineto
          -52 32 -21 71 102 94 9 26 98 vhcurveto
          3 6 1 8 6 vvcurveto
          9 0 7 -5 9 vhcurveto
          -282 332 rmoveto
          48 13 25 105 42 16 -16 -57 vhcurveto
          -61 vlineto
          -46 -17 -8 -50 -11 vhcurveto
          -32 -7 -40 -4 -37 -3 rrcurveto
          156 469 rmoveto
          -41 -48 -41 -40 -42 -39 -5 -4 0 -3 1 -3 5 -12 5 -9 10 -6 5 -4 6 2 6 1 51 22 53 30 47 34 11 9 2 6 -1 4 -5 25 -21 28 -24 14 -3 1 -8 3 -11 -11 rrcurveto
          endchar
        </CharString>
        <CharString name="ecircumflex">
          -75 -13 50 176 46 213 42 hstem
          66 114 176 114 vstem
          462 67 rmoveto
          -6 -21 -119 -24 -68 hhcurveto
          -57 -17 11 51 hvcurveto
          114 vlineto
          67 4 67 8 68 11 rrcurveto
          59 13 29 28 58 vvcurveto
          71 vlineto
          85 -33 23 -97 -184 -90 -26 -85 vhcurveto
          -343 vlineto
          -52 32 -21 71 102 94 9 26 98 vhcurveto
          3 6 1 8 6 vvcurveto
          9 0 7 -5 9 vhcurveto
          -282 332 rmoveto
          48 13 25 105 42 16 -16 -57 vhcurveto
          -61 vlineto
          -46 -17 -8 -50 -11 vhcurveto
          -32 -7 -40 -4 -37 -3 rrcurveto
          95 480 rmoveto
          -7 -20 -2 -6 -7 hvcurveto
          -121 -131 -4 -4 5 -6 3 -4 rlinecurve
          -6 5 22 -12 8 hhcurveto
          8 4 4 85 102 hvcurveto
          -85 108 3 -2 7 hhcurveto
          8 27 12 6 5 hvcurveto
          3 4 0 6 -4 4 -38 43 -37 40 -46 46 rrcurveto
          7 -7 -20 1 -7 hhcurveto
          endchar
        </CharString>
        <CharString name="edieresis">
          -75 -13 50 176 46 213 42 86 105 hstemhm
          66 114 -43 105 72 105 -63 114 hintmask 11111001
          462 67 rmoveto
          -6 -21 -119 -24 -68 hhcurveto
          -57 -17 11 51 hvcurveto
          114 vlineto
          67 4 67 8 68 11 rrcurveto
          59 13 29 28 58 vvcurveto
          71 vlineto
          85 -33 23 -97 -184 -90 -26 -85 vhcurveto
          -343 vlineto
          -52 32 -21 71 102 94 9 26 98 vhcurveto
          3 6 1 8 6 vvcurveto
          9 0 7 -5 9 vhcurveto
          -282 332 rmoveto
          48 13 25 105 42 16 -16 -57 vhcurveto
          -61 vlineto
          -46 -17 -8 -50 -11 vhcurveto
          -32 -7 -40 -4 -37 -3 rrcurveto
          hintmask 11110110
          -43 371 rmoveto
          -21 2 -9 12 vhcurveto
          72 4 rlineto
          17 2 2 7 18 vvcurveto
          48 vlineto
          22 -2 8 -15 vhcurveto
          -70 -4 rlineto
          -17 -2 -1 -7 -18 vvcurveto
          177 -48 rmoveto
          -21 2 -9 12 vhcurveto
          73 4 rlineto
          16 2 2 7 18 vvcurveto
          48 vlineto
          22 -2 8 -14 vhcurveto
          -70 -4 rlineto
          -18 -2 -1 -7 -18 vvcurveto
          endchar
        </CharString>
        <CharString name="egrave">
          -75 -13 50 176 46 213 42 hstem
          66 114 176 114 vstem
          462 67 rmoveto
          -6 -21 -119 -24 -68 hhcurveto
          -57 -17 11 51 hvcurveto
          114 vlineto
          67 4 67 8 68 11 rrcurveto
          59 13 29 28 58 vvcurveto
          71 vlineto
          85 -33 23 -97 -184 -90 -26 -85 vhcurveto
          -343 vlineto
          -52 32 -21 71 102 94 9 26 98 vhcurveto
          3 6 1 8 6 vvcurveto
          9 0 7 -5 9 vhcurveto
          -282 332 rmoveto
          48 13 25 105 42 16 -16 -57 vhcurveto
          -61 vlineto
          -46 -17 -8 -50 -11 vhcurveto
          -32 -7 -40 -4 -37 -3 rrcurveto
          30 469 rmoveto
          -11 11 -8 -3 -3 -1 -24 -14 -21 -28 -5 -25 -1 -4 2 -6 11 -9 47 -34 53 -30 51 -22 6 -1 6 -2 5 4 10 6 5 9 5 12 1 3 0 3 -5 4 -42 39 -41 40 -41 48 rrcurveto
          endchar
        </CharString>
        <CharString name="eight">
          -55 -13 52 315 54 255 52 hstemhm
          66 112 -97 108 157 108 -95 112 hintmask 11110010
          hintmask 11101100
          346 495 rmoveto
          -62 -15 -20 -84 -5 vhcurveto
          -56 -3 -2 27 78 vvcurveto
          67 vlineto
          67 24 19 79 45 9 -19 -67 vhcurveto
          hintmask 11110010
          13 -450 rmoveto
          -69 -21 -16 -94 -3 vhcurveto
          -47 -2 -19 7 71 vvcurveto
          152 vlineto
          65 29 18 82 4 vhcurveto
          58 3 12 -35 -68 vvcurveto
          112 3 rmoveto
          68 -10 57 -83 13 vhcurveto
          2 vlineto
          hintmask 11101100
          66 16 10 37 29 vvcurveto
          106 vlineto
          92 -20 38 -88 -152 -113 -10 -122 vhcurveto
          -76 vlineto
          -68 -6 -44 83 -13 vhcurveto
          -2 vlineto
          hintmask 11110010
          -66 -16 -26 -42 -29 vvcurveto
          -171 vlineto
          -92 29 -43 88 111 173 17 122 4 vhcurveto
          endchar
        </CharString>
        <CharString name="emdash">
          380 261 123 hstem
          61 846 vstem
          902 305 rmoveto
          4 14 1 14 12 vvcurveto
          14 -2 12 -5 13 vhcurveto
          -279 -14 -275 -16 -279 -14 rrcurveto
          -4 -13 -2 -13 -11 vvcurveto
          -14 3 -14 5 -14 vhcurveto
          endchar
        </CharString>
        <CharString name="endash">
          57 279 79 hstem
          64 519 vstem
          576 293 rmoveto
          4 12 3 15 12 vvcurveto
          12 -4 15 -5 13 vhcurveto
          -505 -27 rlineto
          -3 -14 -2 -12 -12 vvcurveto
          -13 3 -15 4 -13 vhcurveto
          endchar
        </CharString>
        <CharString name="equal">
          -30 229 80 94 80 hstem
          67 425 vstem
          481 414 rmoveto
          4 13 3 16 12 vvcurveto
          12 -3 13 -4 14 vhcurveto
          -408 -22 rlineto
          -4 -13 -2 -12 -12 vvcurveto
          -13 2 -16 4 -14 vhcurveto
          412 -152 rmoveto
          4 13 3 16 12 vvcurveto
          12 -3 13 -4 14 vhcurveto
          -408 -22 rlineto
          -4 -13 -2 -12 -12 vvcurveto
          -13 2 -16 4 -14 vhcurveto
          endchar
        </CharString>
        <CharString name="eth">
          -33 -12 43 439 45 147 43 hstem
          65 114 196 114 vstem
          224 602 rmoveto
          -19 10 18 -9 24 hhcurveto
          64 63 rlineto
          26 -14 9 -23 -26 vvcurveto
          -59 vlineto
          -75 -3 -73 -8 -74 -12 rrcurveto
          -58 -13 -30 -27 -55 vvcurveto
          -300 vlineto
          -86 35 -23 97 198 94 27 84 vhcurveto
          480 vlineto
          54 -39 35 -57 20 vhcurveto
          42 42 rlineto
          19 -10 -18 9 -24 hhcurveto
          -54 -53 rlineto
          6 -37 -40 3 -40 hhcurveto
          -27 -28 -1 -3 -28 hvcurveto
          -3 -10 -3 -8 -10 vvcurveto
          -7 2 -8 3 -7 vhcurveto
          2 17 16 0 26 hhcurveto
          35 27 -2 -6 28 hvcurveto
          -31 -199 rmoveto
          37 8 49 5 43 2 rrcurveto
          -367 vlineto
          -47 -15 -25 -121 -48 -12 17 60 vhcurveto
          288 vlineto
          41 18 7 49 11 vhcurveto
          endchar
        </CharString>
        <CharString name="exclam">
          -295 -9 115 -91 -21 666 34 -34 53 hstemhm
          105 114 hintmask 10101000
          94 660 rmoveto
          5 5 -9 -31 1 hvcurveto
          -436 vlineto
          -10 6 -7 11 30 28 4 7 23 vhcurveto
          13 5 3 8 7 vvcurveto
          hintmask 10011000
          472 vlineto
          38 -3 5 -57 vhcurveto
          hintmask 10101000
          -49 -47 -8 -11 -39 hvcurveto
          -2 -6 -1 -5 -6 vvcurveto
          -7 1 -6 3 -6 vhcurveto
          79 -635 rmoveto
          -24 3 -9 15 1 vhcurveto
          hintmask 01101000
          76 3 rlineto
          18 3 2 7 21 vvcurveto
          hintmask 10101000
          51 vlineto
          24 -3 9 -15 -1 vhcurveto
          -76 -3 rlineto
          -18 -3 -2 -7 -21 vvcurveto
          endchar
        </CharString>
        <CharString name="exclamdown">
          -311 -179 53 553 114 hstem
          68 114 vstem
          193 -126 rmoveto
          -5 -5 9 31 -1 hvcurveto
          436 vlineto
          10 -6 7 -11 -30 -28 -4 -7 -23 vhcurveto
          -13 -5 -3 -8 -7 vvcurveto
          -472 vlineto
          -38 3 -5 57 49 47 8 11 39 vhcurveto
          2 6 1 5 6 vvcurveto
          7 -1 6 -3 6 vhcurveto
          -79 635 rmoveto
          24 -3 9 -15 -1 vhcurveto
          -76 -3 rlineto
          -18 -3 -2 -7 -21 vvcurveto
          -51 vlineto
          -24 3 -9 15 1 vhcurveto
          76 3 rlineto
          18 3 2 7 21 vvcurveto
          endchar
        </CharString>
        <CharString name="f">
          -278 -241 45 648 45 -32 48 -6 -20 181 45 hstemhm
          99 114 hintmask 10101100
          322 668 rmoveto
          3 6 1 8 6 vvcurveto
          9 -2 7 -3 9 vhcurveto
          -88 -134 -16 -95 hvcurveto
          hintmask 11001100
          -102 vlineto
          -75 -5 rlineto
          -3 -6 -1 -8 -6 vvcurveto
          -9 2 -7 3 -9 vhcurveto
          74 5 rlineto
          -581 vlineto
          -48 -11 -22 -58 vhcurveto
          -3 -6 -1 -8 -6 vvcurveto
          -9 2 -7 3 -9 vhcurveto
          112 70 2 109 hvcurveto
          hintmask 10101100
          592 vlineto
          79 6 rlineto
          3 6 1 8 6 vvcurveto
          9 -2 7 -3 9 vhcurveto
          hintmask 10011100
          -78 -6 rlineto
          91 vlineto
          hintmask 10101100
          48 19 22 90 vhcurveto
          endchar
        </CharString>
        <CharString name="five">
          -78 -18 62 372 62 191 55 hstemhm
          56 113 -85 104 151 114 hintmask 11101100
          hintmask 11110100
          151 225 rmoveto
          -31 -23 -4 -8 -24 hvcurveto
          -14 -5 -3 -8 -8 vvcurveto
          -70 vlineto
          -91 48 -49 92 162 95 40 103 vhcurveto
          224 vlineto
          98 -28 31 -94 vhcurveto
          hintmask 11101100
          -36 -64 -10 -13 -43 hvcurveto
          189 vlineto
          19 82 86 6 85 hhcurveto
          6 17 3 18 -10 20 rrcurveto
          -132 -96 -7 -23 -81 hvcurveto
          -16 -5 -31 -11 -26 vvcurveto
          -268 vlineto
          11 -6 9 -1 12 2 54 17 77 24 55 -4 rrcurveto
          29 -2 8 -12 -37 vvcurveto
          -235 vlineto
          -63 -17 -14 -77 -9 vhcurveto
          hintmask 11110100
          -59 -7 -17 16 83 vvcurveto
          71 vlineto
          11 -2 7 -16 vhcurveto
          endchar
        </CharString>
        <CharString name="foundryicon">
          465 138 33 -4 30 -18 27 -26 39 -37 30 -1 21 -8 18 9 31 -26 28 -22 22 1 31 hstemhm
          51 38 38 31 18 44 5 43 26 35 42 35 25 33 12 34 21 35 23 35 27 42 6 36 28 36 23 36 45 32 24 33 -15 30 hintmask 10000010001110010100101010100000
          hintmask 00001000000000000100000000000000
          1007 282 rmoveto
          hintmask 00000010000000000100000000000000
          1 -4 -2 1 -5 hhcurveto
          -7 -7 -4 -6 -5 hvcurveto
          hintmask 00000001000000000100000000000000
          6 -8 -11 4 -12 hhcurveto
          -27 -16 -16 -21 hvcurveto
          hintmask 00001001000000001001000000000000
          -12 4 -10 10 -6 vhcurveto
          -9 -8 -5 -10 -12 vvcurveto
          -8 3 -9 7 -5 vhcurveto
          46 -29 27 hlineto
          2 5 4 8 10 vvcurveto
          25 -14 11 -25 vhcurveto
          -18 hlineto
          hintmask 00000010000000000010000000000000
          15 vlineto
          -1 3 4 0 5 hhcurveto
          hintmask 00001000000000000010000000000000
          31 14 17 18 hvcurveto
          hintmask 00001001000000000001000000000000
          1 0 2 -1 2 vhcurveto
          16 hlineto
          -739 hmoveto
          31 -43 -31 9 vlineto
          hintmask 00001001000000001001000000000000
          -11 -42 rlineto
          hintmask 00001001000000010000000000000000
          -5 24 -14 49 rlineto
          -38 -31 10 hlineto
          24 -69 rlineto
          14 hlineto
          -9 -4 -7 -2 -10 hhcurveto
          -17 -26 hlineto
          -4 4 11 -3 11 hhcurveto
          19 16 8 29 8 hvcurveto
          -87 37 rmoveto
          -32 hlineto
          -25 -12 13 24 21 10 15 19 hvcurveto
          hintmask 00000010000000000010000000000000
          3 3 0 -1 3 hvcurveto
          -15 31 40 vlineto
          hintmask 00000010000000000001000000000000
          4 -13 -14 3 -12 hhcurveto
          hintmask 00000010000000000010000000000000
          -45 -23 -28 -43 hvcurveto
          hintmask 00000000100000000100000000000000
          -41 25 -25 41 vhcurveto
          hintmask 00000010000000000100000000000000
          15 15 3 5 11 hvcurveto
          hintmask 00000010000000001000000000000000
          590 -8 rmoveto
          hintmask 00000000100000000100000000000000
          32 19 20 33 hvcurveto
          hintmask 01000001000000000000000001010000
          33 -19 19 -31 -31 -19 -20 -33 -33 18 -19 31 vhcurveto
          -264 98 rmoveto
          -26 25 vlineto
          17 5 -5 -5 hvcurveto
          -1 vlineto
          hintmask 01000000000000000000000000100000
          -16 hlineto
          -28 -11 -12 -18 -20 15 -11 19 9 9 2 6 7 hvcurveto
          -5 4 7 -2 11 hhcurveto
          hintmask 01000000000000000000000001000000
          7 7 1 4 6 hvcurveto
          hintmask 00000100000000000000000001000000
          27 vlineto
          hintmask 00000100000000000000000000100000
          -11 34 hlineto
          24 -15 14 -31 vhcurveto
          hintmask 00000001000000000000000000010000
          -13 -11 -3 -4 -12 hvcurveto
          hintmask 00000100000000000000000001000000
          -52 -65 rmoveto
          hintmask 00000000010000000000000001010000
          -13 -9 3 9 -3 hvcurveto
          55 hlineto
          hintmask 00000100000000000000000000010000
          1 7 1 6 5 vvcurveto
          hintmask 00000100000000000000000001000000
          24 -17 18 -27 vhcurveto
          hintmask 00000001000000100000000000000000
          -33 -16 -22 -32 -32 18 -19 35 12 14 2 5 11 hvcurveto
          26 vlineto
          361 39 rmoveto
          -39 vlineto
          hintmask 00001001000001000000000000000000
          -9 -30 62 30 -17 39 34 hlineto
          hintmask 10000000000001000000000000000000
          31 vlineto
          1 -3 -5 1 -4 hhcurveto
          -6 -5 -2 -3 -4 hvcurveto
          hintmask 10000000000000100000000000000000
          -4 -4 -3 -3 -3 -6 -10 16 rcurveline
          hintmask 00001000001110000000000000000000
          -34 -31 hlineto
          -517 hmoveto
          -39 -10 vlineto
          hintmask 00000001000010000000000000000000
          -30 62 vlineto
          hintmask 00001000001110000000000000000000
          30 -17 39 34 31 vlineto
          hintmask 00100000000000000000001000000000
          1 -3 -4 1 -5 hhcurveto
          hintmask 00100000100000000000000100000000
          -6 -5 -2 -3 -4 hvcurveto
          -4 -4 -3 -3 -3 -6 rrcurveto
          hintmask 00000000100000000000001000000000
          -10 16 rlineto
          hintmask 00100000000000000000001000000000
          -34 hlineto
          hintmask 00100000000000000000000100000000
          -31 vlineto
          hintmask 00100000100000000000001000000000
          307 -43 rmoveto
          -19 9 -9 18 vhcurveto
          hintmask 00000000100000000000000100000000
          8 7 1 3 7 hvcurveto
          hintmask 00100000000000000000000100000000
          28 vlineto
          hintmask 00001000001000000000100000000000
          -14 104 -47 -31 12 hlineto
          62 -86 rmoveto
          -10 7 -9 13 14 8 9 10 11 -8 9 -14 vhcurveto
          hintmask 00001000000000000000010000000000
          -13 -7 -9 -11 hvcurveto
          98 7 rmoveto
          -9 -5 7 19 hvcurveto
          hintmask 00010000000000000000010000000000
          17 5 7 9 vhcurveto
          hintmask 00001000000000000000010000000000
          9 5 -7 -17 hvcurveto
          hintmask 00001001000000000000000010000000
          -19 -5 -7 -9 vhcurveto
          187 41 rmoveto
          10 5 5 7 6 4 -5 -10 -10 -4 -5 -6 -7 -5 5 10 vhcurveto
          -416 -43 rmoveto
          -6 -4 3 6 5 4 4 9 hvcurveto
          8 -15 hlineto
          -3 -4 -3 0 -4 hhcurveto
          -101 54 rmoveto
          9 3 -6 -10 hvcurveto
          -25 hlineto
          11 2 4 5 7 hhcurveto
          endchar
        </CharString>
        <CharString name="four">
          -90 -13 53 117 63 -40 60 hstemhm
          271 114 hintmask 11010000
          hintmask 10110000
          462 183 rmoveto
          3 7 2 18 7 vvcurveto
          10 -3 8 -3 10 vhcurveto
          -76 -6 rlineto
          485 vlineto
          -44 -35 -5 -13 -38 hvcurveto
          hintmask 11010000
          -253 -496 rlineto
          -3 -7 -2 -8 -7 vvcurveto
          -10 3 -18 3 -10 vhcurveto
          255 19 rlineto
          -137 vlineto
          -38 4 -5 63 49 40 8 11 39 vhcurveto
          2 5 1 6 5 vvcurveto
          7 -2 6 -2 7 vhcurveto
          -69 -2 rlineto
          -6 -5 11 44 hvcurveto
          hintmask 10110000
          82 vlineto
          -111 427 rmoveto
          2 hlineto
          -5 -105 rlineto
          hintmask 11010000
          -271 vlineto
          -175 -14 141 294 rlineto
          endchar
        </CharString>
        <CharString name="foursuperior">
          -241 289 32 65 43 -29 40 hstemhm
          176 82 hintmask 11010000
          hintmask 10110000
          304 402 rmoveto
          2 4 1 10 4 vvcurveto
          6 -2 10 -2 6 vhcurveto
          -45 -4 rlineto
          289 vlineto
          -26 -35 -3 -7 -22 hvcurveto
          hintmask 11010000
          -160 -296 rlineto
          -2 -4 -1 -10 -4 vvcurveto
          -6 2 -10 1 -6 vhcurveto
          161 11 rlineto
          -77 vlineto
          -23 13 -3 37 30 27 5 7 23 vhcurveto
          1 3 1 3 3 vvcurveto
          4 -1 4 -1 4 vhcurveto
          -42 -1 rlineto
          -3 -3 6 27 hvcurveto
          hintmask 10110000
          44 vlineto
          -78 247 rmoveto
          -2 -26 -2 -26 -26 vvcurveto
          hintmask 11010000
          -134 vlineto
          -100 -7 79 152 rlineto
          hintmask 10110000
          9 20 8 24 7 23 rrcurveto
          endchar
        </CharString>
        <CharString name="fraction">
          -201 -48 814 hstem
          -10 410 vstem
          400 736 rmoveto
          -12 18 -18 10 -26 2 -354 -785 rcurveline
          15 -18 18 -9 23 -2 rrcurveto
          endchar
        </CharString>
        <CharString name="g">
          -31 -230 52 165 60 425 42 hstem
          66 114 196 114 vstem
          98 -230 rmoveto
          113 87 4 22 104 hvcurveto
          59 12 29 29 58 vvcurveto
          511 vlineto
          85 -33 23 -97 -198 -96 -26 -85 vhcurveto
          -340 vlineto
          -54 27 -22 74 67 65 22 21 77 vhcurveto
          -127 vlineto
          -52 0 -29 -283 vhcurveto
          -3 -8 -1 -11 -7 vvcurveto
          -9 5 -10 4 -7 vhcurveto
          82 629 rmoveto
          48 15 25 123 43 15 -17 -61 vhcurveto
          -319 vlineto
          -15 -54 -48 -13 -38 hhcurveto
          -33 -23 10 31 hvcurveto
          endchar
        </CharString>
        <CharString name="germandbls">
          -74 -241 45 183 47 -20 -21 399 29 251 43 hstemhm
          72 114 136 114 -92 114 hintmask 11001101
          186 598 rmoveto
          57 3 35 17 49 hhcurveto
          hintmask 11011110
          38 11 -21 -57 hvcurveto
          -63 vlineto
          -40 -12 -47 -77 -7 vhcurveto
          -3 -7 -2 -8 -6 vvcurveto
          -9 2 -8 4 -7 vhcurveto
          hintmask 11011101
          16 hlineto
          52 42 -18 -36 hvcurveto
          -236 vlineto
          -45 -10 -23 -73 -13 -21 1 3 -18 vhcurveto
          hintmask 10101101
          -2 -8 -2 -7 -7 vvcurveto
          -8 2 -8 3 -7 vhcurveto
          hintmask 11011101
          -4 30 28 -2 38 hhcurveto
          103 49 34 79 hvcurveto
          214 vlineto
          74 -62 33 -78 vhcurveto
          2 vlineto
          hintmask 11001110
          68 16 50 45 51 vvcurveto
          81 vlineto
          74 -34 25 -86 -71 -173 -6 -107 vhcurveto
          -728 vlineto
          -48 -11 -22 -58 vhcurveto
          -3 -6 -1 -8 -6 vvcurveto
          -9 2 -7 3 -9 vhcurveto
          112 70 2 109 hvcurveto
          endchar
        </CharString>
        <CharString name="grave">
          -313 562 174 hstem
          22 200 vstem
          94 728 rmoveto
          -11 11 -8 -3 -3 -1 -24 -14 -21 -28 -5 -25 -1 -4 2 -6 11 -9 47 -34 53 -30 51 -22 6 -1 6 -2 5 4 10 6 5 9 5 12 1 3 0 3 -5 4 -42 39 -41 40 -41 48 rrcurveto
          endchar
        </CharString>
        <CharString name="grave.case">
          -313 751 174 hstem
          22 200 vstem
          94 917 rmoveto
          -11 11 -8 -3 -3 -1 -24 -14 -21 -28 -5 -25 -1 -4 2 -6 11 -9 47 -34 53 -30 51 -22 6 -1 6 -2 5 4 10 6 5 9 5 12 1 3 0 3 -5 4 -42 39 -41 40 -41 48 rrcurveto
          endchar
        </CharString>
        <CharString name="greater">
          -207 510 -20 74 -20 hstem
          35 295 vstem
          325 307 rmoveto
          6 12 1 17 -6 14 -235 214 rcurveline
          -22 -9 -18 -17 -10 -28 194 -177 rcurveline
          -200 -156 5 -24 17 -22 27 -12 rlinecurve
          endchar
        </CharString>
        <CharString name="guillemotleft">
          -99 568 -20 hstem
          39 406 vstem
          131 334 rmoveto
          112 193 -13 30 -23 15 -34 -4 rlinecurve
          -134 -234 134 -233 36 -4 22 16 12 28 rlinecurve
          90 193 rmoveto
          112 193 -13 30 -23 15 -34 -4 rlinecurve
          -134 -234 134 -233 36 -4 22 16 12 28 rlinecurve
          endchar
        </CharString>
        <CharString name="guillemotright">
          -99 568 -20 hstem
          47 406 vstem
          249 141 rmoveto
          12 -28 22 -16 36 4 134 233 rcurveline
          -134 234 -34 4 -23 -15 -13 -30 rlinecurve
          112 -193 rlineto
          -314 -193 rmoveto
          12 -28 22 -16 36 4 134 233 rcurveline
          -134 234 -34 4 -23 -15 -13 -30 rlinecurve
          112 -193 rlineto
          endchar
        </CharString>
        <CharString name="guilsinglleft">
          -301 568 -20 hstem
          39 204 vstem
          131 334 rmoveto
          112 193 -13 30 -23 15 -34 -4 rlinecurve
          -134 -234 134 -233 36 -4 22 16 12 28 rlinecurve
          endchar
        </CharString>
        <CharString name="guilsinglright">
          -301 568 -20 hstem
          47 204 vstem
          47 141 rmoveto
          12 -28 22 -16 36 4 134 233 rcurveline
          -134 234 -34 4 -23 -15 -13 -30 rlinecurve
          112 -193 rlineto
          endchar
        </CharString>
        <CharString name="h">
          -9 -13 53 414 60 146 34 -34 53 hstemhm
          72 114 191 114 hintmask 11101100
          572 6 rmoveto
          2 6 1 5 6 vvcurveto
          7 -1 6 -3 6 vhcurveto
          -69 -2 rlineto
          -6 -5 11 44 hvcurveto
          343 vlineto
          54 -27 22 -74 -65 -65 -22 -21 -74 vhcurveto
          hintmask 11011100
          199 vlineto
          38 -3 5 -57 vhcurveto
          hintmask 11101100
          -49 -47 -8 -11 -39 hvcurveto
          -2 -6 -1 -5 -6 vvcurveto
          -7 1 -6 3 -6 vhcurveto
          69 2 rlineto
          6 5 -11 -44 hvcurveto
          -601 vlineto
          -10 6 -7 11 30 28 4 7 23 vhcurveto
          13 5 3 8 7 vvcurveto
          407 vlineto
          12 43 53 17 39 hhcurveto
          33 23 -11 -30 hvcurveto
          -383 vlineto
          -38 3 -5 57 49 47 8 11 39 vhcurveto
          endchar
        </CharString>
        <CharString name="hyphen">
          -248 268 94 hstem
          64 218 vstem
          276 274 rmoveto
          4 18 2 16 15 vvcurveto
          16 -3 14 -5 15 vhcurveto
          -204 -12 rlineto
          -4 -16 -2 -15 -14 vvcurveto
          -15 3 -18 5 -16 vhcurveto
          endchar
        </CharString>
        <CharString name="i">
          -13 55 419 53 82 117 hstemhm
          74 114 -94 114 hintmask 11101000
          289 6 rmoveto
          2 6 1 5 6 vvcurveto
          7 -1 6 -3 6 vhcurveto
          -70 hlineto
          -5 -5 12 41 hvcurveto
          376 vlineto
          38 -3 5 -57 -49 -47 -8 -11 -39 vhcurveto
          -2 -6 -1 -5 -6 vvcurveto
          -7 1 -6 3 -6 vhcurveto
          69 2 rlineto
          6 5 -11 -44 hvcurveto
          -376 vlineto
          -38 3 -5 57 49 47 8 11 39 vhcurveto
          hintmask 11110000
          -215 622 rmoveto
          -23 3 -9 13 vhcurveto
          78 3 rlineto
          18 3 2 7 21 vvcurveto
          51 vlineto
          23 -3 9 -13 vhcurveto
          -78 -3 rlineto
          -18 -3 -2 -7 -21 vvcurveto
          endchar
        </CharString>
        <CharString name="iacute">
          -13 53 421 53 hstem
          94 114 vstem
          289 6 rmoveto
          2 6 1 5 6 vvcurveto
          7 -1 6 -3 6 vhcurveto
          -69 -2 rlineto
          -6 -5 11 44 hvcurveto
          376 vlineto
          38 -3 5 -57 -49 -47 -8 -11 -39 vhcurveto
          -2 -6 -1 -5 -6 vvcurveto
          -7 1 -6 3 -6 vhcurveto
          69 2 rlineto
          6 5 -11 -44 hvcurveto
          -376 vlineto
          -38 3 -5 57 49 47 8 11 39 vhcurveto
          -90 722 rmoveto
          -41 -48 -41 -40 -42 -39 -5 -4 0 -3 1 -3 5 -12 5 -9 10 -6 5 -4 6 2 6 1 51 22 53 30 47 34 11 9 2 6 -1 4 -5 25 -21 28 -24 14 -3 1 -8 3 -11 -11 rrcurveto
          endchar
        </CharString>
        <CharString name="icircumflex">
          -13 53 421 53 hstem
          94 114 vstem
          289 6 rmoveto
          2 6 1 5 6 vvcurveto
          7 -1 6 -3 6 vhcurveto
          -69 -2 rlineto
          -6 -5 11 44 hvcurveto
          376 vlineto
          38 -3 5 -57 -49 -47 -8 -11 -39 vhcurveto
          -2 -6 -1 -5 -6 vvcurveto
          -7 1 -6 3 -6 vhcurveto
          69 2 rlineto
          6 5 -11 -44 hvcurveto
          -376 vlineto
          -38 3 -5 57 49 47 8 11 39 vhcurveto
          -169 733 rmoveto
          -7 -20 -2 -6 -7 hvcurveto
          -121 -131 -4 -4 5 -6 3 -4 rlinecurve
          -6 5 22 -12 8 hhcurveto
          8 4 4 85 102 hvcurveto
          -85 108 3 -2 7 hhcurveto
          8 27 12 6 5 hvcurveto
          3 4 0 6 -4 4 -38 43 -37 40 -46 46 rrcurveto
          7 -7 -20 1 -7 hhcurveto
          endchar
        </CharString>
        <CharString name="idieresis">
          -13 53 421 53 86 105 hstemhm
          1 105 -12 114 -30 105 hintmask 11101000
          289 6 rmoveto
          2 6 1 5 6 vvcurveto
          7 -1 6 -3 6 vhcurveto
          -69 -2 rlineto
          -6 -5 11 44 hvcurveto
          376 vlineto
          38 -3 5 -57 -49 -47 -8 -11 -39 vhcurveto
          -2 -6 -1 -5 -6 vvcurveto
          -7 1 -6 3 -6 vhcurveto
          69 2 rlineto
          6 5 -11 -44 hvcurveto
          -376 vlineto
          -38 3 -5 57 49 47 8 11 39 vhcurveto
          hintmask 11110100
          -288 624 rmoveto
          -21 2 -9 12 vhcurveto
          72 4 rlineto
          17 2 2 7 18 vvcurveto
          48 vlineto
          22 -2 8 -15 vhcurveto
          -70 -4 rlineto
          -17 -2 -1 -7 -18 vvcurveto
          177 -48 rmoveto
          -21 2 -9 12 vhcurveto
          73 4 rlineto
          16 2 2 7 18 vvcurveto
          48 vlineto
          22 -2 8 -14 vhcurveto
          -70 -4 rlineto
          -18 -2 -1 -7 -18 vvcurveto
          endchar
        </CharString>
        <CharString name="igrave">
          -13 53 421 53 hstem
          94 114 vstem
          289 6 rmoveto
          2 6 1 5 6 vvcurveto
          7 -1 6 -3 6 vhcurveto
          -69 -2 rlineto
          -6 -5 11 44 hvcurveto
          376 vlineto
          38 -3 5 -57 -49 -47 -8 -11 -39 vhcurveto
          -2 -6 -1 -5 -6 vvcurveto
          -7 1 -6 3 -6 vhcurveto
          69 2 rlineto
          6 5 -11 -44 hvcurveto
          -376 vlineto
          -38 3 -5 57 49 47 8 11 39 vhcurveto
          -226 722 rmoveto
          -11 11 -8 -3 -3 -1 -24 -14 -21 -28 -5 -25 -1 -4 2 -6 11 -9 47 -34 53 -30 51 -22 6 -1 6 -2 5 4 10 6 5 9 5 12 1 3 0 3 -5 4 -42 39 -41 40 -41 48 rrcurveto
          endchar
        </CharString>
        <CharString name="j">
          -306 -241 45 657 53 82 117 hstemhm
          74 114 -89 114 hintmask 11101000
          88 461 rmoveto
          6 5 -11 -44 hvcurveto
          -532 vlineto
          -48 -19 -22 -90 vhcurveto
          -3 -6 -1 -8 -6 vvcurveto
          -9 2 -7 3 -9 vhcurveto
          88 134 16 95 hvcurveto
          601 vlineto
          38 -3 5 -57 -49 -47 -8 -11 -39 vhcurveto
          -2 -6 -1 -5 -6 vvcurveto
          -7 1 -6 3 -6 vhcurveto
          hintmask 11110000
          55 169 rmoveto
          -23 3 -9 13 vhcurveto
          78 3 rlineto
          18 3 2 7 21 vvcurveto
          51 vlineto
          23 -3 9 -13 vhcurveto
          -78 -3 rlineto
          -18 -3 -2 -7 -21 vvcurveto
          endchar
        </CharString>
        <CharString name="k">
          -46 -13 53 173 46 195 60 146 34 -34 53 hstemhm
          72 114 179 114 hintmask 11110110
          61 660 rmoveto
          6 5 -11 -44 hvcurveto
          -601 vlineto
          -10 6 -7 11 30 28 4 7 23 vhcurveto
          13 5 3 8 7 vvcurveto
          195 vlineto
          23 1 28 1 23 3 73 -188 rcurveline
          -38 18 -13 -5 57 hhcurveto
          49 47 8 11 39 hvcurveto
          2 5 1 6 5 vvcurveto
          7 -2 6 -2 7 vhcurveto
          -69 -2 rlineto
          -10 -7 11 44 -18 hvcurveto
          -54 137 20 4 rlineto
          59 13 29 28 58 vvcurveto
          103 vlineto
          54 -27 22 -74 -67 -48 -17 -21 -77 vhcurveto
          hintmask 11101110
          194 vlineto
          38 -3 5 -57 vhcurveto
          hintmask 11110110
          -49 -47 -8 -11 -39 hvcurveto
          -2 -6 -1 -5 -6 vvcurveto
          -7 1 -6 3 -6 vhcurveto
          194 -228 rmoveto
          12 45 37 12 41 hhcurveto
          33 23 -11 -30 hvcurveto
          -74 vlineto
          -47 -16 -8 -51 -11 vhcurveto
          -33 -7 -41 -5 -38 -2 rrcurveto
          endchar
        </CharString>
        <CharString name="l">
          -300 -13 53 620 34 -34 53 hstemhm
          83 114 hintmask 11010000
          278 6 rmoveto
          2 6 1 5 6 vvcurveto
          7 -1 6 -3 6 vhcurveto
          -69 -2 rlineto
          -6 -5 11 44 hvcurveto
          hintmask 10110000
          575 vlineto
          38 -3 5 -57 vhcurveto
          hintmask 11010000
          -49 -47 -8 -11 -39 hvcurveto
          -2 -6 -1 -5 -6 vvcurveto
          -7 1 -6 3 -6 vhcurveto
          69 2 rlineto
          6 5 -11 -44 hvcurveto
          -575 vlineto
          -38 3 -5 57 49 47 8 11 39 vhcurveto
          endchar
        </CharString>
        <CharString name="less">
          -207 564 -20 hstem
          39 295 vstem
          285 119 rmoveto
          27 12 17 22 5 24 -200 156 rcurveline
          194 177 -10 28 -18 17 -22 9 rlinecurve
          -235 -214 -6 -14 1 -17 6 -12 rlinecurve
          endchar
        </CharString>
        <CharString name="logicalnot">
          -107 327 80 hstem
          325 85 vstem
          327 190 rmoveto
          -3 13 11 -2 12 hhcurveto
          16 17 3 6 17 hvcurveto
          -4 223 -346 -18 rlineto
          -4 -12 -4 -13 -11 vvcurveto
          -13 5 -16 5 -13 vhcurveto
          259 13 rlineto
          endchar
        </CharString>
        <CharString name="m">
          318 -13 53 414 60 -53 53 hstemhm
          94 114 191 114 191 114 cntrmask 00011100
          hintmask 11011100
          208 425 rmoveto
          12 43 54 17 38 hhcurveto
          33 23 -11 -30 hvcurveto
          -409 vlineto
          -10 6 -7 11 30 28 4 7 23 vhcurveto
          13 5 3 8 7 vvcurveto
          407 vlineto
          12 43 54 17 38 hhcurveto
          33 23 -11 -30 hvcurveto
          -383 vlineto
          -38 3 -5 57 49 47 8 11 39 vhcurveto
          1 6 2 5 6 vvcurveto
          7 -2 6 -2 6 vhcurveto
          -69 -2 rlineto
          -11 0 11 44 hvcurveto
          343 vlineto
          54 -27 22 -74 -65 -71 -24 -21 -73 vhcurveto
          31 -10 -29 14 -57 hhcurveto
          -65 -65 -22 -21 -74 hvcurveto
          38 -3 5 -57 -49 -47 -8 -11 -39 vhcurveto
          hintmask 10111100
          -2 -6 -1 -5 -6 vvcurveto
          -7 1 -6 3 -6 vhcurveto
          69 2 rlineto
          6 5 -11 -44 hvcurveto
          -402 vlineto
          -10 6 -7 11 30 28 4 7 23 vhcurveto
          13 5 3 8 7 vvcurveto
          endchar
        </CharString>
        <CharString name="macron">
          -192 740 75 hstem
          0 399 vstem
          395 747 rmoveto
          3 13 1 12 12 vvcurveto
          12 -2 13 -3 13 vhcurveto
          -87 -4 -215 -6 -87 -4 rrcurveto
          -3 -10 -2 -12 -10 vvcurveto
          -14 2 -14 4 -15 vhcurveto
          endchar
        </CharString>
        <CharString name="minus">
          -28 298 79 hstem
          68 427 vstem
          489 309 rmoveto
          4 12 2 12 12 vvcurveto
          14 -3 14 -5 15 vhcurveto
          -412 -22 rlineto
          -4 -13 -3 -13 -12 vvcurveto
          -12 4 -15 5 -14 vhcurveto
          endchar
        </CharString>
        <CharString name="mu">
          16 -220 -21 228 55 472 -20 hstem
          73 114 196 114 vstem
          187 497 rmoveto
          10 -6 7 -11 -30 -28 -4 -7 -23 vhcurveto
          -13 -5 -3 -8 -7 vvcurveto
          -437 vlineto
          -99 2 -84 15 -87 vhcurveto
          -10 6 -7 11 30 28 4 7 23 vhcurveto
          13 5 3 8 7 vvcurveto
          -54 145 -13 36 -6 26 -4 41 rlinecurve
          5 hlineto
          -43 33 42 -8 29 hhcurveto
          61 33 13 34 53 hvcurveto
          -37 3 -10 57 49 47 8 11 39 vhcurveto
          2 6 1 5 6 vvcurveto
          7 -1 6 -3 6 vhcurveto
          -69 -2 rlineto
          -6 -5 11 44 hvcurveto
          402 vlineto
          10 -6 7 -11 -30 -28 -4 -7 -23 vhcurveto
          -13 -5 -3 -8 -7 vvcurveto
          -403 vlineto
          -26 -61 -42 -12 -30 hhcurveto
          -30 -19 12 25 -14 hvcurveto
          endchar
        </CharString>
        <CharString name="multiply">
          -95 517 -20 hstem
          61 369 vstem
          377 156 rmoveto
          12 5 10 8 8 8 10 10 7 12 6 16 -135 127 rcurveline
          126 134 -5 10 -8 9 -8 8 rlinecurve
          -9 9 -11 9 -12 6 -123 -135 rcurveline
          -130 125 -10 -7 -8 -6 -8 -8 rlinecurve
          -11 -10 -10 -14 -7 -13 133 -123 rcurveline
          -121 -134 6 -11 9 -10 8 -8 rlinecurve
          9 -9 9 -6 13 -7 36 39 47 53 36 38 rrcurveto
          endchar
        </CharString>
        <CharString name="n">
          20 -13 53 414 60 -53 53 hstemhm
          94 114 198 114 hintmask 10111000
          hintmask 11011000
          208 426 rmoveto
          12 45 56 16 41 hhcurveto
          33 23 -11 -30 hvcurveto
          -383 vlineto
          -38 3 -5 57 49 47 8 11 39 vhcurveto
          2 6 1 5 6 vvcurveto
          7 -1 6 -3 6 vhcurveto
          -69 -2 rlineto
          -6 -5 11 44 hvcurveto
          hintmask 10111000
          343 vlineto
          54 -27 22 -74 -67 -67 -22 -21 -77 vhcurveto
          38 -3 5 -57 -49 -47 -8 -11 -39 vhcurveto
          -2 -6 -1 -5 -6 vvcurveto
          -7 1 -6 3 -6 vhcurveto
          69 2 rlineto
          6 5 -11 -44 hvcurveto
          -402 vlineto
          -10 6 -7 11 30 28 4 7 23 vhcurveto
          13 5 3 8 7 vvcurveto
          endchar
        </CharString>
        <CharString name="nbspace">
          -363 endchar
        </CharString>
        <CharString name="nine">
          -62 -13 52 -27 -21 229 57 385 52 hstemhm
          55 114 170 114 hintmask 10111100
          55 359 rmoveto
          -91 25 -48 86 55 64 13 16 54 vhcurveto
          -122 vlineto
          -33 -8 -27 -42 -11 vhcurveto
          -12 -47 -34 -5 -51 hhcurveto
          -26 -16 0 2 -17 hvcurveto
          hintmask 01111100
          -3 -7 -2 -8 -7 vvcurveto
          -10 3 -8 3 -10 vhcurveto
          hintmask 10111100
          -3 28 28 -1 27 hhcurveto
          139 132 32 103 hvcurveto
          457 vlineto
          100 -33 35 -107 -175 -83 -32 -106 vhcurveto
          114 8 rmoveto
          63 19 10 73 5 vhcurveto
          68 5 10 -24 -78 vvcurveto
          -268 vlineto
          -12 -33 -47 -8 -31 hhcurveto
          -44 -15 12 64 hvcurveto
          endchar
        </CharString>
        <CharString name="noBreak">
          -331 endchar
        </CharString>
        <CharString name="nonmarkingreturn">
          -591 endchar
        </CharString>
        <CharString name="ntilde">
          20 -13 53 414 60 -53 53 71 72 -19 69 -15 -20 hstemhm
          94 114 198 114 hintmask 10101011
          hintmask 11001011
          208 426 rmoveto
          12 45 56 16 41 hhcurveto
          33 23 -11 -30 hvcurveto
          -383 vlineto
          -38 3 -5 57 49 47 8 11 39 vhcurveto
          2 6 1 5 6 vvcurveto
          7 -1 6 -3 6 vhcurveto
          -69 -2 rlineto
          -6 -5 11 44 hvcurveto
          hintmask 10101011
          343 vlineto
          54 -27 22 -74 -67 -67 -22 -21 -77 vhcurveto
          38 -3 5 -57 -49 -47 -8 -11 -39 vhcurveto
          -2 -6 -1 -5 -6 vvcurveto
          -7 1 -6 3 -6 vhcurveto
          69 2 rlineto
          6 5 -11 -44 hvcurveto
          -402 vlineto
          -10 6 -7 11 30 28 4 7 23 vhcurveto
          13 5 3 8 7 vvcurveto
          -46 574 rmoveto
          17 18 18 29 35 42 29 -53 48 hhcurveto
          hintmask 10110111
          59 47 53 19 2 hvcurveto
          2 16 -6 9 -9 7 -8 7 -5 -4 -9 -9 rrcurveto
          -15 -15 -20 -11 -22 -42 -30 50 -59 hhcurveto
          hintmask 10101011
          -53 -42 -49 -25 -10 hvcurveto
          -2 -5 -1 -8 1 -4 3 -9 7 -7 8 -8 5 -5 5 1 4 4 rrcurveto
          endchar
        </CharString>
        <CharString name="numbersign">
          17 6 -21 26 -21 29 -21 196 64 -46 65 -47 64 111 64 -46 64 -46 69 173 20 -5 -20 hstemhm
          141 78 -67 78 -66 78 124 78 -67 78 -66 78 hintmask 001010001101001000000000
          hintmask 100010001101001000000000
          361 5 rmoveto
          hintmask 001001001101001000000000
          -5 10 11 -2 10 hhcurveto
          16 15 5 7 16 hvcurveto
          10 215 113 10 rlineto
          2 8 0 7 8 vvcurveto
          hintmask 001001001101000100000000
          15 -3 14 -6 12 vhcurveto
          -103 -9 7 146 114 10 rlineto
          2 8 0 7 8 vvcurveto
          hintmask 001010001101000010000000
          15 -3 14 -6 12 vhcurveto
          -104 -9 10 202 rlineto
          3 -11 -12 2 -11 hhcurveto
          hintmask 001010010010010010000000
          -15 -14 -3 -7 -15 hvcurveto
          -10 -204 -147 -13 rlineto
          hintmask 001010100100011000000000
          10 202 rlineto
          3 -11 -12 2 -11 hhcurveto
          -15 -14 -3 -7 -15 hvcurveto
          -10 -204 -112 -9 rlineto
          -2 -8 -1 -9 -8 vvcurveto
          hintmask 001100100100101000000000
          -13 2 -13 6 -13 vhcurveto
          104 9 -7 -146 -113 -10 rlineto
          -2 -8 -1 -9 -8 vvcurveto
          hintmask 100100001101001000000000
          -13 2 -13 6 -13 vhcurveto
          105 9 -10 -214 rlineto
          hintmask 010010001101001000000000
          -5 10 11 -2 10 hhcurveto
          16 15 5 7 16 hvcurveto
          10 216 147 12 rlineto
          hintmask 001010010100100100000000
          -137 199 rmoveto
          147 12 -7 -146 -147 -12 rlineto
          endchar
        </CharString>
        <CharString name="o">
          -37 -12 43 441 42 hstem
          65 114 196 114 vstem
          489 406 rmoveto
          85 -33 23 -97 -198 -96 -26 -85 vhcurveto
          -306 vlineto
          -86 35 -23 97 198 94 27 84 vhcurveto
          -114 4 rmoveto
          -47 -15 -25 -121 -48 -12 17 60 vhcurveto
          291 vlineto
          48 15 25 123 43 15 -17 -61 vhcurveto
          endchar
        </CharString>
        <CharString name="oacute">
          -37 -12 43 441 42 hstem
          65 114 196 114 vstem
          489 406 rmoveto
          85 -33 23 -97 -198 -96 -26 -85 vhcurveto
          -306 vlineto
          -86 35 -23 97 198 94 27 84 vhcurveto
          -114 4 rmoveto
          -47 -15 -25 -121 -48 -12 17 60 vhcurveto
          291 vlineto
          48 15 25 123 43 15 -17 -61 vhcurveto
          -20 334 rmoveto
          -41 -48 -41 -40 -42 -39 -5 -4 0 -3 1 -3 5 -12 5 -9 10 -6 5 -4 6 2 6 1 51 22 53 30 47 34 11 9 2 6 -1 4 -5 25 -21 28 -24 14 -3 1 -8 3 -11 -11 rrcurveto
          endchar
        </CharString>
        <CharString name="ocircumflex">
          -37 -12 43 441 42 hstem
          65 114 196 114 vstem
          489 406 rmoveto
          85 -33 23 -97 -198 -96 -26 -85 vhcurveto
          -306 vlineto
          -86 35 -23 97 198 94 27 84 vhcurveto
          -114 4 rmoveto
          -47 -15 -25 -121 -48 -12 17 60 vhcurveto
          291 vlineto
          48 15 25 123 43 15 -17 -61 vhcurveto
          -99 345 rmoveto
          -7 -20 -2 -6 -7 hvcurveto
          -121 -131 -4 -4 5 -6 3 -4 rlinecurve
          -6 5 22 -12 8 hhcurveto
          8 4 4 85 102 hvcurveto
          -85 108 3 -2 7 hhcurveto
          8 27 12 6 5 hvcurveto
          3 4 0 6 -4 4 -38 43 -37 40 -46 46 rrcurveto
          7 -7 -20 1 -7 hhcurveto
          endchar
        </CharString>
        <CharString name="odieresis">
          -37 -12 43 441 42 86 105 hstemhm
          65 114 -43 105 72 105 -43 114 hintmask 11110010
          489 406 rmoveto
          85 -33 23 -97 -198 -96 -26 -85 vhcurveto
          -306 vlineto
          -86 35 -23 97 198 94 27 84 vhcurveto
          -114 4 rmoveto
          -47 -15 -25 -121 -48 -12 17 60 vhcurveto
          291 vlineto
          48 15 25 123 43 15 -17 -61 vhcurveto
          hintmask 11101100
          -239 236 rmoveto
          -21 2 -9 12 vhcurveto
          72 4 rlineto
          17 2 2 7 18 vvcurveto
          48 vlineto
          22 -2 8 -15 vhcurveto
          -70 -4 rlineto
          -17 -2 -1 -7 -18 vvcurveto
          177 -48 rmoveto
          -21 2 -9 12 vhcurveto
          73 4 rlineto
          16 2 2 7 18 vvcurveto
          48 vlineto
          22 -2 8 -14 vhcurveto
          -70 -4 rlineto
          -18 -2 -1 -7 -18 vvcurveto
          endchar
        </CharString>
        <CharString name="oe">
          234 -13 50 -49 43 182 46 213 42 hstemhm
          65 114 196 114 176 114 hintmask 01011110
          hintmask 10111110
          771 67 rmoveto
          -6 -21 -119 -24 -68 hhcurveto
          -57 -17 11 51 hvcurveto
          114 vlineto
          67 4 67 8 68 11 rrcurveto
          59 13 29 28 58 vvcurveto
          71 vlineto
          85 -33 23 -97 -84 -63 -6 -14 -45 vhcurveto
          15 -21 -32 5 -45 hhcurveto
          -198 -96 -26 -85 hvcurveto
          -306 vlineto
          hintmask 01011110
          -86 35 -23 97 86 67 5 12 48 vhcurveto
          -12 17 26 -6 37 hhcurveto
          102 94 9 26 98 hvcurveto
          hintmask 10011110
          3 6 1 8 6 vvcurveto
          hintmask 10111110
          9 0 7 -5 9 vhcurveto
          hintmask 01111110
          -396 36 rmoveto
          -47 -15 -25 -121 -48 -12 17 60 vhcurveto
          291 vlineto
          48 15 25 123 43 15 -17 -61 vhcurveto
          114 5 rmoveto
          48 13 25 105 42 16 -16 -57 vhcurveto
          -61 vlineto
          -46 -17 -8 -50 -11 vhcurveto
          -32 -7 -40 -4 -37 -3 rrcurveto
          endchar
        </CharString>
        <CharString name="ograve">
          -37 -12 43 441 42 hstem
          65 114 196 114 vstem
          489 406 rmoveto
          85 -33 23 -97 -198 -96 -26 -85 vhcurveto
          -306 vlineto
          -86 35 -23 97 198 94 27 84 vhcurveto
          -114 4 rmoveto
          -47 -15 -25 -121 -48 -12 17 60 vhcurveto
          291 vlineto
          48 15 25 123 43 15 -17 -61 vhcurveto
          -166 334 rmoveto
          -11 11 -8 -3 -3 -1 -24 -14 -21 -28 -5 -25 -1 -4 2 -6 11 -9 47 -34 53 -30 51 -22 6 -1 6 -2 5 4 10 6 5 9 5 12 1 3 0 3 -5 4 -42 39 -41 40 -41 48 rrcurveto
          endchar
        </CharString>
        <CharString name="one">
          -255 -13 53 620 34 -34 53 hstemhm
          122 114 hintmask 11010000
          317 6 rmoveto
          2 6 1 5 6 vvcurveto
          7 -1 6 -3 6 vhcurveto
          -69 -2 rlineto
          -6 -5 11 44 hvcurveto
          hintmask 10110000
          575 vlineto
          38 -3 5 -57 -61 -56 -8 -11 -48 vhcurveto
          hintmask 11010000
          -2 -6 -1 -5 -6 vvcurveto
          -7 1 -6 3 -6 vhcurveto
          99 2 rlineto
          6 5 -11 -44 hvcurveto
          -575 vlineto
          -38 3 -5 57 49 47 8 11 39 vhcurveto
          endchar
        </CharString>
        <CharString name="onehalf">
          201 4 46 239 42 59 43 247 41 hstemhm
          86 88 313 77 95 79 -57 85 hintmask 11111110
          559 736 rmoveto
          -12 18 -19 10 -25 2 -354 -785 rcurveline
          15 -17 18 -10 23 -2 rrcurveto
          484 252 rmoveto
          32 39 16 38 1 39 rrcurveto
          33 vlineto
          55 -25 27 -51 -2 vhcurveto
          -55 -3 -36 -3 -36 -12 rrcurveto
          -36 -11 -12 -22 -31 vvcurveto
          -68 vlineto
          -7 3 -3 7 45 22 6 13 vhcurveto
          51 vlineto
          36 12 8 40 3 vhcurveto
          32 3 11 -7 -43 vvcurveto
          -35 vlineto
          -33 -44 -62 -69 -85 vhcurveto
          -35 -43 -22 -27 -9 -13 rrcurveto
          -15 3 -14 6 -12 vhcurveto
          hintmask 11111101
          185 92 22 44 hvcurveto
          55 vlineto
          7 -3 3 -7 -30 -22 -2 -5 -13 vhcurveto
          -7 -3 -3 -4 -5 vvcurveto
          -40 vlineto
          -17 -28 -5 -92 -4 vhcurveto
          -339 251 rmoveto
          1 3 1 8 4 vvcurveto
          4 -1 8 -1 4 vhcurveto
          -41 -1 rlineto
          -4 -3 6 27 hvcurveto
          332 vlineto
          22 -6 3 -34 -36 -40 -4 -7 -28 vhcurveto
          -1 -4 -1 -8 -3 vvcurveto
          -4 1 -9 1 -3 vhcurveto
          49 1 rlineto
          4 3 -7 -26 hvcurveto
          -332 vlineto
          -23 2 -3 34 29 48 5 7 23 vhcurveto
          endchar
        </CharString>
        <CharString name="onequarter">
          151 0 32 65 43 -29 40 138 42 349 41 hstemhm
          86 88 400 82 hintmask 11011110
          hintmask 10111110
          559 736 rmoveto
          -12 18 -18 10 -26 2 -354 -785 rcurveline
          15 -18 18 -9 23 -2 rrcurveto
          17 349 rmoveto
          1 3 1 8 4 vvcurveto
          hintmask 11011110
          4 -1 8 -1 4 vhcurveto
          -41 -1 rlineto
          -4 -3 6 27 hvcurveto
          332 vlineto
          22 -6 3 -34 -36 -40 -4 -7 -28 vhcurveto
          -1 -4 -1 -8 -3 vvcurveto
          -4 1 -9 1 -3 vhcurveto
          49 1 rlineto
          4 3 -7 -26 hvcurveto
          -332 vlineto
          hintmask 10111110
          -23 2 -3 34 29 48 5 7 23 vhcurveto
          480 -188 rmoveto
          hintmask 11011110
          2 4 1 10 4 vvcurveto
          6 -2 10 -2 6 vhcurveto
          -45 -4 rlineto
          hintmask 10111110
          289 vlineto
          -26 -35 -3 -7 -22 hvcurveto
          -160 -296 rlineto
          -2 -4 -1 -10 -4 vvcurveto
          -6 2 -10 1 -6 vhcurveto
          hintmask 11011110
          161 11 rlineto
          -77 vlineto
          -23 13 -3 37 30 27 5 7 23 vhcurveto
          1 3 1 3 3 vvcurveto
          4 -1 4 -1 4 vhcurveto
          -42 -1 rlineto
          -3 -3 6 27 hvcurveto
          44 vlineto
          -78 247 rmoveto
          -2 -26 -2 -26 -26 vvcurveto
          -134 vlineto
          -100 -7 79 152 9 20 8 24 7 23 rlinecurve
          endchar
        </CharString>
        <CharString name="onesuperior">
          -347 289 42 349 41 hstem
          81 88 vstem
          217 301 rmoveto
          1 3 1 8 4 vvcurveto
          4 -1 8 -1 4 vhcurveto
          -41 -1 rlineto
          -4 -3 6 27 hvcurveto
          332 vlineto
          22 -6 3 -34 -36 -40 -4 -7 -28 vhcurveto
          -1 -4 -1 -8 -3 vvcurveto
          -4 1 -9 1 -3 vhcurveto
          49 1 rlineto
          4 3 -7 -26 hvcurveto
          -332 vlineto
          -23 2 -3 34 29 48 5 7 23 vhcurveto
          endchar
        </CharString>
        <CharString name="ordfeminine">
          -179 380 44 134 40 78 43 -26 -20 hstemhm
          50 78 118 78 hintmask 11011100
          hintmask 11101100
          60 654 rmoveto
          5 14 78 17 46 hhcurveto
          37 11 -6 -33 hvcurveto
          -39 vlineto
          -46 -2 -48 -4 -46 -8 rrcurveto
          -37 -8 -19 -20 -37 vvcurveto
          -91 vlineto
          -34 17 -14 48 43 43 7 14 50 vhcurveto
          -19 5 -2 33 32 30 5 7 25 vhcurveto
          1 3 1 9 4 vvcurveto
          4 -1 9 -2 4 vhcurveto
          -44 -1 rlineto
          -4 -3 6 29 hvcurveto
          213 vlineto
          33 -21 14 -45 -70 -62 -7 -19 -67 vhcurveto
          -2 -4 -1 -9 -4 vvcurveto
          -6 2 -10 2 -6 vhcurveto
          186 -214 rmoveto
          -7 -24 -30 -8 -23 hhcurveto
          -24 -17 8 22 hvcurveto
          52 vlineto
          30 11 6 32 7 vhcurveto
          22 6 29 1 24 1 rrcurveto
          endchar
        </CharString>
        <CharString name="ordmasculine">
          -212 380 43 254 42 hstem
          54 79 116 78 vstem
          327 649 rmoveto
          55 -21 15 -62 -128 -62 -17 -55 vhcurveto
          -196 vlineto
          -56 23 -15 63 127 60 18 54 vhcurveto
          -194 178 rmoveto
          31 8 16 70 28 10 -11 -39 vhcurveto
          -158 vlineto
          -30 -8 -16 -70 -30 -8 11 39 vhcurveto
          endchar
        </CharString>
        <CharString name="oslash">
          -25 -12 43 -25 -21 487 42 3 -20 hstemhm
          71 114 196 114 hintmask 10101100
          hintmask 01101100
          9 13 rmoveto
          -19 10 18 -9 24 hhcurveto
          hintmask 10011100
          32 32 rlineto
          -21 20 35 -8 55 hhcurveto
          198 94 27 84 hvcurveto
          307 vlineto
          7 -1 8 6 vvcurveto
          63 62 rlineto
          19 -10 -18 9 -24 hhcurveto
          hintmask 01101100
          -32 -32 rlineto
          22 -20 -34 7 -54 hhcurveto
          -198 -96 -26 -85 hvcurveto
          -306 vlineto
          -8 0 -7 1 -7 vhcurveto
          hintmask 10101100
          309 28 rmoveto
          -47 -15 -25 -121 -48 -12 17 60 vhcurveto
          8 vlineto
          196 191 rlineto
          -196 92 rmoveto
          48 15 25 123 43 15 -17 -61 vhcurveto
          -7 vlineto
          -196 -192 rlineto
          endchar
        </CharString>
        <CharString name="otilde">
          -37 -12 43 441 42 71 72 -19 69 -15 -20 hstemhm
          65 114 196 114 hintmask 11010110
          489 406 rmoveto
          85 -33 23 -97 -198 -96 -26 -85 vhcurveto
          -306 vlineto
          -86 35 -23 97 198 94 27 84 vhcurveto
          -114 4 rmoveto
          -47 -15 -25 -121 -48 -12 17 60 vhcurveto
          291 vlineto
          48 15 25 123 43 15 -17 -61 vhcurveto
          -231 198 rmoveto
          17 18 18 29 35 42 29 -53 48 hhcurveto
          hintmask 11101110
          59 47 53 19 2 hvcurveto
          2 16 -6 9 -9 7 -8 7 -5 -4 -9 -9 rrcurveto
          -15 -15 -20 -11 -22 -42 -30 50 -59 hhcurveto
          hintmask 11010110
          -53 -42 -49 -25 -10 hvcurveto
          -2 -5 -1 -8 1 -4 3 -9 7 -7 8 -8 5 -5 5 1 4 4 rrcurveto
          endchar
        </CharString>
        <CharString name="p">
          -5 -220 -21 236 45 414 60 -53 53 hstemhm
          94 114 198 114 hintmask 11011100
          83 461 rmoveto
          6 5 -11 -44 hvcurveto
          -630 vlineto
          -10 6 -7 11 30 28 4 7 23 vhcurveto
          13 5 3 8 7 vvcurveto
          205 vlineto
          75 3 73 7 76 15 rrcurveto
          59 11 29 28 58 vvcurveto
          321 vlineto
          54 -27 22 -74 -67 -67 -22 -21 -77 vhcurveto
          38 -3 5 -57 -49 -47 -8 -11 -39 vhcurveto
          -2 -6 -1 -5 -6 vvcurveto
          -7 1 -6 3 -6 vhcurveto
          hintmask 11101100
          194 -34 rmoveto
          12 45 63 17 34 hhcurveto
          33 23 -11 -30 hvcurveto
          -294 vlineto
          -45 -17 -8 -50 -11 vhcurveto
          -39 -9 -50 -4 -42 -2 rrcurveto
          endchar
        </CharString>
        <CharString name="paragraph">
          2 -13 53 295 53 270 55 hstem
          36 120 124 80 60 75 vstem
          252 388 rmoveto
          -74 -22 21 75 hvcurveto
          87 vlineto
          48 15 30 102 9 vhcurveto
          4 -5 3 -14 -34 vvcurveto
          -217 vlineto
          226 -348 rmoveto
          -6 -5 11 44 hvcurveto
          575 vlineto
          38 -12 5 -63 vhcurveto
          -673 -49 vlineto
          -6 -5 11 44 hvcurveto
          575 vlineto
          38 -4 5 -63 -47 -210 -10 -127 vhcurveto
          -106 vlineto
          -106 43 -29 121 28 27 0 1 25 vhcurveto
          -306 vlineto
          -43 112 0 35 49 55 8 11 39 vhcurveto
          2 6 1 5 6 vvcurveto
          7 -1 6 -3 6 vhcurveto
          endchar
        </CharString>
        <CharString name="parenleft">
          -322 -133 894 hstem
          36 105 vstem
          245 -126 rmoveto
          -80 136 -24 179 125 vvcurveto
          125 24 179 80 136 vhcurveto
          4 -8 -9 3 -8 hhcurveto
          -12 -11 -3 -4 -10 hvcurveto
          -133 -170 -18 -194 -76 vvcurveto
          -76 18 -194 133 -170 vhcurveto
          -4 8 9 -3 8 hhcurveto
          12 14 3 4 7 hvcurveto
          endchar
        </CharString>
        <CharString name="parenright">
          -322 -133 894 hstem
          128 105 vstem
          24 754 rmoveto
          80 -136 24 -179 -125 vvcurveto
          -125 -24 -179 -80 -136 vhcurveto
          -4 8 9 -3 8 hhcurveto
          12 11 3 4 10 hvcurveto
          133 170 18 194 76 vvcurveto
          76 -18 194 -133 170 vhcurveto
          4 -8 -9 3 -8 hhcurveto
          -12 -14 -3 -4 -7 hvcurveto
          endchar
        </CharString>
        <CharString name="percent">
          252 9 52 243 52 -1 52 243 52 hstemhm
          37 81 119 81 207 81 119 81 hintmask 11011111
          318 620 rmoveto
          65 -23 17 -65 -132 -61 -20 -64 vhcurveto
          -232 vlineto
          -65 24 -17 66 132 59 20 64 vhcurveto
          -200 207 rmoveto
          36 7 19 68 32 12 -13 -46 vhcurveto
          -180 vlineto
          -36 -7 -19 -66 -37 -9 13 46 vhcurveto
          hintmask 10111111
          688 -90 rmoveto
          65 -23 17 -65 -132 -61 -20 -64 vhcurveto
          -232 vlineto
          -65 24 -17 66 132 59 20 64 vhcurveto
          -200 207 rmoveto
          36 7 19 68 32 12 -13 -46 vhcurveto
          -180 vlineto
          -36 -7 -19 -66 -37 -9 13 46 vhcurveto
          23 616 rmoveto
          -12 18 -18 10 -26 2 -354 -785 rcurveline
          15 -18 18 -9 23 -2 rrcurveto
          endchar
        </CharString>
        <CharString name="period">
          -370 -9 115 -91 -21 hstemhm
          53 114 hintmask 10100000
          53 23 rmoveto
          -24 3 -9 15 1 vhcurveto
          hintmask 01100000
          76 3 rlineto
          18 3 2 7 21 vvcurveto
          hintmask 10100000
          51 vlineto
          24 -3 9 -15 -1 vhcurveto
          -76 -3 rlineto
          -18 -3 -2 -7 -21 vvcurveto
          endchar
        </CharString>
        <CharString name="periodcentered">
          -362 244 114 hstem
          57 114 vstem
          57 275 rmoveto
          -24 3 -9 15 1 vhcurveto
          76 3 rlineto
          18 3 2 7 21 vvcurveto
          51 vlineto
          24 -3 9 -15 -1 vhcurveto
          -76 -3 rlineto
          -18 -3 -2 -7 -21 vvcurveto
          endchar
        </CharString>
        <CharString name="plus">
          -97 294 74 -61 74 180 -20 hstemhm
          205 79 -74 79 hintmask 10101000
          212 116 rmoveto
          -4 12 13 -2 11 hhcurveto
          14 14 4 7 15 hvcurveto
          hintmask 01101000
          -4 182 165 8 rlineto
          3 11 1 12 11 vvcurveto
          13 -2 14 -4 13 vhcurveto
          hintmask 01110000
          -53 -2 -58 -4 -53 -2 -4 180 rcurveline
          2 -12 -10 2 -11 hhcurveto
          -15 -17 -3 -4 -14 hvcurveto
          hintmask 10110000
          4 -182 -165 -8 rlineto
          -3 -12 -1 -13 -11 vvcurveto
          -13 2 -11 4 -14 vhcurveto
          hintmask 10101000
          53 2 58 4 53 2 rrcurveto
          endchar
        </CharString>
        <CharString name="plusminus">
          -56 103 74 199 74 -61 74 hstemhm
          222 79 -74 79 hintmask 11010000
          hintmask 10101000
          229 238 rmoveto
          -4 12 13 -2 11 hhcurveto
          14 14 4 7 15 hvcurveto
          -4 142 165 8 rlineto
          3 11 1 12 11 vvcurveto
          13 -2 14 -4 13 vhcurveto
          hintmask 10110000
          -53 -2 -58 -4 -53 -2 -4 150 rcurveline
          2 -12 -10 2 -11 hhcurveto
          -15 -17 -3 -4 -14 hvcurveto
          hintmask 11010000
          4 -152 -165 -8 rlineto
          -3 -12 -1 -13 -11 vvcurveto
          -13 2 -11 4 -14 vhcurveto
          hintmask 11001000
          53 2 58 4 53 2 rrcurveto
          244 -266 rmoveto
          3 11 1 12 11 vvcurveto
          13 -2 14 -4 13 vhcurveto
          -408 -21 rlineto
          -3 -12 -1 -13 -11 vvcurveto
          -13 2 -11 4 -14 vhcurveto
          endchar
        </CharString>
        <CharString name="q">
          -31 -220 -21 228 60 425 42 hstem
          66 114 196 114 vstem
          490 406 rmoveto
          85 -33 23 -97 -198 -96 -26 -85 vhcurveto
          -340 vlineto
          -54 27 -22 74 67 65 22 21 77 vhcurveto
          -254 vlineto
          -10 6 -7 11 30 28 4 7 23 vhcurveto
          13 5 3 8 7 vvcurveto
          -114 285 rmoveto
          -15 -54 -48 -13 -38 hhcurveto
          -33 -23 10 31 hvcurveto
          311 vlineto
          48 15 25 123 42 16 -17 -59 vhcurveto
          endchar
        </CharString>
        <CharString name="question">
          -113 -9 115 -91 -21 664 57 hstemhm
          38 120 10 114 -110 103 53 120 hintmask 10110010
          328 561 rmoveto
          hintmask 10110110
          -57 -156 -145 -78 vvcurveto
          -96 vlineto
          -11 7 -7 11 80 5 20 13 vhcurveto
          80 vlineto
          75 173 125 99 vvcurveto
          92 -32 44 -88 vhcurveto
          hintmask 10110010
          -97 -193 -17 -122 hvcurveto
          -113 vlineto
          -11 6 -7 12 42 60 6 27 vhcurveto
          93 vlineto
          74 76 13 33 47 14 -26 -61 vhcurveto
          hintmask 10111010
          -160 -548 rmoveto
          -24 3 -9 15 1 vhcurveto
          hintmask 01111010
          76 3 rlineto
          18 3 2 7 21 vvcurveto
          hintmask 10111010
          51 vlineto
          24 -3 9 -15 -1 vhcurveto
          -76 -3 rlineto
          -18 -3 -2 -7 -21 vvcurveto
          endchar
        </CharString>
        <CharString name="questiondown">
          -120 -181 57 551 114 hstemhm
          27 120 46 114 -107 103 14 120 hintmask 11100100
          147 -27 rmoveto
          hintmask 11101100
          57 156 145 78 vvcurveto
          96 vlineto
          11 -7 7 -11 -80 -5 -20 -13 vhcurveto
          -80 vlineto
          -75 -173 -125 -99 vvcurveto
          -92 32 -44 88 vhcurveto
          hintmask 11100100
          97 193 17 122 hvcurveto
          113 vlineto
          11 -6 7 -12 -42 -60 -6 -27 vhcurveto
          -93 vlineto
          -74 -76 -13 -33 -47 -14 26 61 vhcurveto
          hintmask 11110100
          160 548 rmoveto
          24 -3 9 -15 -1 vhcurveto
          -76 -3 rlineto
          -18 -3 -2 -7 -21 vvcurveto
          -51 vlineto
          -24 3 -9 15 1 vhcurveto
          76 3 rlineto
          18 3 2 7 21 vvcurveto
          endchar
        </CharString>
        <CharString name="quotedbl">
          -225 501 227 -226 224 hstemhm
          54 89 80 89 hintmask 10110000
          hintmask 01110000
          54 533 rmoveto
          -24 3 -9 15 1 vhcurveto
          51 3 rlineto
          18 3 2 7 21 vvcurveto
          161 vlineto
          24 -3 9 -15 -1 vhcurveto
          -51 -3 rlineto
          -18 -3 -2 -7 -21 vvcurveto
          169 -161 rmoveto
          -24 3 -9 15 1 vhcurveto
          51 3 rlineto
          18 3 2 7 21 vvcurveto
          161 vlineto
          24 -3 9 -15 -1 vhcurveto
          -51 -3 rlineto
          -18 -3 -2 -7 -21 vvcurveto
          endchar
        </CharString>
        <CharString name="quotedblbase">
          -169 -9 115 hstem
          53 114 86 114 vstem
          167 76 rmoveto
          24 -3 9 -15 -1 vhcurveto
          -76 -3 rlineto
          -18 -3 -2 -7 -21 vvcurveto
          -51 vlineto
          -24 3 -9 15 1 vhcurveto
          32 2 -1 -33 -46 -34 -33 -14 rlinecurve
          -6 2 -8 3 -5 vhcurveto
          4 -8 6 -5 6 -7 rrcurveto
          84 21 39 55 76 vvcurveto
          200 51 rmoveto
          24 -3 9 -15 -1 vhcurveto
          -76 -3 rlineto
          -18 -3 -2 -7 -21 vvcurveto
          -51 vlineto
          -24 3 -9 15 1 vhcurveto
          32 2 -1 -33 -46 -34 -33 -14 rlinecurve
          -6 2 -8 3 -5 vhcurveto
          4 -8 6 -5 6 -7 rrcurveto
          84 21 39 55 76 vvcurveto
          endchar
        </CharString>
        <CharString name="quotedblleft">
          -166 479 114 hstem
          47 114 86 114 vstem
          47 510 rmoveto
          -24 3 -9 15 1 vhcurveto
          76 3 rlineto
          18 3 2 7 21 vvcurveto
          51 vlineto
          24 -3 9 -15 -1 vhcurveto
          -32 -2 1 33 46 34 33 14 rlinecurve
          6 -2 8 -3 5 vhcurveto
          -4 8 -6 5 -6 7 rrcurveto
          -84 -21 -39 -55 -76 vvcurveto
          200 -51 rmoveto
          -24 3 -9 15 1 vhcurveto
          76 3 rlineto
          18 3 2 7 21 vvcurveto
          51 vlineto
          24 -3 9 -15 -1 vhcurveto
          -32 -2 1 33 46 34 33 14 rlinecurve
          6 -2 8 -3 5 vhcurveto
          -4 8 -6 5 -6 7 rrcurveto
          -84 -21 -39 -55 -76 vvcurveto
          endchar
        </CharString>
        <CharString name="quotedblright">
          -169 516 -20 100 114 hstem
          69 114 86 114 vstem
          183 680 rmoveto
          24 -3 9 -15 -1 vhcurveto
          -76 -3 rlineto
          -18 -3 -2 -7 -21 vvcurveto
          -51 vlineto
          -24 3 -9 15 1 vhcurveto
          32 2 -1 -33 -46 -34 -33 -14 rlinecurve
          -6 2 -8 3 -5 vhcurveto
          4 -8 6 -5 6 -7 rrcurveto
          84 21 39 55 76 vvcurveto
          200 51 rmoveto
          24 -3 9 -15 -1 vhcurveto
          -76 -3 rlineto
          -18 -3 -2 -7 -21 vvcurveto
          -51 vlineto
          -24 3 -9 15 1 vhcurveto
          32 2 -1 -33 -46 -34 -33 -14 rlinecurve
          -6 2 -8 3 -5 vhcurveto
          4 -8 6 -5 6 -7 rrcurveto
          84 21 39 55 76 vvcurveto
          endchar
        </CharString>
        <CharString name="quoteleft">
          -366 479 114 hstem
          47 114 vstem
          47 510 rmoveto
          -24 3 -9 15 1 vhcurveto
          76 3 rlineto
          18 3 2 7 21 vvcurveto
          51 vlineto
          24 -3 9 -15 -1 vhcurveto
          -32 -2 1 33 46 34 33 14 rlinecurve
          6 -2 8 -3 5 vhcurveto
          -4 8 -6 5 -6 7 rrcurveto
          -84 -21 -39 -55 -76 vvcurveto
          endchar
        </CharString>
        <CharString name="quoteright">
          -369 516 -20 100 114 hstem
          69 114 vstem
          183 680 rmoveto
          24 -3 9 -15 -1 vhcurveto
          -76 -3 rlineto
          -18 -3 -2 -7 -21 vvcurveto
          -51 vlineto
          -24 3 -9 15 1 vhcurveto
          32 2 -1 -33 -46 -34 -33 -14 rlinecurve
          -6 2 -8 3 -5 vhcurveto
          4 -8 6 -5 6 -7 rrcurveto
          84 21 39 55 76 vvcurveto
          endchar
        </CharString>
        <CharString name="quotesinglbase">
          -369 -9 115 hstem
          53 114 vstem
          167 76 rmoveto
          24 -3 9 -15 -1 vhcurveto
          -76 -3 rlineto
          -18 -3 -2 -7 -21 vvcurveto
          -51 vlineto
          -24 3 -9 15 1 vhcurveto
          32 2 -1 -33 -46 -34 -33 -14 rlinecurve
          -6 2 -8 3 -5 vhcurveto
          4 -8 6 -5 6 -7 rrcurveto
          84 21 39 55 76 vvcurveto
          endchar
        </CharString>
        <CharString name="quotesingle">
          -394 501 227 -226 224 hstemhm
          54 89 hintmask 10100000
          hintmask 01100000
          54 533 rmoveto
          -24 3 -9 15 1 vhcurveto
          51 3 rlineto
          18 3 2 7 21 vvcurveto
          161 vlineto
          24 -3 9 -15 -1 vhcurveto
          -51 -3 rlineto
          -18 -3 -2 -7 -21 vvcurveto
          endchar
        </CharString>
        <CharString name="r">
          -120 -13 53 410 64 -53 53 hstemhm
          94 114 128 114 hintmask 10111000
          83 461 rmoveto
          6 5 -11 -44 hvcurveto
          -376 vlineto
          -38 3 -5 57 49 47 8 11 39 vhcurveto
          2 6 1 5 6 vvcurveto
          7 -1 6 -3 6 vhcurveto
          -69 -2 rlineto
          -6 -5 11 44 hvcurveto
          hintmask 11011000
          331 vlineto
          12 29 34 12 26 hhcurveto
          23 16 -10 -27 hvcurveto
          -83 vlineto
          -10 6 -7 11 30 28 4 7 23 vhcurveto
          13 5 3 8 7 vvcurveto
          hintmask 10111000
          94 vlineto
          54 -27 22 -74 -36 -56 -22 -21 -49 vhcurveto
          38 -3 5 -57 -49 -47 -8 -11 -39 vhcurveto
          -2 -6 -1 -5 -6 vvcurveto
          -7 1 -6 3 -6 vhcurveto
          endchar
        </CharString>
        <CharString name="registered">
          199 -13 53 84 33 180 39 161 43 81 53 hstem
          70 85 79 85 147 85 84 85 vstem
          200 509 rmoveto
          7 23 96 21 87 hhcurveto
          46 14 -14 -37 hvcurveto
          -55 vlineto
          -31 -11 -5 -34 -7 vhcurveto
          -30 -7 -41 -3 -31 -2 rrcurveto
          108 vlineto
          7 -4 5 -7 -24 -22 -3 -5 -18 vhcurveto
          -8 -3 -2 -5 -5 vvcurveto
          -324 vlineto
          -24 2 -3 40 35 23 5 7 27 vhcurveto
          1 4 1 3 3 vvcurveto
          5 -1 4 -1 3 vhcurveto
          -35 -1 rlineto
          -4 -3 7 28 hvcurveto
          145 61 vlineto
          82 -186 rlineto
          -24 11 12 -3 22 hhcurveto
          30 34 5 7 25 hvcurveto
          1 3 1 4 3 vvcurveto
          4 -2 4 -1 4 vhcurveto
          -30 -1 rlineto
          -10 -9 13 22 -10 hvcurveto
          -75 157 8 1 1 0 8 2 rlinecurve
          39 8 34 20 38 vvcurveto
          77 vlineto
          67 -27 18 -76 -82 -88 -7 -23 -79 vhcurveto
          -2 -5 0 -9 -6 vvcurveto
          -5 0 -11 3 -5 vhcurveto
          -130 -387 rmoveto
          -106 40 -29 109 340 161 33 105 vhcurveto
          454 vlineto
          106 -40 29 -109 -340 -161 -33 -105 vhcurveto
          565 -446 rmoveto
          -59 -71 -31 -303 -74 -32 21 75 vhcurveto
          435 vlineto
          59 71 31 303 73 33 -21 -75 vhcurveto
          endchar
        </CharString>
        <CharString name="ring">
          -293 551 48 92 48 hstem
          35 58 111 59 vstem
          263 645 rmoveto
          51 -53 43 -66 -66 -43 -43 -51 -51 43 -43 66 66 53 43 51 vhcurveto
          -59 hmoveto
          -27 -27 -19 -29 -28 -27 19 27 27 27 19 28 29 27 -19 -27 vhcurveto
          endchar
        </CharString>
        <CharString name="ring.case">
          -293 761 48 92 48 hstem
          35 58 111 59 vstem
          263 855 rmoveto
          51 -53 43 -66 -66 -43 -43 -51 -51 43 -43 66 66 53 43 51 vhcurveto
          -59 hmoveto
          -27 -27 -19 -29 -28 -27 19 27 27 27 19 28 29 27 -19 -27 vhcurveto
          endchar
        </CharString>
        <CharString name="s">
          -212 -13 45 437 45 hstem
          42 120 72 118 vstem
          31 -8 rmoveto
          -5 48 46 0 53 hhcurveto
          84 90 20 66 39 -22 36 -12 20 hvcurveto
          -140 221 rlineto
          -6 9 -10 19 12 vvcurveto
          27 22 13 55 35 28 -1 -3 23 vhcurveto
          3 7 2 7 8 vvcurveto
          7 -2 8 -4 8 vhcurveto
          3 -26 -30 1 -29 hhcurveto
          -102 -95 -14 -71 -33 7 -17 31 -49 hvcurveto
          140 -221 rlineto
          5 -9 9 -13 -14 vvcurveto
          -33 -27 -8 -65 -40 -54 2 3 -18 vhcurveto
          -3 -8 -1 -7 -7 vvcurveto
          -8 1 -8 4 -7 vhcurveto
          endchar
        </CharString>
        <CharString name="section">
          -89 -16 45 -13 -21 676 34 -34 43 hstemhm
          52 97 -58 112 106 116 -64 106 hintmask 10100110
          hintmask 10101010
          230 172 rmoveto
          32 -22 47 -25 -43 vvcurveto
          -32 -17 -21 -90 -55 -56 14 2 -15 vhcurveto
          hintmask 01101010
          -3 -7 -2 -8 -7 vvcurveto
          -10 3 -8 3 -10 vhcurveto
          hintmask 10101010
          -4 37 54 -7 40 hhcurveto
          83 134 9 95 55 -44 41 -51 34 hvcurveto
          hintmask 10100101
          81 30 56 53 55 vvcurveto
          72 -135 67 -53 38 vhcurveto
          -31 21 -45 24 42 vvcurveto
          30 16 21 87 53 51 -12 -2 15 vhcurveto
          3 7 1 8 6 vvcurveto
          10 -2 8 -3 9 vhcurveto
          hintmask 10010101
          4 -36 -49 5 -39 hhcurveto
          -80 -129 -9 -91 -52 38 -38 47 -33 hvcurveto
          hintmask 10101010
          -79 -24 -45 -51 -53 vvcurveto
          -75 123 -77 55 -39 vhcurveto
          hintmask 10101001
          131 157 rmoveto
          -34 -12 -26 -69 -19 vhcurveto
          -90 57 -41 35 36 vvcurveto
          37 21 32 52 16 vhcurveto
          67 -40 72 -52 -42 vvcurveto
          endchar
        </CharString>
        <CharString name="semicolon">
          -336 -9 115 310 114 hstem
          74 114 vstem
          76 447 rmoveto
          -24 3 -9 15 1 vhcurveto
          76 3 rlineto
          18 3 2 7 21 vvcurveto
          51 vlineto
          24 -3 9 -15 -1 vhcurveto
          -76 -3 rlineto
          -18 -3 -2 -7 -21 vvcurveto
          112 -422 rmoveto
          24 -3 9 -15 -1 vhcurveto
          -76 -3 rlineto
          -18 -3 -2 -7 -21 vvcurveto
          -51 vlineto
          -24 3 -9 15 1 vhcurveto
          32 2 -1 -33 -46 -34 -33 -14 rlinecurve
          -6 2 -8 3 -5 vhcurveto
          4 -8 6 -5 6 -7 rrcurveto
          84 21 39 55 76 vvcurveto
          endchar
        </CharString>
        <CharString name="seven">
          -136 -13 53 618 57 hstemhm
          30 114 -11 120 hintmask 11100000
          437 655 rmoveto
          2 8 3 12 7 vvcurveto
          10 -3 8 -3 10 vhcurveto
          4 -29 -23 1 -30 hhcurveto
          -59 -105 -8 -14 -71 hvcurveto
          -81 -16 -8 -26 -80 vvcurveto
          -48 vlineto
          -11 7 -7 11 42 54 6 27 vhcurveto
          28 vlineto
          51 10 31 55 10 vhcurveto
          35 6 55 3 34 2 rrcurveto
          hintmask 11010000
          -190 -591 rlineto
          -7 -24 -3 -18 -13 vvcurveto
          -32 21 -4 45 57 42 8 11 43 vhcurveto
          2 5 1 6 5 vvcurveto
          7 -2 6 -2 7 vhcurveto
          -69 -2 rlineto
          -10 -8 6 16 8 2 12 5 13 hvcurveto
          endchar
        </CharString>
        <CharString name="six">
          -64 -14 57 378 57 181 48 -48 52 hstemhm
          75 114 190 114 hintmask 11101100
          493 339 rmoveto
          91 -25 48 -86 -55 -84 -16 -16 -54 vhcurveto
          125 vlineto
          33 8 27 42 11 vhcurveto
          12 47 64 5 51 hhcurveto
          26 16 0 -2 17 hvcurveto
          3 7 2 8 7 vvcurveto
          10 -3 8 -3 10 vhcurveto
          hintmask 11011100
          3 -28 -28 1 -27 hhcurveto
          -167 1 -134 -33 -103 vvcurveto
          -454 vlineto
          -92 26 -44 88 97 207 17 122 vhcurveto
          -304 270 rmoveto
          12 33 67 14 31 hhcurveto
          44 15 -32 -64 hvcurveto
          -195 vlineto
          -66 -43 -16 -86 -5 vhcurveto
          -47 -3 -14 29 61 vvcurveto
          endchar
        </CharString>
        <CharString name="slash">
          -206 -161 933 hstem
          30 325 vstem
          30 -152 rmoveto
          -6 14 12 -3 13 hhcurveto
          13 13 3 6 17 hvcurveto
          243 916 rlineto
          5 -15 -14 3 -13 hhcurveto
          -13 -12 -3 -5 -16 hvcurveto
          endchar
        </CharString>
        <CharString name="space">
          -363 endchar
        </CharString>
        <CharString name="sterling">
          29 -13 59 210 50 -31 50 338 51 hstemhm
          129 120 190 116 hintmask 10111100
          51 -4 rmoveto
          -6 61 60 -3 60 hhcurveto
          122 86 10 22 102 hvcurveto
          8 16 0 20 -8 22 -69 -17 -74 -15 -150 1 rrcurveto
          222 vlineto
          189 15 rlineto
          3 7 2 8 7 vvcurveto
          10 -3 8 -3 10 vhcurveto
          -188 -14 rlineto
          242 vlineto
          74 13 16 81 10 vhcurveto
          1 15 13 1 11 hhcurveto
          43 14 -17 -81 hvcurveto
          -72 vlineto
          -11 6 -7 12 31 26 6 6 24 vhcurveto
          14 6 3 7 8 vvcurveto
          71 vlineto
          106 -39 35 -121 -6 vhcurveto
          -177 -10 -89 -33 -105 vvcurveto
          hintmask 11011100
          -256 vlineto
          -91 -7 rlineto
          -3 -7 -2 -8 -7 vvcurveto
          -10 3 -8 3 -10 vhcurveto
          90 6 rlineto
          -192 vlineto
          -9 1 -7 1 -7 vhcurveto
          -30 1 -28 2 -24 3 rrcurveto
          -3 -9 -1 -11 -7 vvcurveto
          hintmask 10111100
          -10 1 -9 5 -8 vhcurveto
          endchar
        </CharString>
        <CharString name="t">
          -268 -13 53 412 45 -32 48 -6 -20 hstemhm
          98 114 hintmask 10101000
          293 6 rmoveto
          2 6 1 5 6 vvcurveto
          7 -1 6 -3 6 vhcurveto
          -69 -2 rlineto
          -6 -5 11 44 hvcurveto
          367 vlineto
          80 6 rlineto
          3 6 1 8 6 vvcurveto
          9 -2 7 -3 9 vhcurveto
          hintmask 10011000
          -79 -6 rlineto
          158 vlineto
          10 -6 7 -11 -30 -28 -4 -7 -23 vhcurveto
          -13 -5 -3 -8 -7 vvcurveto
          hintmask 11001000
          -151 vlineto
          -74 -5 rlineto
          -3 -6 -1 -8 -6 vvcurveto
          -9 2 -7 3 -9 vhcurveto
          73 5 rlineto
          -425 vlineto
          -38 3 -5 57 vhcurveto
          hintmask 10101000
          49 47 8 11 39 hvcurveto
          endchar
        </CharString>
        <CharString name="thorn">
          -27 -220 -21 236 45 414 60 146 34 -34 53 hstemhm
          72 114 198 114 hintmask 11110110
          61 660 rmoveto
          6 5 -11 -44 hvcurveto
          -829 vlineto
          -10 6 -7 11 30 28 4 7 23 vhcurveto
          13 5 3 8 7 vvcurveto
          205 vlineto
          75 3 73 5 76 15 rrcurveto
          59 12 29 29 58 vvcurveto
          321 vlineto
          54 -27 22 -74 -67 -67 -22 -21 -77 vhcurveto
          hintmask 11101110
          199 vlineto
          38 -3 5 -57 vhcurveto
          hintmask 11110110
          -49 -47 -8 -11 -39 hvcurveto
          -2 -6 -1 -5 -6 vvcurveto
          -7 1 -6 3 -6 vhcurveto
          194 -233 rmoveto
          12 45 56 17 41 hhcurveto
          33 23 -11 -30 hvcurveto
          -292 vlineto
          -47 -16 -8 -51 -11 vhcurveto
          -39 -9 -50 -4 -42 -2 rrcurveto
          endchar
        </CharString>
        <CharString name="three">
          -61 -13 52 625 51 hstemhm
          62 114 170 108 -94 110 hintmask 11101000
          hintmask 11110000
          346 495 rmoveto
          -62 -17 -21 -93 -6 vhcurveto
          -3 -8 -1 -12 -8 vvcurveto
          -10 1 -10 5 -10 vhcurveto
          hintmask 11101000
          4 24 19 3 16 hhcurveto
          47 16 -23 -79 hvcurveto
          -123 vlineto
          -64 -22 -20 -85 -7 vhcurveto
          -59 -5 -17 25 77 vvcurveto
          107 vlineto
          11 -6 7 -12 -43 -53 -7 -26 vhcurveto
          -106 vlineto
          -101 31 -40 107 6 vhcurveto
          178 10 91 22 106 vvcurveto
          132 vlineto
          68 -10 57 -83 13 vhcurveto
          2 vlineto
          hintmask 11110000
          66 16 11 30 29 vvcurveto
          107 vlineto
          92 -20 48 -88 -4 vhcurveto
          -164 -8 -120 -15 -116 vvcurveto
          -113 vlineto
          -11 6 -7 12 42 54 6 27 vhcurveto
          93 vlineto
          70 29 15 83 8 vhcurveto
          39 4 19 -21 -61 vvcurveto
          endchar
        </CharString>
        <CharString name="threequarters">
          182 0 32 65 43 -29 40 138 41 169 39 141 44 hstemhm
          41 76 -71 76 95 70 -67 79 306 82 hintmask 1101111001100000
          hintmask 1011111001100000
          610 736 rmoveto
          -12 18 -18 10 -26 2 -354 -785 rcurveline
          15 -18 18 -9 23 -2 rrcurveto
          477 161 rmoveto
          2 4 1 10 4 vvcurveto
          hintmask 1101111001100000
          6 -2 10 -2 6 vhcurveto
          -45 -4 rlineto
          289 vlineto
          -26 -35 -3 -7 -22 hvcurveto
          -160 -296 rlineto
          -2 -4 -1 -10 -4 vvcurveto
          -6 2 -10 1 -6 vhcurveto
          161 11 rlineto
          -77 vlineto
          -23 13 -3 37 30 27 5 7 23 vhcurveto
          hintmask 1011111001100000
          1 3 1 3 3 vvcurveto
          4 -1 4 -1 4 vhcurveto
          -42 -1 rlineto
          hintmask 1101111001100000
          -3 -3 6 27 hvcurveto
          44 vlineto
          -78 247 rmoveto
          hintmask 1011111001100000
          -2 -26 -2 -26 -26 vvcurveto
          -134 vlineto
          -100 -7 79 152 9 20 8 24 7 23 rlinecurve
          hintmask 1101111010100000
          -391 233 rmoveto
          -37 -16 -8 -65 -6 vhcurveto
          hintmask 1101111001100000
          -2 -4 -1 -10 -4 vvcurveto
          -6 1 -11 3 -6 vhcurveto
          2 12 10 0 8 hhcurveto
          50 3 -27 -34 hvcurveto
          -54 vlineto
          -38 -5 -12 -51 -4 vhcurveto
          -35 -3 -12 9 52 vvcurveto
          54 vlineto
          6 -3 5 -7 -26 -40 -5 -15 vhcurveto
          -63 vlineto
          -60 22 -24 64 3 vhcurveto
          106 6 66 13 63 vvcurveto
          79 vlineto
          41 -5 28 -50 7 vhcurveto
          2 vlineto
          hintmask 1101110110100000
          39 9 4 24 17 vvcurveto
          65 vlineto
          55 -10 28 -52 -3 vhcurveto
          -95 -6 -84 -12 -65 vvcurveto
          -67 vlineto
          -7 2 -4 8 26 40 4 16 vhcurveto
          49 vlineto
          31 9 12 49 5 vhcurveto
          29 3 8 -18 -37 vvcurveto
          endchar
        </CharString>
        <CharString name="threesuperior">
          -220 289 41 169 39 141 44 hstemhm
          52 76 -71 76 95 70 -67 79 hintmask 11110010
          hintmask 11110100
          228 589 rmoveto
          -37 -16 -8 -65 -6 vhcurveto
          hintmask 11110010
          -2 -4 -1 -10 -4 vvcurveto
          -6 1 -11 3 -6 vhcurveto
          2 12 10 0 8 hhcurveto
          50 3 -27 -34 hvcurveto
          -54 vlineto
          -38 -5 -12 -51 -4 vhcurveto
          -35 -3 -12 9 52 vvcurveto
          54 vlineto
          6 -3 5 -7 -26 -40 -5 -15 vhcurveto
          -63 vlineto
          -60 22 -24 64 3 vhcurveto
          106 6 66 13 63 vvcurveto
          79 vlineto
          41 -5 28 -50 7 vhcurveto
          2 vlineto
          hintmask 11101100
          39 9 4 24 17 vvcurveto
          65 vlineto
          55 -10 28 -52 -3 vhcurveto
          -95 -6 -84 -12 -65 vvcurveto
          -67 vlineto
          -7 2 -4 8 26 40 4 16 vhcurveto
          49 vlineto
          31 9 12 49 5 vhcurveto
          29 3 8 -18 -37 vvcurveto
          endchar
        </CharString>
        <CharString name="tilde">
          -180 585 72 -19 69 -15 -20 hstemhm
          38 330 hintmask 01010000
          70 592 rmoveto
          17 18 18 29 35 42 29 -53 48 hhcurveto
          hintmask 10110000
          59 47 53 19 2 hvcurveto
          2 16 -6 9 -9 7 -8 7 -5 -4 -9 -9 rrcurveto
          -15 -15 -20 -11 -22 -42 -30 50 -59 hhcurveto
          hintmask 01010000
          -53 -42 -49 -25 -10 hvcurveto
          -2 -5 -1 -8 1 -4 3 -9 7 -7 8 -8 5 -5 5 1 4 4 rrcurveto
          endchar
        </CharString>
        <CharString name="tilde.case">
          -180 772 72 -19 69 hstemhm
          38 330 hintmask 01100000
          70 779 rmoveto
          17 18 18 29 35 42 29 -53 48 hhcurveto
          hintmask 10100000
          59 47 53 19 2 hvcurveto
          2 16 -6 9 -9 7 -8 7 -5 -4 -9 -9 rrcurveto
          -15 -15 -20 -11 -22 -42 -30 50 -59 hhcurveto
          hintmask 01100000
          -53 -42 -49 -25 -10 hvcurveto
          -2 -5 -1 -8 1 -4 3 -9 7 -7 8 -8 5 -5 5 1 4 4 rrcurveto
          endchar
        </CharString>
        <CharString name="two">
          -53 -13 60 617 51 hstemhm
          46 114 180 111 -74 120 hintmask 11110000
          385 347 rmoveto
          50 58 16 46 39 vvcurveto
          89 vlineto
          92 -23 49 -88 -5 vhcurveto
          -172 -9 -122 -20 -115 vvcurveto
          -123 vlineto
          -11 6 -7 12 42 54 6 27 vhcurveto
          103 vlineto
          70 33 20 86 8 vhcurveto
          47 4 14 -36 -61 vvcurveto
          -76 vlineto
          -92 -189 -211 -108 -140 vhcurveto
          -18 3 -34 19 -13 vhcurveto
          hintmask 11101000
          277 155 13 105 hvcurveto
          93 vlineto
          11 -6 7 -12 -31 -30 -4 -8 -24 vhcurveto
          -14 -5 -3 -8 -8 vvcurveto
          -73 vlineto
          -45 -47 -10 -192 -8 vhcurveto
          endchar
        </CharString>
        <CharString name="twosuperior">
          -222 293 46 340 43 hstemhm
          60 77 95 79 -57 85 hintmask 11110000
          262 493 rmoveto
          32 39 16 38 1 39 rrcurveto
          33 vlineto
          55 -25 27 -51 -2 vhcurveto
          -55 -3 -36 -3 -36 -12 rrcurveto
          -36 -11 -12 -22 -31 vvcurveto
          -68 vlineto
          -7 3 -3 7 45 22 6 13 vhcurveto
          51 vlineto
          36 12 8 40 3 vhcurveto
          32 3 11 -7 -43 vvcurveto
          -35 vlineto
          -33 -44 -62 -69 -85 vhcurveto
          -35 -43 -22 -27 -9 -13 rrcurveto
          -15 3 -14 6 -12 vhcurveto
          hintmask 11101000
          185 92 22 44 hvcurveto
          55 vlineto
          7 -3 3 -7 -30 -22 -2 -5 -13 vhcurveto
          -7 -3 -3 -4 -5 vvcurveto
          -40 vlineto
          -17 -28 -5 -92 -4 vhcurveto
          hintmask 11110000
          128 154 rlineto
          endchar
        </CharString>
        <CharString name="u">
          8 -13 53 -53 60 414 53 hstemhm
          91 114 186 114 hintmask 10111000
          586 6 rmoveto
          2 5 1 7 5 vvcurveto
          7 0 6 -4 6 vhcurveto
          -69 -2 rlineto
          -11 0 11 44 hvcurveto
          376 vlineto
          38 -4 5 -56 -49 -47 -8 -11 -39 vhcurveto
          -2 -6 -1 -5 -6 vvcurveto
          -7 0 -6 4 -6 vhcurveto
          69 2 rlineto
          5 6 -11 -44 hvcurveto
          hintmask 01111000
          -331 vlineto
          -15 -49 -46 -13 -35 hhcurveto
          -33 -23 10 31 hvcurveto
          383 vlineto
          38 -3 5 -57 -49 -47 -8 -11 -39 vhcurveto
          -2 -6 -1 -5 -6 vvcurveto
          -7 1 -6 3 -6 vhcurveto
          69 2 rlineto
          6 5 -11 -44 hvcurveto
          hintmask 10111000
          -343 vlineto
          -54 27 -22 74 63 64 22 21 72 vhcurveto
          -38 3 -5 57 49 47 8 11 39 vhcurveto
          endchar
        </CharString>
        <CharString name="uacute">
          8 -13 53 -53 60 414 53 hstemhm
          91 114 186 114 hintmask 10111000
          586 6 rmoveto
          2 5 1 7 5 vvcurveto
          7 0 6 -4 6 vhcurveto
          -69 -2 rlineto
          -11 0 11 44 hvcurveto
          376 vlineto
          38 -4 5 -56 -49 -47 -8 -11 -39 vhcurveto
          -2 -6 -1 -5 -6 vvcurveto
          -7 0 -6 4 -6 vhcurveto
          69 2 rlineto
          5 6 -11 -44 hvcurveto
          hintmask 01111000
          -331 vlineto
          -15 -49 -46 -13 -35 hhcurveto
          -33 -23 10 31 hvcurveto
          383 vlineto
          38 -3 5 -57 -49 -47 -8 -11 -39 vhcurveto
          -2 -6 -1 -5 -6 vvcurveto
          -7 1 -6 3 -6 vhcurveto
          69 2 rlineto
          6 5 -11 -44 hvcurveto
          hintmask 10111000
          -343 vlineto
          -54 27 -22 74 63 64 22 21 72 vhcurveto
          -38 3 -5 57 49 47 8 11 39 vhcurveto
          -229 722 rmoveto
          -41 -48 -41 -40 -42 -39 -5 -4 0 -3 1 -3 5 -12 5 -9 10 -6 5 -4 6 2 6 1 51 22 53 30 47 34 11 9 2 6 -1 4 -5 25 -21 28 -24 14 -3 1 -8 3 -11 -11 rrcurveto
          endchar
        </CharString>
        <CharString name="ucircumflex">
          8 -13 53 -53 60 414 53 hstemhm
          91 114 186 114 hintmask 10111000
          586 6 rmoveto
          2 5 1 7 5 vvcurveto
          7 0 6 -4 6 vhcurveto
          -69 -2 rlineto
          -11 0 11 44 hvcurveto
          376 vlineto
          38 -4 5 -56 -49 -47 -8 -11 -39 vhcurveto
          -2 -6 -1 -5 -6 vvcurveto
          -7 0 -6 4 -6 vhcurveto
          69 2 rlineto
          5 6 -11 -44 hvcurveto
          hintmask 01111000
          -331 vlineto
          -15 -49 -46 -13 -35 hhcurveto
          -33 -23 10 31 hvcurveto
          383 vlineto
          38 -3 5 -57 -49 -47 -8 -11 -39 vhcurveto
          -2 -6 -1 -5 -6 vvcurveto
          -7 1 -6 3 -6 vhcurveto
          69 2 rlineto
          6 5 -11 -44 hvcurveto
          hintmask 10111000
          -343 vlineto
          -54 27 -22 74 63 64 22 21 72 vhcurveto
          -38 3 -5 57 49 47 8 11 39 vhcurveto
          -298 733 rmoveto
          -7 -20 -2 -6 -7 hvcurveto
          -121 -131 -4 -4 5 -6 3 -4 rlinecurve
          -6 5 22 -12 8 hhcurveto
          8 4 4 85 102 hvcurveto
          -85 108 3 -2 7 hhcurveto
          8 27 12 6 5 hvcurveto
          3 4 0 6 -4 4 -38 43 -37 40 -46 46 rrcurveto
          7 -7 -20 1 -7 hhcurveto
          endchar
        </CharString>
        <CharString name="udieresis">
          8 -13 53 -53 60 414 53 86 105 hstemhm
          91 114 -56 105 72 105 -40 114 hintmask 10111001
          586 6 rmoveto
          2 5 1 7 5 vvcurveto
          7 0 6 -4 6 vhcurveto
          -69 -2 rlineto
          -11 0 11 44 hvcurveto
          376 vlineto
          38 -4 5 -56 -49 -47 -8 -11 -39 vhcurveto
          -2 -6 -1 -5 -6 vvcurveto
          -7 0 -6 4 -6 vhcurveto
          69 2 rlineto
          5 6 -11 -44 hvcurveto
          hintmask 01111001
          -331 vlineto
          -15 -49 -46 -13 -35 hhcurveto
          -33 -23 10 31 hvcurveto
          383 vlineto
          38 -3 5 -57 -49 -47 -8 -11 -39 vhcurveto
          -2 -6 -1 -5 -6 vvcurveto
          -7 1 -6 3 -6 vhcurveto
          69 2 rlineto
          6 5 -11 -44 hvcurveto
          hintmask 10111001
          -343 vlineto
          -54 27 -22 74 63 64 22 21 72 vhcurveto
          -38 3 -5 57 49 47 8 11 39 vhcurveto
          hintmask 10110110
          -437 624 rmoveto
          -21 2 -9 12 vhcurveto
          72 4 rlineto
          17 2 2 7 18 vvcurveto
          48 vlineto
          22 -2 8 -15 vhcurveto
          -70 -4 rlineto
          -17 -2 -1 -7 -18 vvcurveto
          177 -48 rmoveto
          -21 2 -9 12 vhcurveto
          73 4 rlineto
          16 2 2 7 18 vvcurveto
          48 vlineto
          22 -2 8 -14 vhcurveto
          -70 -4 rlineto
          -18 -2 -1 -7 -18 vvcurveto
          endchar
        </CharString>
        <CharString name="ugrave">
          8 -13 53 -53 60 414 53 hstemhm
          91 114 186 114 hintmask 10111000
          586 6 rmoveto
          2 5 1 7 5 vvcurveto
          7 0 6 -4 6 vhcurveto
          -69 -2 rlineto
          -11 0 11 44 hvcurveto
          376 vlineto
          38 -4 5 -56 -49 -47 -8 -11 -39 vhcurveto
          -2 -6 -1 -5 -6 vvcurveto
          -7 0 -6 4 -6 vhcurveto
          69 2 rlineto
          5 6 -11 -44 hvcurveto
          hintmask 01111000
          -331 vlineto
          -15 -49 -46 -13 -35 hhcurveto
          -33 -23 10 31 hvcurveto
          383 vlineto
          38 -3 5 -57 -49 -47 -8 -11 -39 vhcurveto
          -2 -6 -1 -5 -6 vvcurveto
          -7 1 -6 3 -6 vhcurveto
          69 2 rlineto
          6 5 -11 -44 hvcurveto
          hintmask 10111000
          -343 vlineto
          -54 27 -22 74 63 64 22 21 72 vhcurveto
          -38 3 -5 57 49 47 8 11 39 vhcurveto
          -375 722 rmoveto
          -11 11 -8 -3 -3 -1 -24 -14 -21 -28 -5 -25 -1 -4 2 -6 11 -9 47 -34 53 -30 51 -22 6 -1 6 -2 5 4 10 6 5 9 5 12 1 3 0 3 -5 4 -42 39 -41 40 -41 48 rrcurveto
          endchar
        </CharString>
        <CharString name="underscore">
          -192 -370 75 hstem
          0 399 vstem
          395 -363 rmoveto
          3 13 1 12 12 vvcurveto
          12 -2 13 -3 13 vhcurveto
          -87 -4 -215 -6 -87 -4 rrcurveto
          -3 -10 -2 -12 -10 vvcurveto
          -14 2 -14 4 -15 vhcurveto
          endchar
        </CharString>
        <CharString name="uni00AD">
          -249 268 94 hstem
          63 216 vstem
          275 274 rmoveto
          3 16 1 14 14 vvcurveto
          16 -2 17 -4 17 vhcurveto
          -204 -12 rlineto
          -4 -17 -2 -15 -14 vvcurveto
          -16 3 -18 5 -14 vhcurveto
          endchar
        </CharString>
        <CharString name="v">
          -16 -12 43 430 53 hstem
          91 114 191 114 vstem
          510 471 rmoveto
          38 -3 5 -57 -49 -47 -8 -11 -39 vhcurveto
          -2 -6 -1 -5 -6 vvcurveto
          -7 1 -6 3 -6 vhcurveto
          69 2 rlineto
          6 5 -11 -44 hvcurveto
          -278 vlineto
          -82 -41 -15 -101 -39 -10 22 55 vhcurveto
          363 vlineto
          38 -3 5 -57 -49 -47 -8 -11 -39 vhcurveto
          -2 -6 -1 -5 -6 vvcurveto
          -7 1 -6 3 -6 vhcurveto
          69 2 rlineto
          6 5 -11 -44 hvcurveto
          -309 vlineto
          -86 41 -23 111 195 72 43 98 vhcurveto
          endchar
        </CharString>
        <CharString name="v.001">
          -16 -12 43 423 60 -53 53 hstemhm
          91 114 191 114 hintmask 10111000
          80 461 rmoveto
          6 5 -11 -44 hvcurveto
          -309 vlineto
          -86 41 -23 111 195 72 43 98 vhcurveto
          309 vlineto
          54 -27 22 -74 -59 -60 -22 -21 -67 vhcurveto
          hintmask 11011000
          -3 -8 -1 -7 -7 vvcurveto
          -8 1 -8 3 -7 vhcurveto
          14 36 42 14 39 hhcurveto
          33 23 -11 -30 hvcurveto
          -280 vlineto
          -82 -48 -20 -94 -39 -10 22 55 vhcurveto
          hintmask 10111000
          363 vlineto
          38 -3 5 -57 -49 -47 -8 -11 -39 vhcurveto
          -2 -6 -1 -5 -6 vvcurveto
          -7 1 -6 3 -6 vhcurveto
          endchar
        </CharString>
        <CharString name="w">
          279 -12 43 -43 49 424 53 hstemhm
          94 114 187 114 182 114 hintmask 10111100
          509 471 rmoveto
          38 -3 5 -57 -49 -47 -8 -11 -39 vhcurveto
          -2 -6 -1 -5 -6 vvcurveto
          -7 1 -6 3 -6 vhcurveto
          69 2 rlineto
          6 5 -11 -44 hvcurveto
          hintmask 01111100
          -334 vlineto
          -18 -27 -41 -17 -64 hhcurveto
          -39 -16 21 55 hvcurveto
          358 vlineto
          38 -3 5 -57 -49 -47 -8 -11 -39 vhcurveto
          -2 -6 -1 -5 -6 vvcurveto
          -7 1 -6 3 -6 vhcurveto
          69 2 rlineto
          6 5 -11 -44 hvcurveto
          -309 vlineto
          hintmask 10111100
          -86 47 -23 111 75 48 17 20 32 vhcurveto
          -30 18 41 -7 81 hhcurveto
          195 63 43 98 hvcurveto
          342 vlineto
          38 -3 5 -57 -49 -47 -8 -11 -39 vhcurveto
          -2 -6 -1 -5 -6 vvcurveto
          -7 1 -6 3 -6 vhcurveto
          69 2 rlineto
          6 5 -11 -44 hvcurveto
          -273 vlineto
          -82 -32 -20 -101 -36 -13 15 62 vhcurveto
          endchar
        </CharString>
        <CharString name="w.001">
          279 -12 43 423 60 -53 53 hstemhm
          94 114 184 114 185 114 hintmask 10111100
          hintmask 11011100
          208 425 rmoveto
          12 40 59 17 29 hhcurveto
          33 23 -11 -30 hvcurveto
          -316 vlineto
          -106 31 -3 121 192 69 43 98 vhcurveto
          hintmask 10111100
          309 vlineto
          54 -24 22 -74 -51 -68 -22 -21 -64 vhcurveto
          hintmask 11011100
          -7 -15 1 -15 6 -15 rrcurveto
          14 33 65 12 22 hhcurveto
          33 14 -9 -30 hvcurveto
          -280 vlineto
          -80 -30 -22 -106 -39 -10 22 55 vhcurveto
          hintmask 10111100
          330 vlineto
          54 -27 22 -74 -62 -64 -22 -21 -71 vhcurveto
          38 -3 5 -57 -49 -47 -8 -11 -39 vhcurveto
          -2 -6 -1 -5 -6 vvcurveto
          -7 1 -6 3 -6 vhcurveto
          69 2 rlineto
          6 5 -11 -44 hvcurveto
          -402 vlineto
          -10 6 -7 11 30 28 4 7 23 vhcurveto
          13 5 3 8 7 vvcurveto
          endchar
        </CharString>
        <CharString name="x">
          -82 -13 53 -25 -21 469 53 hstemhm
          -11 533 hintmask 10110000
          448 515 rmoveto
          5 -10 -10 3 -11 hhcurveto
          -11 -11 -3 -5 -12 hvcurveto
          -105 -181 -72 139 rlineto
          38 -20 -2 5 -57 hhcurveto
          -49 -47 -8 -11 -39 hvcurveto
          -2 -5 -1 -6 -5 vvcurveto
          -7 2 -6 2 -7 vhcurveto
          69 2 rlineto
          10 15 -11 -44 21 hvcurveto
          88 -168 rlineto
          hintmask 01110000
          -143 -246 rlineto
          hintmask 10110000
          -6 11 11 -3 11 hhcurveto
          10 11 3 6 11 hvcurveto
          109 188 81 -152 rlineto
          -38 20 -1 -5 57 hhcurveto
          49 47 8 11 39 hvcurveto
          2 5 1 6 5 vvcurveto
          7 -2 6 -2 7 vhcurveto
          -69 -2 rlineto
          -10 -15 11 44 -21 hvcurveto
          -94 180 rlineto
          endchar
        </CharString>
        <CharString name="y">
          -2 -230 52 165 60 414 53 hstem
          91 114 198 114 vstem
          403 -97 rmoveto
          -52 -19 -27 -264 -2 vhcurveto
          -3 -8 -1 -11 -7 vvcurveto
          -9 5 -10 4 -7 vhcurveto
          113 87 3 22 104 hvcurveto
          59 12 29 30 58 vvcurveto
          576 vlineto
          38 -3 5 -57 -49 -47 -8 -11 -39 vhcurveto
          -2 -6 -1 -5 -6 vvcurveto
          -7 1 -6 3 -6 vhcurveto
          69 2 rlineto
          6 5 -11 -44 hvcurveto
          -331 vlineto
          -15 -54 -50 -13 -38 hhcurveto
          -33 -23 10 31 hvcurveto
          383 vlineto
          38 -3 5 -57 -49 -47 -8 -11 -39 vhcurveto
          -2 -6 -1 -5 -6 vvcurveto
          -7 1 -6 3 -6 vhcurveto
          69 2 rlineto
          6 5 -11 -44 hvcurveto
          -343 vlineto
          -54 27 -22 74 67 67 22 21 77 vhcurveto
          endchar
        </CharString>
        <CharString name="yacute">
          -2 -230 52 165 60 414 53 hstem
          91 114 198 114 vstem
          403 -97 rmoveto
          -52 -19 -27 -264 -2 vhcurveto
          -3 -8 -1 -11 -7 vvcurveto
          -9 5 -10 4 -7 vhcurveto
          113 87 3 22 104 hvcurveto
          59 12 29 30 58 vvcurveto
          576 vlineto
          38 -3 5 -57 -49 -47 -8 -11 -39 vhcurveto
          -2 -6 -1 -5 -6 vvcurveto
          -7 1 -6 3 -6 vhcurveto
          69 2 rlineto
          6 5 -11 -44 hvcurveto
          -331 vlineto
          -15 -54 -50 -13 -38 hhcurveto
          -33 -23 10 31 hvcurveto
          383 vlineto
          38 -3 5 -57 -49 -47 -8 -11 -39 vhcurveto
          -2 -6 -1 -5 -6 vvcurveto
          -7 1 -6 3 -6 vhcurveto
          69 2 rlineto
          6 5 -11 -44 hvcurveto
          -343 vlineto
          -54 27 -22 74 67 67 22 21 77 vhcurveto
          -51 698 rmoveto
          -41 -48 -41 -40 -42 -39 -5 -4 0 -3 1 -3 5 -12 5 -9 10 -6 5 -4 6 2 6 1 51 22 53 30 47 34 11 9 2 6 -1 4 -5 25 -21 28 -24 14 -3 1 -8 3 -11 -11 rrcurveto
          endchar
        </CharString>
        <CharString name="ydieresis">
          -2 -230 52 165 60 414 53 86 105 hstemhm
          91 114 -41 105 72 105 -43 114 hintmask 11111001
          403 -97 rmoveto
          -52 -19 -27 -264 -2 vhcurveto
          -3 -8 -1 -11 -7 vvcurveto
          -9 5 -10 4 -7 vhcurveto
          113 87 3 22 104 hvcurveto
          59 12 29 30 58 vvcurveto
          576 vlineto
          38 -3 5 -57 -49 -47 -8 -11 -39 vhcurveto
          -2 -6 -1 -5 -6 vvcurveto
          -7 1 -6 3 -6 vhcurveto
          69 2 rlineto
          6 5 -11 -44 hvcurveto
          -331 vlineto
          -15 -54 -50 -13 -38 hhcurveto
          -33 -23 10 31 hvcurveto
          383 vlineto
          38 -3 5 -57 -49 -47 -8 -11 -39 vhcurveto
          -2 -6 -1 -5 -6 vvcurveto
          -7 1 -6 3 -6 vhcurveto
          69 2 rlineto
          6 5 -11 -44 hvcurveto
          -343 vlineto
          -54 27 -22 74 67 67 22 21 77 vhcurveto
          hintmask 11110110
          -239 600 rmoveto
          -21 2 -9 12 vhcurveto
          72 4 rlineto
          17 2 2 7 18 vvcurveto
          48 vlineto
          22 -2 8 -15 vhcurveto
          -70 -4 rlineto
          -17 -2 -1 -7 -18 vvcurveto
          177 -48 rmoveto
          -21 2 -9 12 vhcurveto
          73 4 rlineto
          16 2 2 7 18 vvcurveto
          48 vlineto
          22 -2 8 -14 vhcurveto
          -70 -4 rlineto
          -18 -2 -1 -7 -18 vvcurveto
          endchar
        </CharString>
        <CharString name="yen">
          137 -240 50 177 66 234 50 -45 52 57 50 -45 52 202 34 -34 53 hstemhm
          113 120 272 120 hintmask 1101011011000000
          hintmask 1110101011000000
          690 335 rmoveto
          -65 4 rlineto
          64 vlineto
          67 -4 rlineto
          3 9 1 7 7 vvcurveto
          10 -1 9 -5 8 vhcurveto
          -65 4 rlineto
          242 vlineto
          11 -6 7 -12 -31 -30 -4 -8 -24 vhcurveto
          -14 -5 -3 -8 -8 vvcurveto
          hintmask 1101010111000000
          -223 vlineto
          -29 -29 1 -28 hhcurveto
          -64 -63 -3 -6 -59 hvcurveto
          221 vlineto
          38 -4 5 -63 vhcurveto
          hintmask 1110011011000000
          -49 -40 -8 -11 -39 hvcurveto
          -2 -6 -1 -5 -6 vvcurveto
          -7 1 -6 3 -6 vhcurveto
          63 2 rlineto
          6 5 -11 -44 hvcurveto
          -172 vlineto
          -74 -15 rlineto
          -3 -9 -1 -7 -7 vvcurveto
          -10 1 -9 5 -8 vhcurveto
          21 5 25 5 26 5 rrcurveto
          -64 vlineto
          -74 -15 rlineto
          -3 -9 -1 -7 -7 vvcurveto
          -10 1 -9 5 -8 vhcurveto
          21 5 25 5 26 5 rrcurveto
          -206 vlineto
          -54 34 -22 74 88 105 17 32 91 vhcurveto
          -133 vlineto
          -33 -8 -26 -42 -11 vhcurveto
          -65 -18 -73 -4 -60 -1 rrcurveto
          -55 -44 4 3 -15 hvcurveto
          -3 -9 -1 -7 -7 vvcurveto
          -10 1 -9 5 -8 vhcurveto
          -4 37 41 -3 40 hhcurveto
          94 94 10 14 64 hvcurveto
          75 16 35 40 58 vvcurveto
          391 vlineto
          67 -4 rlineto
          3 9 1 7 7 vvcurveto
          hintmask 1110101011000000
          10 -1 9 -5 8 vhcurveto
          hintmask 1101011011000000
          -379 -282 rmoveto
          -60 -18 11 54 hvcurveto
          165 vlineto
          6 70 75 3 69 hhcurveto
          58 -206 hlineto
          -23 -85 -55 -10 -54 hhcurveto
          136 353 rmoveto
          58 -63 hlineto
          -29 -29 1 -28 hhcurveto
          -64 -63 -3 -6 -59 hvcurveto
          62 vlineto
          6 70 75 3 69 hhcurveto
          endchar
        </CharString>
        <CharString name="z">
          -186 -14 59 414 55 hstem
          373 8 vstem
          353 456 rmoveto
          7 14 -1 15 -7 16 rrcurveto
          9 -50 -55 4 -53 hhcurveto
          -64 -45 -6 -12 -44 hvcurveto
          -8 -17 0 -18 8 -19 29 6 59 10 68 1 34 -1 rcurveline
          -206 -414 -9 -17 5 -15 7 -13 rlinecurve
          -9 45 46 -4 48 hhcurveto
          71 69 7 16 68 hvcurveto
          10 19 -3 20 -9 19 rrcurveto
          -9 -38 -85 -13 -92 hhcurveto
          -13 hlineto
          endchar
        </CharString>
        <CharString name="zero">
          -21 -14 52 625 52 hstem
          76 114 190 114 vstem
          76 122 rmoveto
          -98 30 -38 101 197 90 35 104 vhcurveto
          454 vlineto
          95 -29 42 -95 -1 vhcurveto
          -179 -2 -115 -31 -106 vvcurveto
          304 -446 rmoveto
          -63 -14 -26 -103 -3 vhcurveto
          -55 -2 -18 23 67 vvcurveto
          445 vlineto
          57 17 31 102 4 vhcurveto
          54 2 17 -34 -66 vvcurveto
          endchar
        </CharString>
</ttFont>
